<?xml version="1.0" encoding="utf-8"?>
<svg version="1.1" xmlns:xlink="http://www.w3.org/1999/xlink" width="12px" height="12px" viewBox="991 931.5  12 12" xmlns="http://www.w3.org/2000/svg">
  <path d="M 997 931.5  C 1000.36 931.5  1003 934.14  1003 937.5  C 1003 940.86  1000.36 943.5  997 943.5  C 993.64 943.5  991 940.86  991 937.5  C 991 934.14  993.64 931.5  997 931.5  Z " fill-rule="nonzero" fill="#ffffff" stroke="none" />
  <path d="M 997 932  C 1000.08 932  1002.5 934.42  1002.5 937.5  C 1002.5 940.58  1000.08 943  997 943  C 993.92 943  991.5 940.58  991.5 937.5  C 991.5 934.42  993.92 932  997 932  Z " stroke-width="1" stroke="#797979" fill="none" />
  <path d="M 997 940.5  C 995.32 940.5  994 939.18  994 937.5  C 994 935.82  995.32 934.5  997 934.5  C 998.68 934.5  1000 935.82  1000 937.5  C 1000 939.18  998.68 940.5  997 940.5  " fill-rule="nonzero" fill="#797979" stroke="none" />
</svg>