<?xml version="1.0" encoding="utf-8"?>
<svg version="1.1" xmlns:xlink="http://www.w3.org/1999/xlink" width="12px" height="12px" viewBox="1112 931.5  12 12" xmlns="http://www.w3.org/2000/svg">
  <path d="M 1118 931.5  C 1121.36 931.5  1124 934.14  1124 937.5  C 1124 940.86  1121.36 943.5  1118 943.5  C 1114.64 943.5  1112 940.86  1112 937.5  C 1112 934.14  1114.64 931.5  1118 931.5  Z " fill-rule="nonzero" fill="#f0f0f0" stroke="none" />
  <path d="M 1118 932  C 1121.08 932  1123.5 934.42  1123.5 937.5  C 1123.5 940.58  1121.08 943  1118 943  C 1114.92 943  1112.5 940.58  1112.5 937.5  C 1112.5 934.42  1114.92 932  1118 932  Z " stroke-width="1" stroke="#797979" fill="none" />
  <path d="M 1118 940.5  C 1116.32 940.5  1115 939.18  1115 937.5  C 1115 935.82  1116.32 934.5  1118 934.5  C 1119.68 934.5  1121 935.82  1121 937.5  C 1121 939.18  1119.68 940.5  1118 940.5  " fill-rule="nonzero" fill="#797979" stroke="none" />
</svg>