<?xml version="1.0" encoding="utf-8"?>
<svg version="1.1" xmlns:xlink="http://www.w3.org/1999/xlink" width="12px" height="12px" viewBox="411 280.5  12 12" xmlns="http://www.w3.org/2000/svg">
  <path d="M 417 280.5  C 420.36 280.5  423 283.14  423 286.5  C 423 289.86  420.36 292.5  417 292.5  C 413.64 292.5  411 289.86  411 286.5  C 411 283.14  413.64 280.5  417 280.5  Z " fill-rule="nonzero" fill="#ffffff" stroke="none" />
  <path d="M 417 281  C 420.08 281  422.5 283.42  422.5 286.5  C 422.5 289.58  420.08 292  417 292  C 413.92 292  411.5 289.58  411.5 286.5  C 411.5 283.42  413.92 281  417 281  Z " stroke-width="1" stroke="#797979" fill="none" />
  <path d="M 417 289.5  C 415.32 289.5  414 288.18  414 286.5  C 414 284.82  415.32 283.5  417 283.5  C 418.68 283.5  420 284.82  420 286.5  C 420 288.18  418.68 289.5  417 289.5  " fill-rule="nonzero" fill="#797979" stroke="none" />
</svg>