<?xml version="1.0" encoding="utf-8"?>
<svg version="1.1" xmlns:xlink="http://www.w3.org/1999/xlink" width="12px" height="12px" viewBox="550 280.5  12 12" xmlns="http://www.w3.org/2000/svg">
  <path d="M 556 280.5  C 559.36 280.5  562 283.14  562 286.5  C 562 289.86  559.36 292.5  556 292.5  C 552.64 292.5  550 289.86  550 286.5  C 550 283.14  552.64 280.5  556 280.5  Z " fill-rule="nonzero" fill="#ffffff" stroke="none" />
  <path d="M 556 281  C 559.08 281  561.5 283.42  561.5 286.5  C 561.5 289.58  559.08 292  556 292  C 552.92 292  550.5 289.58  550.5 286.5  C 550.5 283.42  552.92 281  556 281  Z " stroke-width="1" stroke="#797979" fill="none" />
  <path d="M 556 289.5  C 554.32 289.5  553 288.18  553 286.5  C 553 284.82  554.32 283.5  556 283.5  C 557.68 283.5  559 284.82  559 286.5  C 559 288.18  557.68 289.5  556 289.5  " fill-rule="nonzero" fill="#797979" stroke="none" />
</svg>