<?xml version="1.0" encoding="utf-8"?>
<svg version="1.1" xmlns:xlink="http://www.w3.org/1999/xlink" width="400px" height="32px" xmlns="http://www.w3.org/2000/svg">
  <defs>
    <mask fill="white" id="clip471">
      <path d="M 1.31578947368421 0  C 1.31578947368421 0  398.684210526316 0  398.684210526316 0  C 399.047556140351 0  399.376503508772 0.167893219  399.614614035088 0.439339828  C 399.852725438596 0.71078644  400 1.08578644  400 1.5  C 400 1.5  400 30.5  400 30.5  C 400 30.9142136  399.852725438596 31.2892136  399.614614035088 31.5606602  C 399.376503508772 31.8321068  399.047556140351 32  398.684210526316 32  C 398.684210526316 32  1.31578947368421 32  1.31578947368421 32  C 0.952444245614041 32  0.623496877192988 31.8321068  0.385385814035089 31.5606602  C 0.147274753508778 31.2892136  0 30.9142136  0 30.5  C 0 30.5  0 1.5  0 1.5  C 0 1.08578644  0.147274753508778 0.71078644  0.385385814035089 0.439339828  C 0.623496877192988 0.167893219  0.952444245614041 0  1.31578947368421 0  Z " fill-rule="evenodd" />
    </mask>
  </defs>
  <g transform="matrix(1 0 0 1 -374 -159 )">
    <path d="M 1.31578947368421 0  C 1.31578947368421 0  398.684210526316 0  398.684210526316 0  C 399.047556140351 0  399.376503508772 0.167893219  399.614614035088 0.439339828  C 399.852725438596 0.71078644  400 1.08578644  400 1.5  C 400 1.5  400 30.5  400 30.5  C 400 30.9142136  399.852725438596 31.2892136  399.614614035088 31.5606602  C 399.376503508772 31.8321068  399.047556140351 32  398.684210526316 32  C 398.684210526316 32  1.31578947368421 32  1.31578947368421 32  C 0.952444245614041 32  0.623496877192988 31.8321068  0.385385814035089 31.5606602  C 0.147274753508778 31.2892136  0 30.9142136  0 30.5  C 0 30.5  0 1.5  0 1.5  C 0 1.08578644  0.147274753508778 0.71078644  0.385385814035089 0.439339828  C 0.623496877192988 0.167893219  0.952444245614041 0  1.31578947368421 0  Z " fill-rule="nonzero" fill="#ffffff" stroke="none" transform="matrix(1 0 0 1 374 159 )" />
    <path d="M 1.31578947368421 0  C 1.31578947368421 0  398.684210526316 0  398.684210526316 0  C 399.047556140351 0  399.376503508772 0.167893219  399.614614035088 0.439339828  C 399.852725438596 0.71078644  400 1.08578644  400 1.5  C 400 1.5  400 30.5  400 30.5  C 400 30.9142136  399.852725438596 31.2892136  399.614614035088 31.5606602  C 399.376503508772 31.8321068  399.047556140351 32  398.684210526316 32  C 398.684210526316 32  1.31578947368421 32  1.31578947368421 32  C 0.952444245614041 32  0.623496877192988 31.8321068  0.385385814035089 31.5606602  C 0.147274753508778 31.2892136  0 30.9142136  0 30.5  C 0 30.5  0 1.5  0 1.5  C 0 1.08578644  0.147274753508778 0.71078644  0.385385814035089 0.439339828  C 0.623496877192988 0.167893219  0.952444245614041 0  1.31578947368421 0  Z " stroke-width="2" stroke="#dddddd" fill="none" transform="matrix(1 0 0 1 374 159 )" mask="url(#clip471)" />
  </g>
</svg>