<?xml version="1.0" encoding="utf-8"?>
<svg version="1.1" xmlns:xlink="http://www.w3.org/1999/xlink" width="400px" height="56px" xmlns="http://www.w3.org/2000/svg">
  <defs>
    <mask fill="white" id="clip630">
      <path d="M 1.30151843817787 0  C 1.30151843817787 0  398.698481561822 0  398.698481561822 0  C 399.057886334056 0  399.383265943601 0.167893219000007  399.618793926247 0.439339828000016  C 399.854322776573 0.710786439999993  400 1.08578643999999  400 1.5  C 400 1.5  400 54.5  400 54.5  C 400 54.9142136  399.854322776573 55.2892136  399.618793926247 55.5606602  C 399.383265943601 55.8321068  399.057886334056 56  398.698481561822 56  C 398.698481561822 56  1.30151843817787 56  1.30151843817787 56  C 0.942114047722349 56  0.61673443817788 55.8321068  0.381205924511932 55.5606602  C 0.14567741344903 55.2892136  0 54.9142136  0 54.5  C 0 54.5  0 1.5  0 1.5  C 0 1.08578643999999  0.14567741344903 0.710786439999993  0.381205924511932 0.439339828000016  C 0.61673443817788 0.167893219000007  0.942114047722349 0  1.30151843817787 0  Z " fill-rule="evenodd" />
    </mask>
  </defs>
  <g transform="matrix(1 0 0 1 -1416 -227 )">
    <path d="M 1.30151843817787 0  C 1.30151843817787 0  398.698481561822 0  398.698481561822 0  C 399.057886334056 0  399.383265943601 0.167893219000007  399.618793926247 0.439339828000016  C 399.854322776573 0.710786439999993  400 1.08578643999999  400 1.5  C 400 1.5  400 54.5  400 54.5  C 400 54.9142136  399.854322776573 55.2892136  399.618793926247 55.5606602  C 399.383265943601 55.8321068  399.057886334056 56  398.698481561822 56  C 398.698481561822 56  1.30151843817787 56  1.30151843817787 56  C 0.942114047722349 56  0.61673443817788 55.8321068  0.381205924511932 55.5606602  C 0.14567741344903 55.2892136  0 54.9142136  0 54.5  C 0 54.5  0 1.5  0 1.5  C 0 1.08578643999999  0.14567741344903 0.710786439999993  0.381205924511932 0.439339828000016  C 0.61673443817788 0.167893219000007  0.942114047722349 0  1.30151843817787 0  Z " fill-rule="nonzero" fill="#ffffff" stroke="none" transform="matrix(1 0 0 1 1416 227 )" />
    <path d="M 1.30151843817787 0  C 1.30151843817787 0  398.698481561822 0  398.698481561822 0  C 399.057886334056 0  399.383265943601 0.167893219000007  399.618793926247 0.439339828000016  C 399.854322776573 0.710786439999993  400 1.08578643999999  400 1.5  C 400 1.5  400 54.5  400 54.5  C 400 54.9142136  399.854322776573 55.2892136  399.618793926247 55.5606602  C 399.383265943601 55.8321068  399.057886334056 56  398.698481561822 56  C 398.698481561822 56  1.30151843817787 56  1.30151843817787 56  C 0.942114047722349 56  0.61673443817788 55.8321068  0.381205924511932 55.5606602  C 0.14567741344903 55.2892136  0 54.9142136  0 54.5  C 0 54.5  0 1.5  0 1.5  C 0 1.08578643999999  0.14567741344903 0.710786439999993  0.381205924511932 0.439339828000016  C 0.61673443817788 0.167893219000007  0.942114047722349 0  1.30151843817787 0  Z " stroke-width="2" stroke="#dddddd" fill="none" transform="matrix(1 0 0 1 1416 227 )" mask="url(#clip630)" />
  </g>
</svg>