<?xml version="1.0" encoding="utf-8"?>
<svg version="1.1" xmlns:xlink="http://www.w3.org/1999/xlink" width="936px" height="344px" xmlns="http://www.w3.org/2000/svg">
  <defs>
    <mask fill="white" id="clip473">
      <path d="M 0 5.63478260869565  C 0 2.52277810434783  3.41755974166667 0  7.63333333333333 0  L 908.366666666667 0  C 912.582440258333 0  916 2.52277810434783  916 5.63478260869565  L 916 318.365217391304  C 916 321.477221895652  912.582440258333 324  908.366666666667 324  L 7.63333333333333 324  C 3.41755974166667 324  0 321.477221895652  0 318.365217391304  L 0 5.63478260869565  Z " fill-rule="evenodd" />
    </mask>
    <filter x="-5px" y="-5px" width="936px" height="344px" filterUnits="userSpaceOnUse" id="filter474">
      <feOffset dx="5" dy="5" in="SourceAlpha" result="shadowOffsetInner" />
      <feGaussianBlur stdDeviation="5" in="shadowOffsetInner" result="shadowGaussian" />
      <feComposite in2="shadowGaussian" operator="atop" in="SourceAlpha" result="shadowComposite" />
      <feColorMatrix type="matrix" values="0 0 0 0 0  0 0 0 0 0  0 0 0 0 0  0 0 0 0.313725490196078 0  " in="shadowComposite" />
    </filter>
    <g id="widget475">
      <path d="M 0 5.63478260869565  C 0 2.52277810434783  3.41755974166667 0  7.63333333333333 0  L 908.366666666667 0  C 912.582440258333 0  916 2.52277810434783  916 5.63478260869565  L 916 318.365217391304  C 916 321.477221895652  912.582440258333 324  908.366666666667 324  L 7.63333333333333 324  C 3.41755974166667 324  0 321.477221895652  0 318.365217391304  L 0 5.63478260869565  Z " fill-rule="nonzero" fill="#ffffff" stroke="none" />
      <path d="M 0 5.63478260869565  C 0 2.52277810434783  3.41755974166667 0  7.63333333333333 0  L 908.366666666667 0  C 912.582440258333 0  916 2.52277810434783  916 5.63478260869565  L 916 318.365217391304  C 916 321.477221895652  912.582440258333 324  908.366666666667 324  L 7.63333333333333 324  C 3.41755974166667 324  0 321.477221895652  0 318.365217391304  L 0 5.63478260869565  Z " stroke-width="2" stroke="#000000" fill="none" mask="url(#clip473)" />
    </g>
  </defs>
  <g transform="matrix(1 0 0 1 5 5 )">
    <use xlink:href="#widget475" filter="url(#filter474)" />
    <use xlink:href="#widget475" />
  </g>
</svg>