<?xml version="1.0" encoding="utf-8"?>
<svg version="1.1" xmlns:xlink="http://www.w3.org/1999/xlink" width="959px" height="69px" xmlns="http://www.w3.org/2000/svg">
  <g transform="matrix(1 0 0 1 -53 -1011 )">
    <path d="M 54 1045.5  A 33.5 33.5 0 0 1 87.5 1012 L 977.5 1012  A 33.5 33.5 0 0 1 1011 1045.5 A 33.5 33.5 0 0 1 977.5 1079 L 87.5 1079  A 33.5 33.5 0 0 1 54 1045.5 Z " fill-rule="nonzero" fill="#f2f2f2" stroke="none" />
    <path d="M 53.5 1045.5  A 34 34 0 0 1 87.5 1011.5 L 977.5 1011.5  A 34 34 0 0 1 1011.5 1045.5 A 34 34 0 0 1 977.5 1079.5 L 87.5 1079.5  A 34 34 0 0 1 53.5 1045.5 Z " stroke-width="1" stroke-dasharray="9,4,2,4,2,4" stroke="#797979" fill="none" stroke-dashoffset="0.5" />
  </g>
</svg>