<?xml version="1.0" encoding="utf-8"?>
<svg version="1.1" xmlns:xlink="http://www.w3.org/1999/xlink" width="982px" height="102px" xmlns="http://www.w3.org/2000/svg">
  <g transform="matrix(1 0 0 1 -46 -1604 )">
    <path d="M 47 1647  A 42 42 0 0 1 89 1605 L 985 1605  A 42 42 0 0 1 1027 1647 L 1027 1663  A 42 42 0 0 1 985 1705 L 89 1705  A 42 42 0 0 1 47 1663 L 47 1647  Z " fill-rule="nonzero" fill="#f2f2f2" stroke="none" />
    <path d="M 46.5 1647  A 42.5 42.5 0 0 1 89 1604.5 L 985 1604.5  A 42.5 42.5 0 0 1 1027.5 1647 L 1027.5 1663  A 42.5 42.5 0 0 1 985 1705.5 L 89 1705.5  A 42.5 42.5 0 0 1 46.5 1663 L 46.5 1647  Z " stroke-width="1" stroke-dasharray="9,4,2,4,2,4" stroke="#797979" fill="none" stroke-dashoffset="0.5" />
  </g>
</svg>