<?xml version="1.0" encoding="utf-8"?>
<svg version="1.1" xmlns:xlink="http://www.w3.org/1999/xlink" width="959px" height="52px" xmlns="http://www.w3.org/2000/svg">
  <g transform="matrix(1 0 0 1 -53 -2813 )">
    <path d="M 54 2839  A 25 25 0 0 1 79 2814 L 986 2814  A 25 25 0 0 1 1011 2839 A 25 25 0 0 1 986 2864 L 79 2864  A 25 25 0 0 1 54 2839 Z " fill-rule="nonzero" fill="#f2f2f2" stroke="none" />
    <path d="M 53.5 2839  A 25.5 25.5 0 0 1 79 2813.5 L 986 2813.5  A 25.5 25.5 0 0 1 1011.5 2839 A 25.5 25.5 0 0 1 986 2864.5 L 79 2864.5  A 25.5 25.5 0 0 1 53.5 2839 Z " stroke-width="1" stroke-dasharray="9,4,2,4,2,4" stroke="#797979" fill="none" stroke-dashoffset="0.5" />
  </g>
</svg>