<?xml version="1.0" encoding="utf-8"?>
<svg version="1.1" xmlns:xlink="http://www.w3.org/1999/xlink" width="982px" height="110px" xmlns="http://www.w3.org/2000/svg">
  <g transform="matrix(1 0 0 1 -46 -2227 )">
    <path d="M 47 2270  A 42 42 0 0 1 89 2228 L 985 2228  A 42 42 0 0 1 1027 2270 L 1027 2294  A 42 42 0 0 1 985 2336 L 89 2336  A 42 42 0 0 1 47 2294 L 47 2270  Z " fill-rule="nonzero" fill="#f2f2f2" stroke="none" />
    <path d="M 46.5 2270  A 42.5 42.5 0 0 1 89 2227.5 L 985 2227.5  A 42.5 42.5 0 0 1 1027.5 2270 L 1027.5 2294  A 42.5 42.5 0 0 1 985 2336.5 L 89 2336.5  A 42.5 42.5 0 0 1 46.5 2294 L 46.5 2270  Z " stroke-width="1" stroke-dasharray="9,4,2,4,2,4" stroke="#797979" fill="none" stroke-dashoffset="0.5" />
  </g>
</svg>