<?xml version="1.0" encoding="utf-8"?>
<svg version="1.1" xmlns:xlink="http://www.w3.org/1999/xlink" width="982px" height="120px" xmlns="http://www.w3.org/2000/svg">
  <g transform="matrix(1 0 0 1 -40 -388 )">
    <path d="M 41 431  A 42 42 0 0 1 83 389 L 979 389  A 42 42 0 0 1 1021 431 L 1021 465  A 42 42 0 0 1 979 507 L 83 507  A 42 42 0 0 1 41 465 L 41 431  Z " fill-rule="nonzero" fill="#f2f2f2" stroke="none" />
    <path d="M 40.5 431  A 42.5 42.5 0 0 1 83 388.5 L 979 388.5  A 42.5 42.5 0 0 1 1021.5 431 L 1021.5 465  A 42.5 42.5 0 0 1 979 507.5 L 83 507.5  A 42.5 42.5 0 0 1 40.5 465 L 40.5 431  Z " stroke-width="1" stroke-dasharray="9,4,2,4,2,4" stroke="#797979" fill="none" stroke-dashoffset="0.5" />
  </g>
</svg>