<?xml version="1.0" encoding="utf-8"?>
<svg version="1.1" xmlns:xlink="http://www.w3.org/1999/xlink" width="12px" height="12px" viewBox="776 280.5  12 12" xmlns="http://www.w3.org/2000/svg">
  <path d="M 782 280.5  C 785.36 280.5  788 283.14  788 286.5  C 788 289.86  785.36 292.5  782 292.5  C 778.64 292.5  776 289.86  776 286.5  C 776 283.14  778.64 280.5  782 280.5  Z " fill-rule="nonzero" fill="#ffffff" stroke="none" />
  <path d="M 782 281  C 785.08 281  787.5 283.42  787.5 286.5  C 787.5 289.58  785.08 292  782 292  C 778.92 292  776.5 289.58  776.5 286.5  C 776.5 283.42  778.92 281  782 281  Z " stroke-width="1" stroke="#797979" fill="none" />
  <path d="M 782 289.5  C 780.32 289.5  779 288.18  779 286.5  C 779 284.82  780.32 283.5  782 283.5  C 783.68 283.5  785 284.82  785 286.5  C 785 288.18  783.68 289.5  782 289.5  " fill-rule="nonzero" fill="#797979" stroke="none" />
</svg>