<?xml version="1.0" encoding="utf-8"?>
<svg version="1.1" xmlns:xlink="http://www.w3.org/1999/xlink" width="12px" height="12px" viewBox="2080 467.5  12 12" xmlns="http://www.w3.org/2000/svg">
  <path d="M 2086 467.5  C 2089.36 467.5  2092 470.14  2092 473.5  C 2092 476.86  2089.36 479.5  2086 479.5  C 2082.64 479.5  2080 476.86  2080 473.5  C 2080 470.14  2082.64 467.5  2086 467.5  Z " fill-rule="nonzero" fill="#f0f0f0" stroke="none" />
  <path d="M 2086 468  C 2089.08 468  2091.5 470.42  2091.5 473.5  C 2091.5 476.58  2089.08 479  2086 479  C 2082.92 479  2080.5 476.58  2080.5 473.5  C 2080.5 470.42  2082.92 468  2086 468  Z " stroke-width="1" stroke="#797979" fill="none" />
  <path d="M 2086 476.5  C 2084.32 476.5  2083 475.18  2083 473.5  C 2083 471.82  2084.32 470.5  2086 470.5  C 2087.68 470.5  2089 471.82  2089 473.5  C 2089 475.18  2087.68 476.5  2086 476.5  " fill-rule="nonzero" fill="#797979" stroke="none" />
</svg>