<?xml version="1.0" encoding="utf-8"?>
<svg version="1.1" xmlns:xlink="http://www.w3.org/1999/xlink" width="12px" height="12px" viewBox="867 280.5  12 12" xmlns="http://www.w3.org/2000/svg">
  <path d="M 873 280.5  C 876.36 280.5  879 283.14  879 286.5  C 879 289.86  876.36 292.5  873 292.5  C 869.64 292.5  867 289.86  867 286.5  C 867 283.14  869.64 280.5  873 280.5  Z " fill-rule="nonzero" fill="#ffffff" stroke="none" />
  <path d="M 873 281  C 876.08 281  878.5 283.42  878.5 286.5  C 878.5 289.58  876.08 292  873 292  C 869.92 292  867.5 289.58  867.5 286.5  C 867.5 283.42  869.92 281  873 281  Z " stroke-width="1" stroke="#797979" fill="none" />
  <path d="M 873 289.5  C 871.32 289.5  870 288.18  870 286.5  C 870 284.82  871.32 283.5  873 283.5  C 874.68 283.5  876 284.82  876 286.5  C 876 288.18  874.68 289.5  873 289.5  " fill-rule="nonzero" fill="#797979" stroke="none" />
</svg>