<?xml version="1.0" encoding="utf-8"?>
<svg version="1.1" xmlns:xlink="http://www.w3.org/1999/xlink" width="12px" height="12px" viewBox="2171 467.5  12 12" xmlns="http://www.w3.org/2000/svg">
  <path d="M 2177 467.5  C 2180.36 467.5  2183 470.14  2183 473.5  C 2183 476.86  2180.36 479.5  2177 479.5  C 2173.64 479.5  2171 476.86  2171 473.5  C 2171 470.14  2173.64 467.5  2177 467.5  Z " fill-rule="nonzero" fill="#ffffff" stroke="none" />
  <path d="M 2177 468  C 2180.08 468  2182.5 470.42  2182.5 473.5  C 2182.5 476.58  2180.08 479  2177 479  C 2173.92 479  2171.5 476.58  2171.5 473.5  C 2171.5 470.42  2173.92 468  2177 468  Z " stroke-width="1" stroke="#797979" fill="none" />
  <path d="M 2177 476.5  C 2175.32 476.5  2174 475.18  2174 473.5  C 2174 471.82  2175.32 470.5  2177 470.5  C 2178.68 470.5  2180 471.82  2180 473.5  C 2180 475.18  2178.68 476.5  2177 476.5  " fill-rule="nonzero" fill="#797979" stroke="none" />
</svg>