<?xml version="1.0" encoding="utf-8"?>
<svg version="1.1" xmlns:xlink="http://www.w3.org/1999/xlink" width="12px" height="12px" viewBox="2171 313.5  12 12" xmlns="http://www.w3.org/2000/svg">
  <path d="M 2177 313.5  C 2180.36 313.5  2183 316.14  2183 319.5  C 2183 322.86  2180.36 325.5  2177 325.5  C 2173.64 325.5  2171 322.86  2171 319.5  C 2171 316.14  2173.64 313.5  2177 313.5  Z " fill-rule="nonzero" fill="#f0f0f0" stroke="none" />
  <path d="M 2177 314  C 2180.08 314  2182.5 316.42  2182.5 319.5  C 2182.5 322.58  2180.08 325  2177 325  C 2173.92 325  2171.5 322.58  2171.5 319.5  C 2171.5 316.42  2173.92 314  2177 314  Z " stroke-width="1" stroke="#797979" fill="none" />
  <path d="M 2177 322.5  C 2175.32 322.5  2174 321.18  2174 319.5  C 2174 317.82  2175.32 316.5  2177 316.5  C 2178.68 316.5  2180 317.82  2180 319.5  C 2180 321.18  2178.68 322.5  2177 322.5  " fill-rule="nonzero" fill="#797979" stroke="none" />
</svg>