<?xml version="1.0" encoding="utf-8"?>
<svg version="1.1" xmlns:xlink="http://www.w3.org/1999/xlink" width="12px" height="12px" viewBox="2262 313.5  12 12" xmlns="http://www.w3.org/2000/svg">
  <path d="M 2268 313.5  C 2271.36 313.5  2274 316.14  2274 319.5  C 2274 322.86  2271.36 325.5  2268 325.5  C 2264.64 325.5  2262 322.86  2262 319.5  C 2262 316.14  2264.64 313.5  2268 313.5  Z " fill-rule="nonzero" fill="#ffffff" stroke="none" />
  <path d="M 2268 314  C 2271.08 314  2273.5 316.42  2273.5 319.5  C 2273.5 322.58  2271.08 325  2268 325  C 2264.92 325  2262.5 322.58  2262.5 319.5  C 2262.5 316.42  2264.92 314  2268 314  Z " stroke-width="1" stroke="#797979" fill="none" />
  <path d="M 2268 322.5  C 2266.32 322.5  2265 321.18  2265 319.5  C 2265 317.82  2266.32 316.5  2268 316.5  C 2269.68 316.5  2271 317.82  2271 319.5  C 2271 321.18  2269.68 322.5  2268 322.5  " fill-rule="nonzero" fill="#797979" stroke="none" />
</svg>