<?xml version="1.0" encoding="utf-8"?>
<svg version="1.1" xmlns:xlink="http://www.w3.org/1999/xlink" width="12px" height="12px" viewBox="2155 818.5  12 12" xmlns="http://www.w3.org/2000/svg">
  <path d="M 2161 818.5  C 2164.36 818.5  2167 821.14  2167 824.5  C 2167 827.86  2164.36 830.5  2161 830.5  C 2157.64 830.5  2155 827.86  2155 824.5  C 2155 821.14  2157.64 818.5  2161 818.5  Z " fill-rule="nonzero" fill="#f0f0f0" stroke="none" />
  <path d="M 2161 819  C 2164.08 819  2166.5 821.42  2166.5 824.5  C 2166.5 827.58  2164.08 830  2161 830  C 2157.92 830  2155.5 827.58  2155.5 824.5  C 2155.5 821.42  2157.92 819  2161 819  Z " stroke-width="1" stroke="#797979" fill="none" />
  <path d="M 2161 827.5  C 2159.32 827.5  2158 826.18  2158 824.5  C 2158 822.82  2159.32 821.5  2161 821.5  C 2162.68 821.5  2164 822.82  2164 824.5  C 2164 826.18  2162.68 827.5  2161 827.5  " fill-rule="nonzero" fill="#797979" stroke="none" />
</svg>