<?xml version="1.0" encoding="utf-8"?>
<svg version="1.1" xmlns:xlink="http://www.w3.org/1999/xlink" width="12px" height="12px" viewBox="2237 818.5  12 12" xmlns="http://www.w3.org/2000/svg">
  <path d="M 2243 818.5  C 2246.36 818.5  2249 821.14  2249 824.5  C 2249 827.86  2246.36 830.5  2243 830.5  C 2239.64 830.5  2237 827.86  2237 824.5  C 2237 821.14  2239.64 818.5  2243 818.5  Z " fill-rule="nonzero" fill="#f0f0f0" stroke="none" />
  <path d="M 2243 819  C 2246.08 819  2248.5 821.42  2248.5 824.5  C 2248.5 827.58  2246.08 830  2243 830  C 2239.92 830  2237.5 827.58  2237.5 824.5  C 2237.5 821.42  2239.92 819  2243 819  Z " stroke-width="1" stroke="#797979" fill="none" />
  <path d="M 2243 827.5  C 2241.32 827.5  2240 826.18  2240 824.5  C 2240 822.82  2241.32 821.5  2243 821.5  C 2244.68 821.5  2246 822.82  2246 824.5  C 2246 826.18  2244.68 827.5  2243 827.5  " fill-rule="nonzero" fill="#797979" stroke="none" />
</svg>