<?xml version="1.0" encoding="utf-8"?>
<svg version="1.1" xmlns:xlink="http://www.w3.org/1999/xlink" width="12px" height="12px" viewBox="2212 969.5  12 12" xmlns="http://www.w3.org/2000/svg">
  <path d="M 2218 969.5  C 2221.36 969.5  2224 972.14  2224 975.5  C 2224 978.86  2221.36 981.5  2218 981.5  C 2214.64 981.5  2212 978.86  2212 975.5  C 2212 972.14  2214.64 969.5  2218 969.5  Z " fill-rule="nonzero" fill="#f0f0f0" stroke="none" />
  <path d="M 2218 970  C 2221.08 970  2223.5 972.42  2223.5 975.5  C 2223.5 978.58  2221.08 981  2218 981  C 2214.92 981  2212.5 978.58  2212.5 975.5  C 2212.5 972.42  2214.92 970  2218 970  Z " stroke-width="1" stroke="#797979" fill="none" />
  <path d="M 2218 978.5  C 2216.32 978.5  2215 977.18  2215 975.5  C 2215 973.82  2216.32 972.5  2218 972.5  C 2219.68 972.5  2221 973.82  2221 975.5  C 2221 977.18  2219.68 978.5  2218 978.5  " fill-rule="nonzero" fill="#797979" stroke="none" />
</svg>