<?xml version="1.0" encoding="utf-8"?>
<svg version="1.1" xmlns:xlink="http://www.w3.org/1999/xlink" width="12px" height="12px" viewBox="2135 969.5  12 12" xmlns="http://www.w3.org/2000/svg">
  <path d="M 2141 969.5  C 2144.36 969.5  2147 972.14  2147 975.5  C 2147 978.86  2144.36 981.5  2141 981.5  C 2137.64 981.5  2135 978.86  2135 975.5  C 2135 972.14  2137.64 969.5  2141 969.5  Z " fill-rule="nonzero" fill="#ffffff" stroke="none" />
  <path d="M 2141 970  C 2144.08 970  2146.5 972.42  2146.5 975.5  C 2146.5 978.58  2144.08 981  2141 981  C 2137.92 981  2135.5 978.58  2135.5 975.5  C 2135.5 972.42  2137.92 970  2141 970  Z " stroke-width="1" stroke="#797979" fill="none" />
  <path d="M 2141 978.5  C 2139.32 978.5  2138 977.18  2138 975.5  C 2138 973.82  2139.32 972.5  2141 972.5  C 2142.68 972.5  2144 973.82  2144 975.5  C 2144 977.18  2142.68 978.5  2141 978.5  " fill-rule="nonzero" fill="#797979" stroke="none" />
</svg>