<?xml version="1.0" encoding="utf-8"?>
<svg version="1.1" xmlns:xlink="http://www.w3.org/1999/xlink" width="12px" height="12px" viewBox="2358 969.5  12 12" xmlns="http://www.w3.org/2000/svg">
  <path d="M 2364 969.5  C 2367.36 969.5  2370 972.14  2370 975.5  C 2370 978.86  2367.36 981.5  2364 981.5  C 2360.64 981.5  2358 978.86  2358 975.5  C 2358 972.14  2360.64 969.5  2364 969.5  Z " fill-rule="nonzero" fill="#f0f0f0" stroke="none" />
  <path d="M 2364 970  C 2367.08 970  2369.5 972.42  2369.5 975.5  C 2369.5 978.58  2367.08 981  2364 981  C 2360.92 981  2358.5 978.58  2358.5 975.5  C 2358.5 972.42  2360.92 970  2364 970  Z " stroke-width="1" stroke="#797979" fill="none" />
  <path d="M 2364 978.5  C 2362.32 978.5  2361 977.18  2361 975.5  C 2361 973.82  2362.32 972.5  2364 972.5  C 2365.68 972.5  2367 973.82  2367 975.5  C 2367 977.18  2365.68 978.5  2364 978.5  " fill-rule="nonzero" fill="#797979" stroke="none" />
</svg>