<?xml version="1.0" encoding="utf-8"?>
<svg version="1.1" xmlns:xlink="http://www.w3.org/1999/xlink" width="12px" height="12px" viewBox="994 459.5  12 12" xmlns="http://www.w3.org/2000/svg">
  <path d="M 1000 459.5  C 1003.36 459.5  1006 462.14  1006 465.5  C 1006 468.86  1003.36 471.5  1000 471.5  C 996.64 471.5  994 468.86  994 465.5  C 994 462.14  996.64 459.5  1000 459.5  Z " fill-rule="nonzero" fill="#f0f0f0" stroke="none" />
  <path d="M 1000 460  C 1003.08 460  1005.5 462.42  1005.5 465.5  C 1005.5 468.58  1003.08 471  1000 471  C 996.92 471  994.5 468.58  994.5 465.5  C 994.5 462.42  996.92 460  1000 460  Z " stroke-width="1" stroke="#797979" fill="none" />
  <path d="M 1000 468.5  C 998.32 468.5  997 467.18  997 465.5  C 997 463.82  998.32 462.5  1000 462.5  C 1001.68 462.5  1003 463.82  1003 465.5  C 1003 467.18  1001.68 468.5  1000 468.5  " fill-rule="nonzero" fill="#797979" stroke="none" />
</svg>