<?xml version="1.0" encoding="utf-8"?>
<svg version="1.1" xmlns:xlink="http://www.w3.org/1999/xlink" width="12px" height="12px" viewBox="1116 459.5  12 12" xmlns="http://www.w3.org/2000/svg">
  <path d="M 1122 459.5  C 1125.36 459.5  1128 462.14  1128 465.5  C 1128 468.86  1125.36 471.5  1122 471.5  C 1118.64 471.5  1116 468.86  1116 465.5  C 1116 462.14  1118.64 459.5  1122 459.5  Z " fill-rule="nonzero" fill="#ffffff" stroke="none" />
  <path d="M 1122 460  C 1125.08 460  1127.5 462.42  1127.5 465.5  C 1127.5 468.58  1125.08 471  1122 471  C 1118.92 471  1116.5 468.58  1116.5 465.5  C 1116.5 462.42  1118.92 460  1122 460  Z " stroke-width="1" stroke="#797979" fill="none" />
  <path d="M 1122 468.5  C 1120.32 468.5  1119 467.18  1119 465.5  C 1119 463.82  1120.32 462.5  1122 462.5  C 1123.68 462.5  1125 463.82  1125 465.5  C 1125 467.18  1123.68 468.5  1122 468.5  " fill-rule="nonzero" fill="#797979" stroke="none" />
</svg>