<?xml version="1.0" encoding="utf-8"?>
<svg version="1.1" xmlns:xlink="http://www.w3.org/1999/xlink" width="1445px" height="1044px" xmlns="http://www.w3.org/2000/svg">
  <g transform="matrix(1 0 0 1 -278 -1310 )">
    <path d="M 279 1323  A 12 12 0 0 1 291 1311 L 1710 1311  A 12 12 0 0 1 1722 1323 L 1722 2341  A 12 12 0 0 1 1710 2353 L 291 2353  A 12 12 0 0 1 279 2341 L 279 1323  Z " fill-rule="nonzero" fill="#f2f2f2" stroke="none" />
    <path d="M 278.5 1323  A 12.5 12.5 0 0 1 291 1310.5 L 1710 1310.5  A 12.5 12.5 0 0 1 1722.5 1323 L 1722.5 2341  A 12.5 12.5 0 0 1 1710 2353.5 L 291 2353.5  A 12.5 12.5 0 0 1 278.5 2341 L 278.5 1323  Z " stroke-width="1" stroke-dasharray="17,4,5,4" stroke="#d9001b" fill="none" stroke-dashoffset="0.5" />
  </g>
</svg>