<?xml version="1.0" encoding="utf-8"?>
<svg version="1.1" xmlns:xlink="http://www.w3.org/1999/xlink" width="18px" height="21px" xmlns="http://www.w3.org/2000/svg">
  <g transform="matrix(1 0 0 1 -1041 -517 )">
    <path d="M 14.77734375 19.27734375  C 14.92578125 19.12890625  15 18.953125  15 18.75  C 15 18.546875  14.92578125 18.37109375  14.77734375 18.22265625  C 14.62890625 18.07421875  14.453125 18  14.25 18  C 14.046875 18  13.87109375 18.07421875  13.72265625 18.22265625  C 13.57421875 18.37109375  13.5 18.546875  13.5 18.75  C 13.5 18.953125  13.57421875 19.12890625  13.72265625 19.27734375  C 13.87109375 19.42578125  14.046875 19.5  14.25 19.5  C 14.453125 19.5  14.62890625 19.42578125  14.77734375 19.27734375  Z M 16.125 11.900390625  C 16.375 11.130859375  16.5 10.4296875  16.5 9.796875  C 16.5 8.3203125  15.84765625 7.58203125  14.54296875 7.58203125  C 14.33984375 7.58203125  14.12109375 7.6015625  13.88671875 7.640625  C 13.76171875 7.40625  13.556640625 7.220703125  13.271484375 7.083984375  C 12.986328125 6.947265625  12.69921875 6.87890625  12.41015625 6.87890625  C 12.12109375 6.87890625  11.8515625 6.94921875  11.6015625 7.08984375  C 11.2109375 6.67578125  10.74609375 6.46875  10.20703125 6.46875  C 10.01171875 6.46875  9.794921875 6.5078125  9.556640625 6.5859375  C 9.318359375 6.6640625  9.1328125 6.76171875  9 6.87890625  L 9 3  C 9 2.59375  8.8515625 2.2421875  8.5546875 1.9453125  C 8.2578125 1.6484375  7.90625 1.5  7.5 1.5  C 7.1015625 1.5  6.751953125 1.65234375  6.451171875 1.95703125  C 6.150390625 2.26171875  6 2.609375  6 3  L 6 9.75  C 5.84375 9.75  5.654296875 9.69140625  5.431640625 9.57421875  C 5.208984375 9.45703125  4.994140625 9.328125  4.787109375 9.1875  C 4.580078125 9.046875  4.314453125 8.91796875  3.990234375 8.80078125  C 3.666015625 8.68359375  3.3359375 8.625  3 8.625  C 2.4765625 8.625  2.095703125 8.798828125  1.857421875 9.146484375  C 1.619140625 9.494140625  1.5 9.9453125  1.5 10.5  C 1.5 10.6875  2.04296875 11.0390625  3.12890625 11.5546875  C 3.47265625 11.7421875  3.7265625 11.88671875  3.890625 11.98828125  C 4.390625 12.30078125  4.95703125 12.73828125  5.58984375 13.30078125  C 6.22265625 13.85546875  6.63671875 14.25  6.83203125 14.484375  C 7.27734375 15.0234375  7.5 15.5703125  7.5 16.125  L 7.5 16.5  L 15 16.5  L 15 16.125  C 15 15.5625  15.125 14.91015625  15.375 14.16796875  C 15.625 13.42578125  15.875 12.669921875  16.125 11.900390625  Z M 17.056640625 7.078125  C 17.685546875 7.75  18 8.63671875  18 9.73828125  C 18 10.77734375  17.73046875 12.03515625  17.19140625 13.51171875  C 16.73046875 14.79296875  16.5 15.6640625  16.5 16.125  L 16.5 19.5  C 16.5 19.9140625  16.353515625 20.267578125  16.060546875 20.560546875  C 15.767578125 20.853515625  15.4140625 21  15 21  L 7.5 21  C 7.0859375 21  6.732421875 20.853515625  6.439453125 20.560546875  C 6.146484375 20.267578125  6 19.9140625  6 19.5  L 6 16.125  C 6 16.046875  5.982421875 15.962890625  5.947265625 15.873046875  C 5.912109375 15.783203125  5.857421875 15.69140625  5.783203125 15.59765625  C 5.708984375 15.50390625  5.638671875 15.416015625  5.572265625 15.333984375  C 5.505859375 15.251953125  5.41796875 15.158203125  5.30859375 15.052734375  C 5.19921875 14.947265625  5.115234375 14.8671875  5.056640625 14.8125  C 4.998046875 14.7578125  4.9140625 14.68359375  4.8046875 14.58984375  C 4.6953125 14.49609375  4.62890625 14.44140625  4.60546875 14.42578125  C 4.02734375 13.91796875  3.5234375 13.52734375  3.09375 13.25390625  C 2.9296875 13.15234375  2.6875 13.0234375  2.3671875 12.8671875  C 2.046875 12.7109375  1.765625 12.56640625  1.5234375 12.43359375  C 1.28125 12.30078125  1.03515625 12.142578125  0.78515625 11.958984375  C 0.53515625 11.775390625  0.341796875 11.560546875  0.205078125 11.314453125  C 0.068359375 11.068359375  0 10.796875  0 10.5  C 0 9.5234375  0.26171875 8.716796875  0.78515625 8.080078125  C 1.30859375 7.443359375  2.046875 7.125  3 7.125  C 3.53125 7.125  4.03125 7.2109375  4.5 7.3828125  L 4.5 3  C 4.5 2.1875  4.796875 1.484375  5.390625 0.890625  C 5.984375 0.296875000000002  6.68359375 0  7.48828125 0  C 8.30859375 0  9.015625 0.294921875000001  9.609375 0.884765624999999  C 10.203125 1.474609375  10.5 2.1796875  10.5 3  L 10.5 4.98046875  C 10.984375 5.01171875  11.44921875 5.15625  11.89453125 5.4140625  C 12.05859375 5.390625  12.2265625 5.37890625  12.3984375 5.37890625  C 13.1875 5.37890625  13.8828125 5.61328125  14.484375 6.08203125  C 15.5703125 6.07421875  16.427734375 6.40625  17.056640625 7.078125  Z " fill-rule="nonzero" fill="#000000" stroke="none" transform="matrix(1 0 0 1 1041 517 )" />
  </g>
</svg>