<?xml version="1.0" encoding="utf-8"?>
<svg version="1.1" xmlns:xlink="http://www.w3.org/1999/xlink" width="12px" height="12px" viewBox="587 1251.5  12 12" xmlns="http://www.w3.org/2000/svg">
  <path d="M 593 1251.5  C 596.36 1251.5  599 1254.14  599 1257.5  C 599 1260.86  596.36 1263.5  593 1263.5  C 589.64 1263.5  587 1260.86  587 1257.5  C 587 1254.14  589.64 1251.5  593 1251.5  Z " fill-rule="nonzero" fill="#ffffff" stroke="none" />
  <path d="M 593 1252  C 596.08 1252  598.5 1254.42  598.5 1257.5  C 598.5 1260.58  596.08 1263  593 1263  C 589.92 1263  587.5 1260.58  587.5 1257.5  C 587.5 1254.42  589.92 1252  593 1252  Z " stroke-width="1" stroke="#797979" fill="none" />
  <path d="M 593 1260.5  C 591.32 1260.5  590 1259.18  590 1257.5  C 590 1255.82  591.32 1254.5  593 1254.5  C 594.68 1254.5  596 1255.82  596 1257.5  C 596 1259.18  594.68 1260.5  593 1260.5  " fill-rule="nonzero" fill="#797979" stroke="none" />
</svg>