<?xml version="1.0" encoding="utf-8"?>
<svg version="1.1" xmlns:xlink="http://www.w3.org/1999/xlink" width="12px" height="12px" viewBox="1431 1379.5  12 12" xmlns="http://www.w3.org/2000/svg">
  <path d="M 1437 1379.5  C 1440.36 1379.5  1443 1382.14  1443 1385.5  C 1443 1388.86  1440.36 1391.5  1437 1391.5  C 1433.64 1391.5  1431 1388.86  1431 1385.5  C 1431 1382.14  1433.64 1379.5  1437 1379.5  Z " fill-rule="nonzero" fill="#ffffff" stroke="none" />
  <path d="M 1437 1380  C 1440.08 1380  1442.5 1382.42  1442.5 1385.5  C 1442.5 1388.58  1440.08 1391  1437 1391  C 1433.92 1391  1431.5 1388.58  1431.5 1385.5  C 1431.5 1382.42  1433.92 1380  1437 1380  Z " stroke-width="1" stroke="#797979" fill="none" />
  <path d="M 1437 1388.5  C 1435.32 1388.5  1434 1387.18  1434 1385.5  C 1434 1383.82  1435.32 1382.5  1437 1382.5  C 1438.68 1382.5  1440 1383.82  1440 1385.5  C 1440 1387.18  1438.68 1388.5  1437 1388.5  " fill-rule="nonzero" fill="#797979" stroke="none" />
</svg>