<?xml version="1.0" encoding="utf-8"?>
<svg version="1.1" xmlns:xlink="http://www.w3.org/1999/xlink" width="12px" height="12px" viewBox="1354 1379.5  12 12" xmlns="http://www.w3.org/2000/svg">
  <path d="M 1360 1379.5  C 1363.36 1379.5  1366 1382.14  1366 1385.5  C 1366 1388.86  1363.36 1391.5  1360 1391.5  C 1356.64 1391.5  1354 1388.86  1354 1385.5  C 1354 1382.14  1356.64 1379.5  1360 1379.5  Z " fill-rule="nonzero" fill="#f0f0f0" stroke="none" />
  <path d="M 1360 1380  C 1363.08 1380  1365.5 1382.42  1365.5 1385.5  C 1365.5 1388.58  1363.08 1391  1360 1391  C 1356.92 1391  1354.5 1388.58  1354.5 1385.5  C 1354.5 1382.42  1356.92 1380  1360 1380  Z " stroke-width="1" stroke="#797979" fill="none" />
  <path d="M 1360 1388.5  C 1358.32 1388.5  1357 1387.18  1357 1385.5  C 1357 1383.82  1358.32 1382.5  1360 1382.5  C 1361.68 1382.5  1363 1383.82  1363 1385.5  C 1363 1387.18  1361.68 1388.5  1360 1388.5  " fill-rule="nonzero" fill="#797979" stroke="none" />
</svg>