<?xml version="1.0" encoding="utf-8"?>
<svg version="1.1" xmlns:xlink="http://www.w3.org/1999/xlink" width="19px" height="17px" xmlns="http://www.w3.org/2000/svg">
  <g transform="matrix(1 0 0 1 -384 -149 )">
    <path d="M 14.3984375 15.373046875  C 14.5430689102564 15.2328559027778  14.6153846153846 15.0668402777778  14.6153846153846 14.875  C 14.6153846153846 14.6831597222222  14.5430689102564 14.5171440972222  14.3984375 14.376953125  C 14.2538060897436 14.2367621527778  14.0825320512821 14.1666666666667  13.8846153846154 14.1666666666667  C 13.6866987179487 14.1666666666667  13.5154246794872 14.2367621527778  13.3707932692308 14.376953125  C 13.2261618589744 14.5171440972222  13.1538461538462 14.6831597222222  13.1538461538462 14.875  C 13.1538461538462 15.0668402777778  13.2261618589744 15.2328559027778  13.3707932692308 15.373046875  C 13.5154246794872 15.5132378472222  13.6866987179487 15.5833333333333  13.8846153846154 15.5833333333333  C 14.0825320512821 15.5833333333333  14.2538060897436 15.5132378472222  14.3984375 15.373046875  Z M 17.3215144230769 15.373046875  C 17.4661458333333 15.2328559027778  17.5384615384615 15.0668402777778  17.5384615384615 14.875  C 17.5384615384615 14.6831597222222  17.4661458333333 14.5171440972222  17.3215144230769 14.376953125  C 17.1768830128205 14.2367621527778  17.005608974359 14.1666666666667  16.8076923076923 14.1666666666667  C 16.6097756410256 14.1666666666667  16.4385016025641 14.2367621527778  16.2938701923077 14.376953125  C 16.1492387820513 14.5171440972222  16.0769230769231 14.6831597222222  16.0769230769231 14.875  C 16.0769230769231 15.0668402777778  16.1492387820513 15.2328559027778  16.2938701923077 15.373046875  C 16.4385016025641 15.5132378472222  16.6097756410256 15.5833333333333  16.8076923076923 15.5833333333333  C 17.005608974359 15.5833333333333  17.1768830128205 15.5132378472222  17.3215144230769 15.373046875  Z M 18.6802884615385 11.6432291666667  C 18.8934294871795 11.8498263888889  19 12.1006944444444  19 12.3958333333333  L 19 15.9375  C 19 16.2326388888889  18.8934294871795 16.4835069444444  18.6802884615385 16.6901041666667  C 18.4671474358974 16.8967013888889  18.2083333333333 17  17.9038461538462 17  L 1.09615384615385 17  C 0.791666666666667 17  0.532852564102564 16.8967013888889  0.319711538461538 16.6901041666667  C 0.106570512820513 16.4835069444444  0 16.2326388888889  0 15.9375  L 0 12.3958333333333  C 0 12.1006944444444  0.106570512820513 11.8498263888889  0.319711538461538 11.6432291666667  C 0.532852564102564 11.4366319444444  0.791666666666667 11.3333333333333  1.09615384615385 11.3333333333333  L 6.40564903846154 11.3333333333333  L 7.94711538461539 12.8385416666667  C 8.3886217948718 13.2517361111111  8.90625 13.4583333333333  9.5 13.4583333333333  C 10.09375 13.4583333333333  10.6113782051282 13.2517361111111  11.0528846153846 12.8385416666667  L 12.6057692307692 11.3333333333333  L 17.9038461538462 11.3333333333333  C 18.2083333333333 11.3333333333333  18.4671474358974 11.4366319444444  18.6802884615385 11.6432291666667  Z M 14.6153846153846 5.66666666666667  C 14.9350961538462 5.66666666666667  15.159655448718 5.810546875  15.2890625 6.09830729166667  C 15.4184695512821 6.40082465277778  15.3651842948718 6.65907118055556  15.1292067307692 6.873046875  L 10.0138221153846 11.8313802083333  C 9.87680288461538 11.9715711805556  9.70552884615385 12.0416666666667  9.5 12.0416666666667  C 9.29447115384615 12.0416666666667  9.12319711538462 11.9715711805556  8.98617788461539 11.8313802083333  L 3.87079326923077 6.873046875  C 3.63481570512821 6.65907118055556  3.58153044871795 6.40082465277778  3.7109375 6.09830729166667  C 3.84034455128205 5.810546875  4.06490384615385 5.66666666666667  4.38461538461539 5.66666666666667  L 7.30769230769231 5.66666666666667  L 7.30769230769231 0.708333333333333  C 7.30769230769231 0.516493055555553  7.38000801282051 0.350477430555553  7.52463942307692 0.210286458333333  C 7.66927083333333 0.0700954861111122  7.84054487179487 0  8.03846153846154 0  L 10.9615384615385 0  C 11.1594551282051 0  11.3307291666667 0.0700954861111122  11.4753605769231 0.210286458333333  C 11.6199919871795 0.350477430555553  11.6923076923077 0.516493055555553  11.6923076923077 0.708333333333333  L 11.6923076923077 5.66666666666667  L 14.6153846153846 5.66666666666667  Z " fill-rule="nonzero" fill="#ffffff" stroke="none" transform="matrix(1 0 0 1 384 149 )" />
  </g>
</svg>