<?xml version="1.0" encoding="utf-8"?>
<svg version="1.1" xmlns:xlink="http://www.w3.org/1999/xlink" width="8px" height="16px" xmlns="http://www.w3.org/2000/svg">
  <g transform="matrix(1 0 0 1 -24 -16 )">
    <path d="M 7.88865096359743 9.74107142857143  C 7.96288365453248 10.0029761904762  8 10.2827380952381  8 10.5803571428571  C 8 11.4910714285714  7.71591720199857 12.2752976190476  7.14775160599572 12.9330357142857  C 6.57958600999286 13.5907738095238  5.84154175588865 13.9970238095238  4.93361884368308 14.1517857142857  L 4.93361884368308 15.7142857142857  C 4.93361884368308 15.797619047619  4.90792291220557 15.8660714285714  4.85653104925054 15.9196428571429  C 4.8051391862955 15.9732142857143  4.73947180585296 16  4.65952890792291 16  L 3.50321199143469 16  C 3.42897930049964 16  3.36473947180585 15.9717261904762  3.31049250535332 15.9151785714286  C 3.25624553890079 15.858630952381  3.22912205567452 15.7916666666667  3.22912205567452 15.7142857142857  L 3.22912205567452 14.1517857142857  C 2.85224839400428 14.0982142857143  2.48822269807281 14.0059523809524  2.13704496788009 13.875  C 1.78586723768737 13.7440476190476  1.49607423269094 13.6116071428571  1.26766595289079 13.4776785714286  C 1.03925767309065 13.34375  0.827980014275518 13.2008928571429  0.633832976445396 13.0491071428571  C 0.439685938615275 12.8973214285714  0.306923625981442 12.7857142857143  0.235546038543897 12.7142857142857  C 0.164168451106353 12.6428571428571  0.114204139900071 12.5892857142857  0.0856531049250535 12.5535714285714  C -0.0114204139900071 12.4285714285714  -0.0171306209850107 12.3065476190476  0.0685224839400428 12.1875  L 0.950749464668094 10.9821428571429  C 0.990720913633119 10.922619047619  1.05638829407566 10.8869047619048  1.14775160599572 10.875  C 1.23340471092077 10.8630952380952  1.30192719486081 10.889880952381  1.35331905781585 10.9553571428571  L 1.37044967880086 10.9732142857143  C 2.01570306923626 11.5625  2.70949321912919 11.9345238095238  3.45182012847966 12.0892857142857  C 3.66309778729479 12.1369047619048  3.87437544610992 12.1607142857143  4.08565310492505 12.1607142857143  C 4.54817987152034 12.1607142857143  4.95503211991435 12.0327380952381  5.30620985010707 11.7767857142857  C 5.65738758029979 11.5208333333333  5.83297644539615 11.1577380952381  5.83297644539615 10.6875  C 5.83297644539615 10.5208333333333  5.79014989293362 10.3630952380952  5.70449678800857 10.2142857142857  C 5.61884368308351 10.0654761904762  5.5231977159172 9.94047619047619  5.41755888650964 9.83928571428572  C 5.31192005710207 9.73809523809524  5.14489650249822 9.62648809523809  4.91648822269807 9.50446428571428  C 4.68807994289793 9.38244047619047  4.49964311206281 9.28720238095238  4.35117773019272 9.21875  C 4.20271234832263 9.15029761904762  3.97430406852248 9.05357142857143  3.66595289079229 8.92857142857143  C 3.44325481798715 8.83333333333333  3.26766595289079 8.75892857142857  3.13918629550321 8.70535714285714  C 3.01070663811563 8.65178571428572  2.83511777301927 8.57291666666667  2.61241970021413 8.46875  C 2.38972162740899 8.36458333333333  2.21127765881513 8.27232142857143  2.07708779443255 8.19196428571428  C 1.94289793004996 8.11160714285714  1.78158458244111 8.00595238095238  1.593147751606 7.875  C 1.40471092077088 7.74404761904762  1.25196288365453 7.61755952380952  1.13490364025696 7.49553571428571  C 1.01784439685939 7.3735119047619  0.893647394718059 7.22767857142857  0.762312633832976 7.05803571428571  C 0.630977872947894 6.88839285714286  0.529621698786581 6.71577380952381  0.458244111349036 6.54017857142857  C 0.386866523911492 6.36458333333333  0.326909350463954 6.16666666666667  0.278372591006424 5.94642857142857  C 0.229835831548894 5.72619047619048  0.205567451820128 5.49404761904762  0.205567451820128 5.25  C 0.205567451820128 4.42857142857143  0.485367594575303 3.70833333333333  1.04496788008565 3.08928571428571  C 1.604568165596 2.47023809523809  2.33261955745896 2.07142857142857  3.22912205567452 1.89285714285714  L 3.22912205567452 0.285714285714286  C 3.22912205567452 0.208333333333332  3.25624553890079 0.141369047619047  3.31049250535332 0.0848214285714288  C 3.36473947180585 0.0282738095238102  3.42897930049964 0  3.50321199143469 0  L 4.65952890792291 0  C 4.73947180585296 0  4.8051391862955 0.0267857142857135  4.85653104925054 0.0803571428571424  C 4.90792291220557 0.133928571428571  4.93361884368308 0.202380952380951  4.93361884368308 0.285714285714286  L 4.93361884368308 1.85714285714286  C 5.25910064239829 1.89285714285714  5.57458957887223 1.96130952380952  5.88008565310493 2.0625  C 6.18558172733762 2.16369047619048  6.43397573162027 2.26339285714286  6.62526766595289 2.36160714285714  C 6.81655960028551 2.45982142857143  6.99785867237687 2.57142857142857  7.16916488222698 2.69642857142857  C 7.34047109207709 2.82142857142857  7.45182012847966 2.90773809523809  7.50321199143469 2.95535714285714  C 7.55460385438972 3.00297619047619  7.59743040685225 3.04464285714286  7.63169164882227 3.08035714285714  C 7.72876516773733 3.1875  7.74304068522484 3.30059523809524  7.6745182012848 3.41964285714286  L 6.98072805139186 4.72321428571429  C 6.93504639543183 4.8125  6.86937901498929 4.86011904761905  6.78372591006424 4.86607142857143  C 6.70378301213419 4.88392857142857  6.62669521770164 4.86309523809524  6.5524625267666 4.80357142857143  C 6.53533190578158 4.78571428571429  6.49393290506781 4.75  6.42826552462527 4.69642857142857  C 6.36259814418273 4.64285714285714  6.25124910778016 4.56398809523809  6.09421841541756 4.45982142857143  C 5.93718772305496 4.35565476190476  5.77016416845111 4.26041666666667  5.593147751606 4.17410714285714  C 5.41613133476089 4.08779761904762  5.203426124197 4.01041666666667  4.95503211991435 3.94196428571429  C 4.70663811563169 3.8735119047619  4.46252676659529 3.83928571428571  4.22269807280514 3.83928571428571  C 3.6802284082798 3.83928571428571  3.23768736616702 3.9672619047619  2.89507494646681 4.22321428571429  C 2.5524625267666 4.47916666666667  2.38115631691649 4.80952380952381  2.38115631691649 5.21428571428571  C 2.38115631691649 5.36904761904762  2.40542469664525 5.51190476190476  2.45396145610278 5.64285714285714  C 2.50249821556031 5.77380952380952  2.58672376873662 5.89732142857143  2.70663811563169 6.01339285714286  C 2.82655246252677 6.12946428571429  2.93932905067809 6.22767857142857  3.04496788008565 6.30803571428571  C 3.15060670949322 6.38839285714286  3.31049250535332 6.48065476190476  3.52462526766595 6.58482142857143  C 3.73875802997859 6.68898809523809  3.91149179157744 6.76934523809524  4.04282655246253 6.82589285714286  C 4.17416131334761 6.88244047619048  4.37401855817273 6.96428571428571  4.6423982869379 7.07142857142857  C 4.94503925767309 7.19047619047619  5.17630264097074 7.28422619047619  5.33618843683084 7.35267857142857  C 5.49607423269094 7.42113095238095  5.71306209850107 7.52529761904762  5.98715203426124 7.66517857142857  C 6.26124197002141 7.80505952380952  6.4768022840828 7.93154761904762  6.6338329764454 8.04464285714286  C 6.790863668808 8.15773809523809  6.96788008565311 8.30654761904762  7.16488222698073 8.49107142857143  C 7.36188436830835 8.67559523809524  7.51320485367595 8.86458333333333  7.61884368308351 9.05803571428572  C 7.72448251249108 9.25148809523809  7.81441827266238 9.47916666666666  7.88865096359743 9.74107142857143  Z " fill-rule="nonzero" fill="#000000" stroke="none" transform="matrix(1 0 0 1 24 16 )" />
  </g>
</svg>