<?xml version="1.0" encoding="utf-8"?>
<svg version="1.1" xmlns:xlink="http://www.w3.org/1999/xlink" width="16px" height="13px" xmlns="http://www.w3.org/2000/svg">
  <g transform="matrix(1 0 0 1 -20 -18 )">
    <path d="M 4.32142857142857 9.71306818181818  C 4.48809523809524 9.88541666666666  4.57142857142857 10.094696969697  4.57142857142857 10.3409090909091  L 4.57142857142857 12.1136363636364  C 4.57142857142857 12.3598484848485  4.48809523809524 12.5691287878788  4.32142857142857 12.7414772727273  C 4.15476190476191 12.9138257575758  3.95238095238095 13  3.71428571428571 13  L 0.857142857142857 13  C 0.619047619047619 13  0.416666666666667 12.9138257575758  0.25 12.7414772727273  C 0.0833333333333333 12.5691287878788  0 12.3598484848485  0 12.1136363636364  L 0 10.3409090909091  C 0 10.094696969697  0.0833333333333333 9.88541666666666  0.25 9.71306818181818  C 0.416666666666667 9.5407196969697  0.619047619047619 9.45454545454546  0.857142857142857 9.45454545454546  L 3.71428571428571 9.45454545454546  C 3.95238095238095 9.45454545454546  4.15476190476191 9.5407196969697  4.32142857142857 9.71306818181818  Z M 4.32142857142857 4.98579545454546  C 4.48809523809524 5.15814393939394  4.57142857142857 5.36742424242424  4.57142857142857 5.61363636363636  L 4.57142857142857 7.38636363636364  C 4.57142857142857 7.63257575757576  4.48809523809524 7.84185606060606  4.32142857142857 8.01420454545455  C 4.15476190476191 8.18655303030303  3.95238095238095 8.27272727272727  3.71428571428571 8.27272727272727  L 0.857142857142857 8.27272727272727  C 0.619047619047619 8.27272727272727  0.416666666666667 8.18655303030303  0.25 8.01420454545455  C 0.0833333333333333 7.84185606060606  0 7.63257575757576  0 7.38636363636364  L 0 5.61363636363636  C 0 5.36742424242424  0.0833333333333333 5.15814393939394  0.25 4.98579545454546  C 0.416666666666667 4.81344696969697  0.619047619047619 4.72727272727273  0.857142857142857 4.72727272727273  L 3.71428571428571 4.72727272727273  C 3.95238095238095 4.72727272727273  4.15476190476191 4.81344696969697  4.32142857142857 4.98579545454546  Z M 10.0357142857143 9.71306818181818  C 10.202380952381 9.88541666666666  10.2857142857143 10.094696969697  10.2857142857143 10.3409090909091  L 10.2857142857143 12.1136363636364  C 10.2857142857143 12.3598484848485  10.202380952381 12.5691287878788  10.0357142857143 12.7414772727273  C 9.86904761904762 12.9138257575758  9.66666666666667 13  9.42857142857143 13  L 6.57142857142857 13  C 6.33333333333333 13  6.13095238095238 12.9138257575758  5.96428571428571 12.7414772727273  C 5.79761904761905 12.5691287878788  5.71428571428571 12.3598484848485  5.71428571428571 12.1136363636364  L 5.71428571428571 10.3409090909091  C 5.71428571428571 10.094696969697  5.79761904761905 9.88541666666666  5.96428571428571 9.71306818181818  C 6.13095238095238 9.5407196969697  6.33333333333333 9.45454545454546  6.57142857142857 9.45454545454546  L 9.42857142857143 9.45454545454546  C 9.66666666666667 9.45454545454546  9.86904761904762 9.5407196969697  10.0357142857143 9.71306818181818  Z M 4.32142857142857 0.258522727272727  C 4.48809523809524 0.430871212121211  4.57142857142857 0.640151515151515  4.57142857142857 0.886363636363637  L 4.57142857142857 2.65909090909091  C 4.57142857142857 2.90530303030303  4.48809523809524 3.11458333333333  4.32142857142857 3.28693181818182  C 4.15476190476191 3.4592803030303  3.95238095238095 3.54545454545455  3.71428571428571 3.54545454545455  L 0.857142857142857 3.54545454545455  C 0.619047619047619 3.54545454545455  0.416666666666667 3.4592803030303  0.25 3.28693181818182  C 0.0833333333333333 3.11458333333333  0 2.90530303030303  0 2.65909090909091  L 0 0.886363636363637  C 0 0.640151515151515  0.0833333333333333 0.430871212121211  0.25 0.258522727272727  C 0.416666666666667 0.086174242424242  0.619047619047619 0  0.857142857142857 0  L 3.71428571428571 0  C 3.95238095238095 0  4.15476190476191 0.086174242424242  4.32142857142857 0.258522727272727  Z M 10.0357142857143 4.98579545454546  C 10.202380952381 5.15814393939394  10.2857142857143 5.36742424242424  10.2857142857143 5.61363636363636  L 10.2857142857143 7.38636363636364  C 10.2857142857143 7.63257575757576  10.202380952381 7.84185606060606  10.0357142857143 8.01420454545455  C 9.86904761904762 8.18655303030303  9.66666666666667 8.27272727272727  9.42857142857143 8.27272727272727  L 6.57142857142857 8.27272727272727  C 6.33333333333333 8.27272727272727  6.13095238095238 8.18655303030303  5.96428571428571 8.01420454545455  C 5.79761904761905 7.84185606060606  5.71428571428571 7.63257575757576  5.71428571428571 7.38636363636364  L 5.71428571428571 5.61363636363636  C 5.71428571428571 5.36742424242424  5.79761904761905 5.15814393939394  5.96428571428571 4.98579545454546  C 6.13095238095238 4.81344696969697  6.33333333333333 4.72727272727273  6.57142857142857 4.72727272727273  L 9.42857142857143 4.72727272727273  C 9.66666666666667 4.72727272727273  9.86904761904762 4.81344696969697  10.0357142857143 4.98579545454546  Z M 15.75 9.71306818181818  C 15.9166666666667 9.88541666666666  16 10.094696969697  16 10.3409090909091  L 16 12.1136363636364  C 16 12.3598484848485  15.9166666666667 12.5691287878788  15.75 12.7414772727273  C 15.5833333333333 12.9138257575758  15.3809523809524 13  15.1428571428571 13  L 12.2857142857143 13  C 12.047619047619 13  11.8452380952381 12.9138257575758  11.6785714285714 12.7414772727273  C 11.5119047619048 12.5691287878788  11.4285714285714 12.3598484848485  11.4285714285714 12.1136363636364  L 11.4285714285714 10.3409090909091  C 11.4285714285714 10.094696969697  11.5119047619048 9.88541666666666  11.6785714285714 9.71306818181818  C 11.8452380952381 9.5407196969697  12.047619047619 9.45454545454546  12.2857142857143 9.45454545454546  L 15.1428571428571 9.45454545454546  C 15.3809523809524 9.45454545454546  15.5833333333333 9.5407196969697  15.75 9.71306818181818  Z M 10.0357142857143 0.258522727272727  C 10.202380952381 0.430871212121211  10.2857142857143 0.640151515151515  10.2857142857143 0.886363636363637  L 10.2857142857143 2.65909090909091  C 10.2857142857143 2.90530303030303  10.202380952381 3.11458333333333  10.0357142857143 3.28693181818182  C 9.86904761904762 3.4592803030303  9.66666666666667 3.54545454545455  9.42857142857143 3.54545454545455  L 6.57142857142857 3.54545454545455  C 6.33333333333333 3.54545454545455  6.13095238095238 3.4592803030303  5.96428571428571 3.28693181818182  C 5.79761904761905 3.11458333333333  5.71428571428571 2.90530303030303  5.71428571428571 2.65909090909091  L 5.71428571428571 0.886363636363637  C 5.71428571428571 0.640151515151515  5.79761904761905 0.430871212121211  5.96428571428571 0.258522727272727  C 6.13095238095238 0.086174242424242  6.33333333333333 0  6.57142857142857 0  L 9.42857142857143 0  C 9.66666666666667 0  9.86904761904762 0.086174242424242  10.0357142857143 0.258522727272727  Z M 15.75 4.98579545454546  C 15.9166666666667 5.15814393939394  16 5.36742424242424  16 5.61363636363636  L 16 7.38636363636364  C 16 7.63257575757576  15.9166666666667 7.84185606060606  15.75 8.01420454545455  C 15.5833333333333 8.18655303030303  15.3809523809524 8.27272727272727  15.1428571428571 8.27272727272727  L 12.2857142857143 8.27272727272727  C 12.047619047619 8.27272727272727  11.8452380952381 8.18655303030303  11.6785714285714 8.01420454545455  C 11.5119047619048 7.84185606060606  11.4285714285714 7.63257575757576  11.4285714285714 7.38636363636364  L 11.4285714285714 5.61363636363636  C 11.4285714285714 5.36742424242424  11.5119047619048 5.15814393939394  11.6785714285714 4.98579545454546  C 11.8452380952381 4.81344696969697  12.047619047619 4.72727272727273  12.2857142857143 4.72727272727273  L 15.1428571428571 4.72727272727273  C 15.3809523809524 4.72727272727273  15.5833333333333 4.81344696969697  15.75 4.98579545454546  Z M 15.75 0.258522727272727  C 15.9166666666667 0.430871212121211  16 0.640151515151515  16 0.886363636363637  L 16 2.65909090909091  C 16 2.90530303030303  15.9166666666667 3.11458333333333  15.75 3.28693181818182  C 15.5833333333333 3.4592803030303  15.3809523809524 3.54545454545455  15.1428571428571 3.54545454545455  L 12.2857142857143 3.54545454545455  C 12.047619047619 3.54545454545455  11.8452380952381 3.4592803030303  11.6785714285714 3.28693181818182  C 11.5119047619048 3.11458333333333  11.4285714285714 2.90530303030303  11.4285714285714 2.65909090909091  L 11.4285714285714 0.886363636363637  C 11.4285714285714 0.640151515151515  11.5119047619048 0.430871212121211  11.6785714285714 0.258522727272727  C 11.8452380952381 0.086174242424242  12.047619047619 0  12.2857142857143 0  L 15.1428571428571 0  C 15.3809523809524 0  15.5833333333333 0.086174242424242  15.75 0.258522727272727  Z " fill-rule="nonzero" fill="#000000" stroke="none" transform="matrix(1 0 0 1 20 18 )" />
  </g>
</svg>