<?xml version="1.0" encoding="utf-8"?>
<svg version="1.1" xmlns:xlink="http://www.w3.org/1999/xlink" width="12px" height="12px" viewBox="541 467.5  12 12" xmlns="http://www.w3.org/2000/svg">
  <path d="M 547 467.5  C 550.36 467.5  553 470.14  553 473.5  C 553 476.86  550.36 479.5  547 479.5  C 543.64 479.5  541 476.86  541 473.5  C 541 470.14  543.64 467.5  547 467.5  Z " fill-rule="nonzero" fill="#ffffff" stroke="none" />
  <path d="M 547 468  C 550.08 468  552.5 470.42  552.5 473.5  C 552.5 476.58  550.08 479  547 479  C 543.92 479  541.5 476.58  541.5 473.5  C 541.5 470.42  543.92 468  547 468  Z " stroke-width="1" stroke="#797979" fill="none" />
  <path d="M 547 476.5  C 545.32 476.5  544 475.18  544 473.5  C 544 471.82  545.32 470.5  547 470.5  C 548.68 470.5  550 471.82  550 473.5  C 550 475.18  548.68 476.5  547 476.5  " fill-rule="nonzero" fill="#797979" stroke="none" />
</svg>