<?xml version="1.0" encoding="utf-8"?>
<svg version="1.1" xmlns:xlink="http://www.w3.org/1999/xlink" width="12px" height="12px" viewBox="1226 467.5  12 12" xmlns="http://www.w3.org/2000/svg">
  <path d="M 1232 467.5  C 1235.36 467.5  1238 470.14  1238 473.5  C 1238 476.86  1235.36 479.5  1232 479.5  C 1228.64 479.5  1226 476.86  1226 473.5  C 1226 470.14  1228.64 467.5  1232 467.5  Z " fill-rule="nonzero" fill="#ffffff" stroke="none" />
  <path d="M 1232 468  C 1235.08 468  1237.5 470.42  1237.5 473.5  C 1237.5 476.58  1235.08 479  1232 479  C 1228.92 479  1226.5 476.58  1226.5 473.5  C 1226.5 470.42  1228.92 468  1232 468  Z " stroke-width="1" stroke="#797979" fill="none" />
  <path d="M 1232 476.5  C 1230.32 476.5  1229 475.18  1229 473.5  C 1229 471.82  1230.32 470.5  1232 470.5  C 1233.68 470.5  1235 471.82  1235 473.5  C 1235 475.18  1233.68 476.5  1232 476.5  " fill-rule="nonzero" fill="#797979" stroke="none" />
</svg>