<?xml version="1.0" encoding="utf-8"?>
<svg version="1.1" xmlns:xlink="http://www.w3.org/1999/xlink" width="47px" height="47px" xmlns="http://www.w3.org/2000/svg">
  <g transform="matrix(1 0 0 1 -1916 -280 )">
    <path d="M 1939.5 282  C 1951.54 282  1961 291.46  1961 303.5  C 1961 315.54  1951.54 325  1939.5 325  C 1927.46 325  1918 315.54  1918 303.5  C 1918 291.46  1927.46 282  1939.5 282  Z " fill-rule="nonzero" fill="#ffffff" stroke="none" />
    <path d="M 1939.5 281.5  C 1951.82 281.5  1961.5 291.18  1961.5 303.5  C 1961.5 315.82  1951.82 325.5  1939.5 325.5  C 1927.18 325.5  1917.5 315.82  1917.5 303.5  C 1917.5 291.18  1927.18 281.5  1939.5 281.5  Z " stroke-width="3" stroke="#d9001b" fill="none" />
  </g>
</svg>