<?xml version="1.0" encoding="utf-8"?>
<svg version="1.1" xmlns:xlink="http://www.w3.org/1999/xlink" width="12px" height="12px" viewBox="412 656.5  12 12" xmlns="http://www.w3.org/2000/svg">
  <path d="M 418 656.5  C 421.36 656.5  424 659.14  424 662.5  C 424 665.86  421.36 668.5  418 668.5  C 414.64 668.5  412 665.86  412 662.5  C 412 659.14  414.64 656.5  418 656.5  Z " fill-rule="nonzero" fill="#f0f0f0" stroke="none" />
  <path d="M 418 657  C 421.08 657  423.5 659.42  423.5 662.5  C 423.5 665.58  421.08 668  418 668  C 414.92 668  412.5 665.58  412.5 662.5  C 412.5 659.42  414.92 657  418 657  Z " stroke-width="1" stroke="#797979" fill="none" />
  <path d="M 418 665.5  C 416.32 665.5  415 664.18  415 662.5  C 415 660.82  416.32 659.5  418 659.5  C 419.68 659.5  421 660.82  421 662.5  C 421 664.18  419.68 665.5  418 665.5  " fill-rule="nonzero" fill="#797979" stroke="none" />
</svg>