<?xml version="1.0" encoding="utf-8"?>
<svg version="1.1" xmlns:xlink="http://www.w3.org/1999/xlink" width="500px" height="250px" xmlns="http://www.w3.org/2000/svg">
  <defs>
    <mask fill="white" id="clip610">
      <path d="M 0 4  C 0 1.790861  1.790861 0  4 0  L 476 0  C 478.209139 0  480 1.790861  480 4  L 480 226  C 480 228.209139  478.209139 230  476 230  L 4 230  C 1.790861 230  0 228.209139  0 226  L 0 4  Z " fill-rule="evenodd" />
    </mask>
    <filter x="-10px" y="30px" width="500px" height="250px" filterUnits="userSpaceOnUse" id="filter611">
      <feOffset dx="0" dy="0" in="SourceAlpha" result="shadowOffsetInner" />
      <feGaussianBlur stdDeviation="5" in="shadowOffsetInner" result="shadowGaussian" />
      <feComposite in2="shadowGaussian" operator="atop" in="SourceAlpha" result="shadowComposite" />
      <feColorMatrix type="matrix" values="0 0 0 0 0  0 0 0 0 0  0 0 0 0 0  0 0 0 0.313725490196078 0  " in="shadowComposite" />
    </filter>
    <g id="widget612">
      <path d="M 0 4  C 0 1.790861  1.790861 0  4 0  L 476 0  C 478.209139 0  480 1.790861  480 4  L 480 226  C 480 228.209139  478.209139 230  476 230  L 4 230  C 1.790861 230  0 228.209139  0 226  L 0 4  Z " fill-rule="nonzero" fill="#ffffff" stroke="none" transform="matrix(1 0 0 1 0 40 )" />
      <path d="M 0 4  C 0 1.790861  1.790861 0  4 0  L 476 0  C 478.209139 0  480 1.790861  480 4  L 480 226  C 480 228.209139  478.209139 230  476 230  L 4 230  C 1.790861 230  0 228.209139  0 226  L 0 4  Z " stroke-width="2" stroke="#000000" fill="none" transform="matrix(1 0 0 1 0 40 )" mask="url(#clip610)" />
    </g>
  </defs>
  <g transform="matrix(1 0 0 1 10 -30 )">
    <use xlink:href="#widget612" filter="url(#filter611)" />
    <use xlink:href="#widget612" />
  </g>
</svg>