<?xml version="1.0" encoding="utf-8"?>
<svg version="1.1" xmlns:xlink="http://www.w3.org/1999/xlink" width="65px" height="65px" xmlns="http://www.w3.org/2000/svg">
  <g transform="matrix(1 0 0 1 -296 -240 )">
    <path d="M 296 240  L 361 240  L 361 305  L 296 305  L 296 240  " fill-rule="nonzero" fill="#cccccc" stroke="none" />
    <path d="M 301 245  L 356 245  L 356 300  L 301 300  L 301 245  " fill-rule="nonzero" fill="#ffffff" stroke="none" />
    <path d="M 334.675 259.5  C 331.945 259.5  329.8 257.355  329.8 254.625  C 329.8 251.895  331.945 249.75  334.675 249.75  C 337.405 249.75  339.55 251.895  339.55 254.625  C 339.55 257.355  337.405 259.5  334.675 259.5  " fill-rule="nonzero" fill="#cccccc" stroke="none" />
    <path d="M 303 299  L 303 270.4  L 316 257.4  L 334.2 267.8  L 344.6 265.2  L 355 267.8  L 355 299  L 303 299  " fill-rule="nonzero" fill="#169bd5" stroke="none" />
  </g>
</svg>