<?xml version="1.0" encoding="utf-8"?>
<svg version="1.1" xmlns:xlink="http://www.w3.org/1999/xlink" width="756px" height="417px" xmlns="http://www.w3.org/2000/svg">
  <defs>
    <mask fill="white" id="clip664">
      <path d="M 0 6.90434782608696  C 0 3.09118181304348  2.74598686666667 0  6.13333333333333 0  L 729.866666666667 0  C 733.254013133333 0  736 3.09118181304348  736 6.90434782608696  L 736 390.095652173913  C 736 393.908818186957  733.254013133333 397  729.866666666667 397  L 6.13333333333333 397  C 2.74598686666667 397  0 393.908818186957  0 390.095652173913  L 0 6.90434782608696  Z " fill-rule="evenodd" />
    </mask>
    <filter x="-5px" y="-5px" width="756px" height="417px" filterUnits="userSpaceOnUse" id="filter665">
      <feOffset dx="5" dy="5" in="SourceAlpha" result="shadowOffsetInner" />
      <feGaussianBlur stdDeviation="5" in="shadowOffsetInner" result="shadowGaussian" />
      <feComposite in2="shadowGaussian" operator="atop" in="SourceAlpha" result="shadowComposite" />
      <feColorMatrix type="matrix" values="0 0 0 0 0  0 0 0 0 0  0 0 0 0 0  0 0 0 0.313725490196078 0  " in="shadowComposite" />
    </filter>
    <g id="widget666">
      <path d="M 0 6.90434782608696  C 0 3.09118181304348  2.74598686666667 0  6.13333333333333 0  L 729.866666666667 0  C 733.254013133333 0  736 3.09118181304348  736 6.90434782608696  L 736 390.095652173913  C 736 393.908818186957  733.254013133333 397  729.866666666667 397  L 6.13333333333333 397  C 2.74598686666667 397  0 393.908818186957  0 390.095652173913  L 0 6.90434782608696  Z " fill-rule="nonzero" fill="#ffffff" stroke="none" />
      <path d="M 0 6.90434782608696  C 0 3.09118181304348  2.74598686666667 0  6.13333333333333 0  L 729.866666666667 0  C 733.254013133333 0  736 3.09118181304348  736 6.90434782608696  L 736 390.095652173913  C 736 393.908818186957  733.254013133333 397  729.866666666667 397  L 6.13333333333333 397  C 2.74598686666667 397  0 393.908818186957  0 390.095652173913  L 0 6.90434782608696  Z " stroke-width="2" stroke="#000000" fill="none" mask="url(#clip664)" />
    </g>
  </defs>
  <g transform="matrix(1 0 0 1 5 5 )">
    <use xlink:href="#widget666" filter="url(#filter665)" />
    <use xlink:href="#widget666" />
  </g>
</svg>