<?xml version="1.0" encoding="utf-8"?>
<svg version="1.1" xmlns:xlink="http://www.w3.org/1999/xlink" width="12px" height="12px" viewBox="2279 326.5  12 12" xmlns="http://www.w3.org/2000/svg">
  <path d="M 2285 326.5  C 2288.36 326.5  2291 329.14  2291 332.5  C 2291 335.86  2288.36 338.5  2285 338.5  C 2281.64 338.5  2279 335.86  2279 332.5  C 2279 329.14  2281.64 326.5  2285 326.5  Z " fill-rule="nonzero" fill="#ffffff" stroke="none" />
  <path d="M 2285 327  C 2288.08 327  2290.5 329.42  2290.5 332.5  C 2290.5 335.58  2288.08 338  2285 338  C 2281.92 338  2279.5 335.58  2279.5 332.5  C 2279.5 329.42  2281.92 327  2285 327  Z " stroke-width="1" stroke="#797979" fill="none" />
  <path d="M 2285 335.5  C 2283.32 335.5  2282 334.18  2282 332.5  C 2282 330.82  2283.32 329.5  2285 329.5  C 2286.68 329.5  2288 330.82  2288 332.5  C 2288 334.18  2286.68 335.5  2285 335.5  " fill-rule="nonzero" fill="#797979" stroke="none" />
</svg>