<?xml version="1.0" encoding="utf-8"?>
<svg version="1.1" xmlns:xlink="http://www.w3.org/1999/xlink" width="12px" height="12px" viewBox="2197 326.5  12 12" xmlns="http://www.w3.org/2000/svg">
  <path d="M 2203 326.5  C 2206.36 326.5  2209 329.14  2209 332.5  C 2209 335.86  2206.36 338.5  2203 338.5  C 2199.64 338.5  2197 335.86  2197 332.5  C 2197 329.14  2199.64 326.5  2203 326.5  Z " fill-rule="nonzero" fill="#f0f0f0" stroke="none" />
  <path d="M 2203 327  C 2206.08 327  2208.5 329.42  2208.5 332.5  C 2208.5 335.58  2206.08 338  2203 338  C 2199.92 338  2197.5 335.58  2197.5 332.5  C 2197.5 329.42  2199.92 327  2203 327  Z " stroke-width="1" stroke="#797979" fill="none" />
  <path d="M 2203 335.5  C 2201.32 335.5  2200 334.18  2200 332.5  C 2200 330.82  2201.32 329.5  2203 329.5  C 2204.68 329.5  2206 330.82  2206 332.5  C 2206 334.18  2204.68 335.5  2203 335.5  " fill-rule="nonzero" fill="#797979" stroke="none" />
</svg>