<?xml version="1.0" encoding="utf-8"?>
<svg version="1.1" xmlns:xlink="http://www.w3.org/1999/xlink" width="12px" height="12px" viewBox="455 414.5  12 12" xmlns="http://www.w3.org/2000/svg">
  <path d="M 461 414.5  C 464.36 414.5  467 417.14  467 420.5  C 467 423.86  464.36 426.5  461 426.5  C 457.64 426.5  455 423.86  455 420.5  C 455 417.14  457.64 414.5  461 414.5  Z " fill-rule="nonzero" fill="#ffffff" stroke="none" />
  <path d="M 461 415  C 464.08 415  466.5 417.42  466.5 420.5  C 466.5 423.58  464.08 426  461 426  C 457.92 426  455.5 423.58  455.5 420.5  C 455.5 417.42  457.92 415  461 415  Z " stroke-width="1" stroke="#797979" fill="none" />
  <path d="M 461 423.5  C 459.32 423.5  458 422.18  458 420.5  C 458 418.82  459.32 417.5  461 417.5  C 462.68 417.5  464 418.82  464 420.5  C 464 422.18  462.68 423.5  461 423.5  " fill-rule="nonzero" fill="#797979" stroke="none" />
</svg>