<?xml version="1.0" encoding="utf-8"?>
<svg version="1.1" xmlns:xlink="http://www.w3.org/1999/xlink" width="60px" height="60px" xmlns="http://www.w3.org/2000/svg">
  <g transform="matrix(1 0 0 1 -3198 -1188 )">
    <path d="M 3228 1188  C 3244.8 1188  3258 1201.2  3258 1218  C 3258 1234.8  3244.8 1248  3228 1248  C 3211.2 1248  3198 1234.8  3198 1218  C 3198 1201.2  3211.2 1188  3228 1188  Z " fill-rule="nonzero" fill="#ffffff" stroke="none" />
    <path d="M 3228 1188.5  C 3244.52 1188.5  3257.5 1201.48  3257.5 1218  C 3257.5 1234.52  3244.52 1247.5  3228 1247.5  C 3211.48 1247.5  3198.5 1234.52  3198.5 1218  C 3198.5 1201.48  3211.48 1188.5  3228 1188.5  Z " stroke-width="1" stroke="#797979" fill="none" />
  </g>
</svg>