<?xml version="1.0" encoding="utf-8"?>
<svg version="1.1" xmlns:xlink="http://www.w3.org/1999/xlink" width="1130px" height="327px" xmlns="http://www.w3.org/2000/svg">
  <g transform="matrix(1 0 0 1 -278 -296 )">
    <path d="M 279 301  A 4 4 0 0 1 283 297 L 1403 297  A 4 4 0 0 1 1407 301 L 1407 618  A 4 4 0 0 1 1403 622 L 283 622  A 4 4 0 0 1 279 618 L 279 301  Z " fill-rule="nonzero" fill="#ffffff" stroke="none" />
    <path d="M 278.5 301  A 4.5 4.5 0 0 1 283 296.5 L 1403 296.5  A 4.5 4.5 0 0 1 1407.5 301 L 1407.5 618  A 4.5 4.5 0 0 1 1403 622.5 L 283 622.5  A 4.5 4.5 0 0 1 278.5 618 L 278.5 301  Z " stroke-width="1" stroke-dasharray="3,1" stroke="#797979" fill="none" stroke-dashoffset="0.5" />
  </g>
</svg>