<?xml version="1.0" encoding="utf-8"?>
<svg version="1.1" xmlns:xlink="http://www.w3.org/1999/xlink" width="12px" height="12px" viewBox="532 913.5  12 12" xmlns="http://www.w3.org/2000/svg">
  <path d="M 538 913.5  C 541.36 913.5  544 916.14  544 919.5  C 544 922.86  541.36 925.5  538 925.5  C 534.64 925.5  532 922.86  532 919.5  C 532 916.14  534.64 913.5  538 913.5  Z " fill-rule="nonzero" fill="#f0f0f0" stroke="none" />
  <path d="M 538 914  C 541.08 914  543.5 916.42  543.5 919.5  C 543.5 922.58  541.08 925  538 925  C 534.92 925  532.5 922.58  532.5 919.5  C 532.5 916.42  534.92 914  538 914  Z " stroke-width="1" stroke="#797979" fill="none" />
  <path d="M 538 922.5  C 536.32 922.5  535 921.18  535 919.5  C 535 917.82  536.32 916.5  538 916.5  C 539.68 916.5  541 917.82  541 919.5  C 541 921.18  539.68 922.5  538 922.5  " fill-rule="nonzero" fill="#797979" stroke="none" />
</svg>