<?xml version="1.0" encoding="utf-8"?>
<svg version="1.1" xmlns:xlink="http://www.w3.org/1999/xlink" width="34px" height="34px" xmlns="http://www.w3.org/2000/svg">
  <g transform="matrix(1 0 0 1 -598 -1376 )">
    <path d="M 615 1376  C 624.52 1376  632 1383.48  632 1393  C 632 1402.52  624.52 1410  615 1410  C 605.48 1410  598 1402.52  598 1393  C 598 1383.48  605.48 1376  615 1376  Z " fill-rule="nonzero" fill="#ffffff" stroke="none" />
    <path d="M 615 1376.5  C 624.24 1376.5  631.5 1383.76  631.5 1393  C 631.5 1402.24  624.24 1409.5  615 1409.5  C 605.76 1409.5  598.5 1402.24  598.5 1393  C 598.5 1383.76  605.76 1376.5  615 1376.5  Z " stroke-width="1" stroke="#797979" fill="none" />
  </g>
</svg>