<?xml version="1.0" encoding="utf-8"?>
<svg version="1.1" xmlns:xlink="http://www.w3.org/1999/xlink" width="36px" height="36px" xmlns="http://www.w3.org/2000/svg">
  <g transform="matrix(1 0 0 1 -2129 -1016 )">
    <path d="M 2147 1016  C 2157.08 1016  2165 1023.92  2165 1034  C 2165 1044.08  2157.08 1052  2147 1052  C 2136.92 1052  2129 1044.08  2129 1034  C 2129 1023.92  2136.92 1016  2147 1016  Z " fill-rule="nonzero" fill="#ffffff" stroke="none" fill-opacity="0" />
    <path d="M 2147 1016.5  C 2156.8 1016.5  2164.5 1024.2  2164.5 1034  C 2164.5 1043.8  2156.8 1051.5  2147 1051.5  C 2137.2 1051.5  2129.5 1043.8  2129.5 1034  C 2129.5 1024.2  2137.2 1016.5  2147 1016.5  Z " stroke-width="1" stroke="#d9001b" fill="none" />
  </g>
</svg>