<?xml version="1.0" encoding="utf-8"?>
<svg version="1.1" xmlns:xlink="http://www.w3.org/1999/xlink" width="12px" height="12px" viewBox="1003 913.5  12 12" xmlns="http://www.w3.org/2000/svg">
  <path d="M 1009 913.5  C 1012.36 913.5  1015 916.14  1015 919.5  C 1015 922.86  1012.36 925.5  1009 925.5  C 1005.64 925.5  1003 922.86  1003 919.5  C 1003 916.14  1005.64 913.5  1009 913.5  Z " fill-rule="nonzero" fill="#ffffff" stroke="none" />
  <path d="M 1009 914  C 1012.08 914  1014.5 916.42  1014.5 919.5  C 1014.5 922.58  1012.08 925  1009 925  C 1005.92 925  1003.5 922.58  1003.5 919.5  C 1003.5 916.42  1005.92 914  1009 914  Z " stroke-width="1" stroke="#797979" fill="none" />
  <path d="M 1009 922.5  C 1007.32 922.5  1006 921.18  1006 919.5  C 1006 917.82  1007.32 916.5  1009 916.5  C 1010.68 916.5  1012 917.82  1012 919.5  C 1012 921.18  1010.68 922.5  1009 922.5  " fill-rule="nonzero" fill="#797979" stroke="none" />
</svg>