<?xml version="1.0" encoding="utf-8"?>
<svg version="1.1" xmlns:xlink="http://www.w3.org/1999/xlink" width="12px" height="12px" viewBox="1124 913.5  12 12" xmlns="http://www.w3.org/2000/svg">
  <path d="M 1130 913.5  C 1133.36 913.5  1136 916.14  1136 919.5  C 1136 922.86  1133.36 925.5  1130 925.5  C 1126.64 925.5  1124 922.86  1124 919.5  C 1124 916.14  1126.64 913.5  1130 913.5  Z " fill-rule="nonzero" fill="#f0f0f0" stroke="none" />
  <path d="M 1130 914  C 1133.08 914  1135.5 916.42  1135.5 919.5  C 1135.5 922.58  1133.08 925  1130 925  C 1126.92 925  1124.5 922.58  1124.5 919.5  C 1124.5 916.42  1126.92 914  1130 914  Z " stroke-width="1" stroke="#797979" fill="none" />
  <path d="M 1130 922.5  C 1128.32 922.5  1127 921.18  1127 919.5  C 1127 917.82  1128.32 916.5  1130 916.5  C 1131.68 916.5  1133 917.82  1133 919.5  C 1133 921.18  1131.68 922.5  1130 922.5  " fill-rule="nonzero" fill="#797979" stroke="none" />
</svg>