<?xml version="1.0" encoding="utf-8"?>
<svg version="1.1" xmlns:xlink="http://www.w3.org/1999/xlink" width="320px" height="32px" xmlns="http://www.w3.org/2000/svg">
  <defs>
    <mask fill="white" id="clip502">
      <path d="M 1.05263157894737 0  C 1.05263157894737 0  318.947368421053 0  318.947368421053 0  C 319.238044912281 0  319.501202807018 0.167893219  319.69169122807 0.439339828  C 319.882180350877 0.71078644  320 1.08578644  320 1.5  C 320 1.5  320 30.5  320 30.5  C 320 30.9142136  319.882180350877 31.2892136  319.69169122807 31.5606602  C 319.501202807018 31.8321068  319.238044912281 32  318.947368421053 32  C 318.947368421053 32  1.05263157894737 32  1.05263157894737 32  C 0.761955396491233 32  0.498797501754391 31.8321068  0.308308651228071 31.5606602  C 0.117819802807022 31.2892136  0 30.9142136  0 30.5  C 0 30.5  0 1.5  0 1.5  C 0 1.08578644  0.117819802807022 0.71078644  0.308308651228071 0.439339828  C 0.498797501754391 0.167893219  0.761955396491233 0  1.05263157894737 0  Z " fill-rule="evenodd" />
    </mask>
  </defs>
  <g transform="matrix(1 0 0 1 -32 -123 )">
    <path d="M 1.05263157894737 0  C 1.05263157894737 0  318.947368421053 0  318.947368421053 0  C 319.238044912281 0  319.501202807018 0.167893219  319.69169122807 0.439339828  C 319.882180350877 0.71078644  320 1.08578644  320 1.5  C 320 1.5  320 30.5  320 30.5  C 320 30.9142136  319.882180350877 31.2892136  319.69169122807 31.5606602  C 319.501202807018 31.8321068  319.238044912281 32  318.947368421053 32  C 318.947368421053 32  1.05263157894737 32  1.05263157894737 32  C 0.761955396491233 32  0.498797501754391 31.8321068  0.308308651228071 31.5606602  C 0.117819802807022 31.2892136  0 30.9142136  0 30.5  C 0 30.5  0 1.5  0 1.5  C 0 1.08578644  0.117819802807022 0.71078644  0.308308651228071 0.439339828  C 0.498797501754391 0.167893219  0.761955396491233 0  1.05263157894737 0  Z " fill-rule="nonzero" fill="#ffffff" stroke="none" transform="matrix(1 0 0 1 32 123 )" />
    <path d="M 1.05263157894737 0  C 1.05263157894737 0  318.947368421053 0  318.947368421053 0  C 319.238044912281 0  319.501202807018 0.167893219  319.69169122807 0.439339828  C 319.882180350877 0.71078644  320 1.08578644  320 1.5  C 320 1.5  320 30.5  320 30.5  C 320 30.9142136  319.882180350877 31.2892136  319.69169122807 31.5606602  C 319.501202807018 31.8321068  319.238044912281 32  318.947368421053 32  C 318.947368421053 32  1.05263157894737 32  1.05263157894737 32  C 0.761955396491233 32  0.498797501754391 31.8321068  0.308308651228071 31.5606602  C 0.117819802807022 31.2892136  0 30.9142136  0 30.5  C 0 30.5  0 1.5  0 1.5  C 0 1.08578644  0.117819802807022 0.71078644  0.308308651228071 0.439339828  C 0.498797501754391 0.167893219  0.761955396491233 0  1.05263157894737 0  Z " stroke-width="2" stroke="#dddddd" fill="none" transform="matrix(1 0 0 1 32 123 )" mask="url(#clip502)" />
  </g>
</svg>