<?xml version="1.0" encoding="utf-8"?>
<svg version="1.1" xmlns:xlink="http://www.w3.org/1999/xlink" width="756px" height="436px" xmlns="http://www.w3.org/2000/svg">
  <defs>
    <mask fill="white" id="clip499">
      <path d="M 0 7.23478260869565  C 0 3.23912250434783  2.74598686666667 0  6.13333333333333 0  L 729.866666666667 0  C 733.254013133333 0  736 3.23912250434783  736 7.23478260869565  L 736 408.765217391304  C 736 412.760877495652  733.254013133333 416  729.866666666667 416  L 6.13333333333333 416  C 2.74598686666667 416  0 412.760877495652  0 408.765217391304  L 0 7.23478260869565  Z " fill-rule="evenodd" />
    </mask>
    <filter x="-5px" y="-5px" width="756px" height="436px" filterUnits="userSpaceOnUse" id="filter500">
      <feOffset dx="5" dy="5" in="SourceAlpha" result="shadowOffsetInner" />
      <feGaussianBlur stdDeviation="5" in="shadowOffsetInner" result="shadowGaussian" />
      <feComposite in2="shadowGaussian" operator="atop" in="SourceAlpha" result="shadowComposite" />
      <feColorMatrix type="matrix" values="0 0 0 0 0  0 0 0 0 0  0 0 0 0 0  0 0 0 0.313725490196078 0  " in="shadowComposite" />
    </filter>
    <g id="widget501">
      <path d="M 0 7.23478260869565  C 0 3.23912250434783  2.74598686666667 0  6.13333333333333 0  L 729.866666666667 0  C 733.254013133333 0  736 3.23912250434783  736 7.23478260869565  L 736 408.765217391304  C 736 412.760877495652  733.254013133333 416  729.866666666667 416  L 6.13333333333333 416  C 2.74598686666667 416  0 412.760877495652  0 408.765217391304  L 0 7.23478260869565  Z " fill-rule="nonzero" fill="#ffffff" stroke="none" />
      <path d="M 0 7.23478260869565  C 0 3.23912250434783  2.74598686666667 0  6.13333333333333 0  L 729.866666666667 0  C 733.254013133333 0  736 3.23912250434783  736 7.23478260869565  L 736 408.765217391304  C 736 412.760877495652  733.254013133333 416  729.866666666667 416  L 6.13333333333333 416  C 2.74598686666667 416  0 412.760877495652  0 408.765217391304  L 0 7.23478260869565  Z " stroke-width="2" stroke="#000000" fill="none" mask="url(#clip499)" />
    </g>
  </defs>
  <g transform="matrix(1 0 0 1 5 5 )">
    <use xlink:href="#widget501" filter="url(#filter500)" />
    <use xlink:href="#widget501" />
  </g>
</svg>