<?xml version="1.0" encoding="utf-8"?>
<svg version="1.1" xmlns:xlink="http://www.w3.org/1999/xlink" width="756px" height="363px" xmlns="http://www.w3.org/2000/svg">
  <defs>
    <mask fill="white" id="clip503">
      <path d="M 0 5.96521739130435  C 0 2.67071879565217  2.74598686666667 0  6.13333333333333 0  L 729.866666666667 0  C 733.254013133333 0  736 2.67071879565217  736 5.96521739130435  L 736 337.034782608696  C 736 340.329281204348  733.254013133333 343  729.866666666667 343  L 6.13333333333333 343  C 2.74598686666667 343  0 340.329281204348  0 337.034782608696  L 0 5.96521739130435  Z " fill-rule="evenodd" />
    </mask>
    <filter x="-5px" y="-5px" width="756px" height="363px" filterUnits="userSpaceOnUse" id="filter504">
      <feOffset dx="5" dy="5" in="SourceAlpha" result="shadowOffsetInner" />
      <feGaussianBlur stdDeviation="5" in="shadowOffsetInner" result="shadowGaussian" />
      <feComposite in2="shadowGaussian" operator="atop" in="SourceAlpha" result="shadowComposite" />
      <feColorMatrix type="matrix" values="0 0 0 0 0  0 0 0 0 0  0 0 0 0 0  0 0 0 0.313725490196078 0  " in="shadowComposite" />
    </filter>
    <g id="widget505">
      <path d="M 0 5.96521739130435  C 0 2.67071879565217  2.74598686666667 0  6.13333333333333 0  L 729.866666666667 0  C 733.254013133333 0  736 2.67071879565217  736 5.96521739130435  L 736 337.034782608696  C 736 340.329281204348  733.254013133333 343  729.866666666667 343  L 6.13333333333333 343  C 2.74598686666667 343  0 340.329281204348  0 337.034782608696  L 0 5.96521739130435  Z " fill-rule="nonzero" fill="#ffffff" stroke="none" />
      <path d="M 0 5.96521739130435  C 0 2.67071879565217  2.74598686666667 0  6.13333333333333 0  L 729.866666666667 0  C 733.254013133333 0  736 2.67071879565217  736 5.96521739130435  L 736 337.034782608696  C 736 340.329281204348  733.254013133333 343  729.866666666667 343  L 6.13333333333333 343  C 2.74598686666667 343  0 340.329281204348  0 337.034782608696  L 0 5.96521739130435  Z " stroke-width="2" stroke="#000000" fill="none" mask="url(#clip503)" />
    </g>
  </defs>
  <g transform="matrix(1 0 0 1 5 5 )">
    <use xlink:href="#widget505" filter="url(#filter504)" />
    <use xlink:href="#widget505" />
  </g>
</svg>