<?xml version="1.0" encoding="utf-8"?>
<svg version="1.1" xmlns:xlink="http://www.w3.org/1999/xlink" width="36px" height="36px" xmlns="http://www.w3.org/2000/svg">
  <g transform="matrix(1 0 0 1 -177 -587 )">
    <path d="M 20.25 30.140625  C 20.65625 30.140625  21.0078125 29.9921875  21.3046875 29.6953125  L 23.6953125 27.3046875  C 23.9921875 27.0078125  24.140625 26.65625  24.140625 26.25  C 24.140625 25.84375  23.9921875 25.4921875  23.6953125 25.1953125  L 16.5 18  L 23.6953125 10.8046875  C 23.9921875 10.5078125  24.140625 10.15625  24.140625 9.75  C 24.140625 9.34375  23.9921875 8.9921875  23.6953125 8.6953125  L 21.3046875 6.3046875  C 21.0078125 6.0078125  20.65625 5.859375  20.25 5.859375  C 19.84375 5.859375  19.4921875 6.0078125  19.1953125 6.3046875  L 8.5546875 16.9453125  C 8.2578125 17.2421875  8.109375 17.59375  8.109375 18  C 8.109375 18.40625  8.2578125 18.7578125  8.5546875 19.0546875  L 19.1953125 29.6953125  C 19.4921875 29.9921875  19.84375 30.140625  20.25 30.140625  Z M 33.5859375 8.96484375  C 35.1953125 11.72265625  36 14.734375  36 18  C 36 21.265625  35.1953125 24.27734375  33.5859375 27.03515625  C 31.9765625 29.79296875  29.79296875 31.9765625  27.03515625 33.5859375  C 24.27734375 35.1953125  21.265625 36  18 36  C 14.734375 36  11.72265625 35.1953125  8.96484375 33.5859375  C 6.20703125 31.9765625  4.0234375 29.79296875  2.4140625 27.03515625  C 0.8046875 24.27734375  0 21.265625  0 18  C 0 14.734375  0.8046875 11.72265625  2.4140625 8.96484375  C 4.0234375 6.20703125  6.20703125 4.0234375  8.96484375 2.4140625  C 11.72265625 0.804687499999997  14.734375 0  18 0  C 21.265625 0  24.27734375 0.804687499999997  27.03515625 2.4140625  C 29.79296875 4.0234375  31.9765625 6.20703125  33.5859375 8.96484375  Z " fill-rule="nonzero" fill="#ffffff" stroke="none" transform="matrix(1 0 0 1 177 587 )" />
  </g>
</svg>