<?xml version="1.0" encoding="utf-8"?>
<svg version="1.1" xmlns:xlink="http://www.w3.org/1999/xlink" width="36px" height="36px" xmlns="http://www.w3.org/2000/svg">
  <g transform="matrix(1 0 0 1 -236 -587 )">
    <path d="M 15.75 30.140625  C 16.15625 30.140625  16.5078125 29.9921875  16.8046875 29.6953125  L 27.4453125 19.0546875  C 27.7421875 18.7578125  27.890625 18.40625  27.890625 18  C 27.890625 17.59375  27.7421875 17.2421875  27.4453125 16.9453125  L 16.8046875 6.3046875  C 16.5078125 6.0078125  16.15625 5.859375  15.75 5.859375  C 15.34375 5.859375  14.9921875 6.0078125  14.6953125 6.3046875  L 12.3046875 8.6953125  C 12.0078125 8.9921875  11.859375 9.34375  11.859375 9.75  C 11.859375 10.15625  12.0078125 10.5078125  12.3046875 10.8046875  L 19.5 18  L 12.3046875 25.1953125  C 12.0078125 25.4921875  11.859375 25.84375  11.859375 26.25  C 11.859375 26.65625  12.0078125 27.0078125  12.3046875 27.3046875  L 14.6953125 29.6953125  C 14.9921875 29.9921875  15.34375 30.140625  15.75 30.140625  Z M 33.5859375 8.96484375  C 35.1953125 11.72265625  36 14.734375  36 18  C 36 21.265625  35.1953125 24.27734375  33.5859375 27.03515625  C 31.9765625 29.79296875  29.79296875 31.9765625  27.03515625 33.5859375  C 24.27734375 35.1953125  21.265625 36  18 36  C 14.734375 36  11.72265625 35.1953125  8.96484375 33.5859375  C 6.20703125 31.9765625  4.0234375 29.79296875  2.4140625 27.03515625  C 0.8046875 24.27734375  0 21.265625  0 18  C 0 14.734375  0.8046875 11.72265625  2.4140625 8.96484375  C 4.0234375 6.20703125  6.20703125 4.0234375  8.96484375 2.4140625  C 11.72265625 0.804687499999997  14.734375 0  18 0  C 21.265625 0  24.27734375 0.804687499999997  27.03515625 2.4140625  C 29.79296875 4.0234375  31.9765625 6.20703125  33.5859375 8.96484375  Z " fill-rule="nonzero" fill="#ffffff" stroke="none" transform="matrix(1 0 0 1 236 587 )" />
  </g>
</svg>