<?xml version="1.0" encoding="utf-8"?>
<svg version="1.1" xmlns:xlink="http://www.w3.org/1999/xlink" width="13px" height="13px" xmlns="http://www.w3.org/2000/svg">
  <g transform="matrix(1 0 0 1 -1474 -417 )">
    <path d="M 12 10  L 12 13  L 1 13  L 1 10  L 2 10  L 1.99902075 11.9993893  L 10.9990208 11.9993893  L 11 10  L 12 10  Z M 6.21007770000006 0.304816380000005  C 6.35417199999995 0.158734970000012  6.57801344999996 0.139065270000003  6.74356593000005 0.246752579999992  L 6.75426031999996 0.253312230000006  L 6.80003234000003 0.284913869999997  L 6.84253332000003 0.32268646  L 12.0254642 5.52933313  L 11.3310054999999 6.22379185  L 6.99902075 1.86638934999999  L 7 11  L 6 11  L 5.99902075 1.83238935  L 1.66696090999994 6.25768966999999  L 0.998020750000023 5.58874951000001  L 6.17569877999995 0.33961887000001  L 6.18432255000005 0.330290630000007  L 6.19885341999998 0.315672129999996  L 6.21007770000006 0.304816380000005  Z " fill-rule="nonzero" fill="#ffffff" stroke="none" transform="matrix(1 0 0 1 1474 417 )" />
  </g>
</svg>