<?xml version="1.0" encoding="utf-8"?>
<svg version="1.1" xmlns:xlink="http://www.w3.org/1999/xlink" width="424px" height="30px" xmlns="http://www.w3.org/2000/svg">
  <defs>
    <mask fill="white" id="clip643">
      <path d="M 421.525291828794 0  C 422.892035206226 0  424 0.157399892578126  424 0.3515625  L 424 29.6484375  C 424 29.842600078125  422.892035206226 30  421.525291828794 30  L 2.47470817120623 30  C 1.10796458754864 30  0 29.842600078125  0 29.6484375  L 0 0.3515625  C 0 0.157399892578126  1.10796458754864 0  2.47470817120623 0  L 421.525291828794 0  Z " fill-rule="evenodd" />
    </mask>
  </defs>
  <g transform="matrix(1 0 0 1 -342 -506 )">
    <path d="M 421.525291828794 0  C 422.892035206226 0  424 0.157399892578126  424 0.3515625  L 424 29.6484375  C 424 29.842600078125  422.892035206226 30  421.525291828794 30  L 2.47470817120623 30  C 1.10796458754864 30  0 29.842600078125  0 29.6484375  L 0 0.3515625  C 0 0.157399892578126  1.10796458754864 0  2.47470817120623 0  L 421.525291828794 0  Z " fill-rule="nonzero" fill="#ffffff" stroke="none" fill-opacity="0" transform="matrix(1 0 0 1 342 506 )" />
    <path d="M 421.525291828794 0  C 422.892035206226 0  424 0.157399892578126  424 0.3515625  L 424 29.6484375  C 424 29.842600078125  422.892035206226 30  421.525291828794 30  L 2.47470817120623 30  C 1.10796458754864 30  0 29.842600078125  0 29.6484375  L 0 0.3515625  C 0 0.157399892578126  1.10796458754864 0  2.47470817120623 0  L 421.525291828794 0  Z " stroke-width="2" stroke="#eeeeee" fill="none" transform="matrix(1 0 0 1 342 506 )" mask="url(#clip643)" />
  </g>
</svg>