<?xml version="1.0" encoding="utf-8"?>
<svg version="1.1" xmlns:xlink="http://www.w3.org/1999/xlink" width="88px" height="32px" xmlns="http://www.w3.org/2000/svg">
  <defs>
    <mask fill="white" id="clip487">
      <path d="M 1.17857142857143 0  C 1.17857142857143 0  86.8214285714286 0  86.8214285714286 0  C 87.1468824285714 0  87.4415252857143 0.167893219000007  87.6548042857143 0.439339827999987  C 87.8680840714285 0.710786439999993  88 1.08578643999999  88 1.5  C 88 1.5  88 30.5  88 30.5  C 88 30.9142136  87.8680840714285 31.2892136  87.6548042857143 31.5606602  C 87.4415252857143 31.8321068  87.1468824285714 32  86.8214285714286 32  C 86.8214285714286 32  1.17857142857143 32  1.17857142857143 32  C 0.853117917142851 32  0.558475059999994 31.8321068  0.345195579142869 31.5606602  C 0.131916100642863 31.2892136  0 30.9142136  0 30.5  C 0 30.5  0 1.5  0 1.5  C 0 1.08578643999999  0.131916100642863 0.710786439999993  0.345195579142869 0.439339827999987  C 0.558475059999994 0.167893219000007  0.853117917142851 0  1.17857142857143 0  Z " fill-rule="evenodd" />
    </mask>
  </defs>
  <g transform="matrix(1 0 0 1 -1456 -408 )">
    <path d="M 1.17857142857143 0  C 1.17857142857143 0  86.8214285714286 0  86.8214285714286 0  C 87.1468824285714 0  87.4415252857143 0.167893219000007  87.6548042857143 0.439339827999987  C 87.8680840714285 0.710786439999993  88 1.08578643999999  88 1.5  C 88 1.5  88 30.5  88 30.5  C 88 30.9142136  87.8680840714285 31.2892136  87.6548042857143 31.5606602  C 87.4415252857143 31.8321068  87.1468824285714 32  86.8214285714286 32  C 86.8214285714286 32  1.17857142857143 32  1.17857142857143 32  C 0.853117917142851 32  0.558475059999994 31.8321068  0.345195579142869 31.5606602  C 0.131916100642863 31.2892136  0 30.9142136  0 30.5  C 0 30.5  0 1.5  0 1.5  C 0 1.08578643999999  0.131916100642863 0.710786439999993  0.345195579142869 0.439339827999987  C 0.558475059999994 0.167893219000007  0.853117917142851 0  1.17857142857143 0  Z " fill-rule="nonzero" fill="#0052d9" stroke="none" transform="matrix(1 0 0 1 1456 408 )" />
    <path d="M 1.17857142857143 0  C 1.17857142857143 0  86.8214285714286 0  86.8214285714286 0  C 87.1468824285714 0  87.4415252857143 0.167893219000007  87.6548042857143 0.439339827999987  C 87.8680840714285 0.710786439999993  88 1.08578643999999  88 1.5  C 88 1.5  88 30.5  88 30.5  C 88 30.9142136  87.8680840714285 31.2892136  87.6548042857143 31.5606602  C 87.4415252857143 31.8321068  87.1468824285714 32  86.8214285714286 32  C 86.8214285714286 32  1.17857142857143 32  1.17857142857143 32  C 0.853117917142851 32  0.558475059999994 31.8321068  0.345195579142869 31.5606602  C 0.131916100642863 31.2892136  0 30.9142136  0 30.5  C 0 30.5  0 1.5  0 1.5  C 0 1.08578643999999  0.131916100642863 0.710786439999993  0.345195579142869 0.439339827999987  C 0.558475059999994 0.167893219000007  0.853117917142851 0  1.17857142857143 0  Z " stroke-width="2" stroke="#dddddd" fill="none" transform="matrix(1 0 0 1 1456 408 )" mask="url(#clip487)" />
  </g>
</svg>