<?xml version="1.0" encoding="utf-8"?>
<svg version="1.1" xmlns:xlink="http://www.w3.org/1999/xlink" width="112px" height="32px" xmlns="http://www.w3.org/2000/svg">
  <defs>
    <mask fill="white" id="clip644">
      <path d="M 1.5 0  C 1.5 0  110.5 0  110.5 0  C 110.914214 0  111.289214 0.167893219000007  111.56066 0.439339827999987  C 111.832107 0.710786439999993  112 1.08578643999999  112 1.5  C 112 1.5  112 30.5  112 30.5  C 112 30.9142136  111.832107 31.2892136  111.56066 31.5606602  C 111.289214 31.8321068  110.914214 32  110.5 32  C 110.5 32  1.5 32  1.5 32  C 1.08578643999999 32  0.710786439999993 31.8321068  0.439339828000016 31.5606602  C 0.167893219000007 31.2892136  0 30.9142136  0 30.5  C 0 30.5  0 1.5  0 1.5  C 0 1.08578643999999  0.167893219000007 0.710786439999993  0.439339828000016 0.439339827999987  C 0.710786439999993 0.167893219000007  1.08578643999999 0  1.5 0  Z " fill-rule="evenodd" />
    </mask>
  </defs>
  <g transform="matrix(1 0 0 1 -1336 -408 )">
    <path d="M 1.5 0  C 1.5 0  110.5 0  110.5 0  C 110.914214 0  111.289214 0.167893219000007  111.56066 0.439339827999987  C 111.832107 0.710786439999993  112 1.08578643999999  112 1.5  C 112 1.5  112 30.5  112 30.5  C 112 30.9142136  111.832107 31.2892136  111.56066 31.5606602  C 111.289214 31.8321068  110.914214 32  110.5 32  C 110.5 32  1.5 32  1.5 32  C 1.08578643999999 32  0.710786439999993 31.8321068  0.439339828000016 31.5606602  C 0.167893219000007 31.2892136  0 30.9142136  0 30.5  C 0 30.5  0 1.5  0 1.5  C 0 1.08578643999999  0.167893219000007 0.710786439999993  0.439339828000016 0.439339827999987  C 0.710786439999993 0.167893219000007  1.08578643999999 0  1.5 0  Z " fill-rule="nonzero" fill="#ffffff" stroke="none" transform="matrix(1 0 0 1 1336 408 )" />
    <path d="M 1.5 0  C 1.5 0  110.5 0  110.5 0  C 110.914214 0  111.289214 0.167893219000007  111.56066 0.439339827999987  C 111.832107 0.710786439999993  112 1.08578643999999  112 1.5  C 112 1.5  112 30.5  112 30.5  C 112 30.9142136  111.832107 31.2892136  111.56066 31.5606602  C 111.289214 31.8321068  110.914214 32  110.5 32  C 110.5 32  1.5 32  1.5 32  C 1.08578643999999 32  0.710786439999993 31.8321068  0.439339828000016 31.5606602  C 0.167893219000007 31.2892136  0 30.9142136  0 30.5  C 0 30.5  0 1.5  0 1.5  C 0 1.08578643999999  0.167893219000007 0.710786439999993  0.439339828000016 0.439339827999987  C 0.710786439999993 0.167893219000007  1.08578643999999 0  1.5 0  Z " stroke-width="2" stroke="#dddddd" fill="none" transform="matrix(1 0 0 1 1336 408 )" mask="url(#clip644)" />
  </g>
</svg>