<?xml version="1.0" encoding="utf-8"?>
<svg version="1.1" xmlns:xlink="http://www.w3.org/1999/xlink" width="12px" height="12px" viewBox="643 331.5  12 12" xmlns="http://www.w3.org/2000/svg">
  <path d="M 649 331.5  C 652.36 331.5  655 334.14  655 337.5  C 655 340.86  652.36 343.5  649 343.5  C 645.64 343.5  643 340.86  643 337.5  C 643 334.14  645.64 331.5  649 331.5  Z " fill-rule="nonzero" fill="#f0f0f0" stroke="none" />
  <path d="M 649 332  C 652.08 332  654.5 334.42  654.5 337.5  C 654.5 340.58  652.08 343  649 343  C 645.92 343  643.5 340.58  643.5 337.5  C 643.5 334.42  645.92 332  649 332  Z " stroke-width="1" stroke="#797979" fill="none" />
  <path d="M 649 340.5  C 647.32 340.5  646 339.18  646 337.5  C 646 335.82  647.32 334.5  649 334.5  C 650.68 334.5  652 335.82  652 337.5  C 652 339.18  650.68 340.5  649 340.5  " fill-rule="nonzero" fill="#797979" stroke="none" />
</svg>