<?xml version="1.0" encoding="utf-8"?>
<svg version="1.1" xmlns:xlink="http://www.w3.org/1999/xlink" width="16px" height="12px" xmlns="http://www.w3.org/2000/svg">
  <g transform="matrix(1 0 0 1 -952 -426 )">
    <path d="M 1.14285714285714 6  C 2.13690476190476 7.53571428571429  3.4077380952381 8.65178571428571  4.95535714285714 9.34821428571429  L 5.65178571428571 8.08928571428571  C 5.13392857142857 7.71428571428571  4.72916666666667 7.24107142857143  4.4375 6.66964285714286  C 4.14583333333333 6.09821428571429  4 5.49404761904762  4 4.85714285714286  C 4 4.13690476190476  4.18154761904762 3.4672619047619  4.54464285714286 2.84821428571429  C 3.18154761904762 3.54464285714286  2.04761904761905 4.59523809523809  1.14285714285714 6  Z M 8.30357142857143 2.875  C 8.38690476190476 2.79166666666666  8.42857142857143 2.69047619047619  8.42857142857143 2.57142857142857  C 8.42857142857143 2.45238095238095  8.38690476190476 2.35119047619048  8.30357142857143 2.26785714285714  C 8.2202380952381 2.18452380952381  8.11904761904762 2.14285714285714  8 2.14285714285714  C 7.25595238095238 2.14285714285714  6.61755952380952 2.40922619047619  6.08482142857143 2.94196428571429  C 5.55208333333333 3.47470238095238  5.28571428571429 4.11309523809524  5.28571428571429 4.85714285714286  C 5.28571428571429 4.97619047619048  5.32738095238095 5.07738095238095  5.41071428571429 5.16071428571429  C 5.49404761904762 5.24404761904762  5.5952380952381 5.28571428571429  5.71428571428571 5.28571428571429  C 5.83333333333333 5.28571428571429  5.93452380952381 5.24404761904762  6.01785714285714 5.16071428571429  C 6.10119047619048 5.07738095238095  6.14285714285714 4.97619047619048  6.14285714285714 4.85714285714286  C 6.14285714285714 4.34523809523809  6.32440476190476 3.9077380952381  6.6875 3.54464285714286  C 7.05059523809524 3.18154761904762  7.48809523809524 3  8 3  C 8.11904761904762 3  8.2202380952381 2.95833333333333  8.30357142857143 2.875  Z M 11.5267857142857 0.625  C 11.6220238095238 0.684523809523808  11.6696428571429 0.764880952380952  11.6696428571429 0.866071428571429  C 11.6696428571429 0.907738095238094  11.6666666666667 0.934523809523808  11.6607142857143 0.946428571428572  C 11.0297619047619 2.07142857142857  10.0892857142857 3.75892857142857  8.83928571428571 6.00892857142857  C 7.58928571428572 8.25892857142857  6.65178571428572 9.94345238095238  6.02678571428571 11.0625  L 5.58928571428571 11.8571428571429  C 5.52976190476191 11.952380952381  5.44642857142857 12  5.33928571428571 12  C 5.26785714285714 12  4.86904761904762 11.7916666666667  4.14285714285714 11.375  C 4.04761904761905 11.3154761904762  4 11.2321428571429  4 11.125  C 4 11.0535714285714  4.13095238095238 10.7946428571429  4.39285714285714 10.3482142857143  C 3.54166666666667 9.96130952380952  2.75744047619048 9.44642857142857  2.04017857142857 8.80357142857143  C 1.32291666666667 8.16071428571429  0.702380952380953 7.43154761904762  0.178571428571429 6.61607142857143  C 0.0595238095238095 6.43154761904762  0 6.22619047619048  0 6  C 0 5.77380952380952  0.0595238095238095 5.56845238095238  0.178571428571429 5.38392857142857  C 1.08928571428571 3.98511904761905  2.2202380952381 2.88095238095238  3.57142857142857 2.07142857142857  C 4.92261904761905 1.26190476190476  6.39880952380952 0.857142857142857  8 0.857142857142857  C 8.52976190476191 0.857142857142857  9.06547619047619 0.907738095238094  9.60714285714286 1.00892857142857  L 10.0892857142857 0.142857142857142  C 10.1488095238095 0.0476190476190475  10.2321428571429 0  10.3392857142857 0  C 10.3690476190476 0  10.422619047619 0.0178571428571428  10.5 0.0535714285714284  C 10.577380952381 0.089285714285714  10.6696428571429 0.135416666666665  10.7767857142857 0.191964285714286  C 10.8839285714286 0.248511904761904  10.9821428571429 0.303571428571429  11.0714285714286 0.357142857142857  C 11.1607142857143 0.410714285714286  11.2544642857143 0.465773809523808  11.3526785714286 0.522321428571428  C 11.4508928571429 0.578869047619047  11.5089285714286 0.613095238095237  11.5267857142857 0.625  Z M 11.9285714285714 4.10714285714286  C 11.9761904761905 4.375  12 4.625  12 4.85714285714286  C 12 5.68452380952381  11.764880952381 6.43898809523809  11.2946428571429 7.12053571428571  C 10.8244047619048 7.80208333333333  10.202380952381 8.29166666666666  9.42857142857143 8.58928571428572  L 11.9285714285714 4.10714285714286  Z M 15.8214285714286 5.38392857142857  C 15.9404761904762 5.58630952380952  16 5.79166666666667  16 6  C 16 6.20833333333333  15.9404761904762 6.41369047619048  15.8214285714286 6.61607142857143  C 15.5892857142857 6.99702380952381  15.264880952381 7.42857142857143  14.8482142857143 7.91071428571429  C 13.9553571428571 8.93452380952381  12.921130952381 9.72916666666667  11.7455357142857 10.2946428571429  C 10.5699404761905 10.860119047619  9.32142857142857 11.1428571428571  8 11.1428571428571  L 8.66071428571429 9.96428571428571  C 9.92261904761905 9.85714285714286  11.0907738095238 9.44940476190476  12.1651785714286 8.74107142857143  C 13.2395833333333 8.03273809523809  14.1369047619048 7.11904761904762  14.8571428571429 6  C 14.172619047619 4.93452380952381  13.3333333333333 4.05952380952381  12.3392857142857 3.375  L 12.9017857142857 2.375  C 13.4672619047619 2.75595238095238  14.0104166666667 3.21130952380952  14.53125 3.74107142857143  C 15.0520833333333 4.27083333333333  15.4821428571429 4.81845238095238  15.8214285714286 5.38392857142857  Z " fill-rule="nonzero" fill="#7f7f7f" stroke="none" transform="matrix(1 0 0 1 952 426 )" />
  </g>
</svg>