<?xml version="1.0" encoding="utf-8"?>
<svg version="1.1" xmlns:xlink="http://www.w3.org/1999/xlink" width="12px" height="12px" viewBox="404 242.5  12 12" xmlns="http://www.w3.org/2000/svg">
  <path d="M 410 242.5  C 413.36 242.5  416 245.14  416 248.5  C 416 251.86  413.36 254.5  410 254.5  C 406.64 254.5  404 251.86  404 248.5  C 404 245.14  406.64 242.5  410 242.5  Z " fill-rule="nonzero" fill="#ffffff" stroke="none" />
  <path d="M 410 243  C 413.08 243  415.5 245.42  415.5 248.5  C 415.5 251.58  413.08 254  410 254  C 406.92 254  404.5 251.58  404.5 248.5  C 404.5 245.42  406.92 243  410 243  Z " stroke-width="1" stroke="#797979" fill="none" />
  <path d="M 410 251.5  C 408.32 251.5  407 250.18  407 248.5  C 407 246.82  408.32 245.5  410 245.5  C 411.68 245.5  413 246.82  413 248.5  C 413 250.18  411.68 251.5  410 251.5  " fill-rule="nonzero" fill="#797979" stroke="none" />
</svg>