<?xml version="1.0" encoding="utf-8"?>
<svg version="1.1" xmlns:xlink="http://www.w3.org/1999/xlink" width="1130px" height="318px" xmlns="http://www.w3.org/2000/svg">
  <g transform="matrix(1 0 0 1 -278 -392 )">
    <path d="M 279 397  A 4 4 0 0 1 283 393 L 1403 393  A 4 4 0 0 1 1407 397 L 1407 705  A 4 4 0 0 1 1403 709 L 283 709  A 4 4 0 0 1 279 705 L 279 397  Z " fill-rule="nonzero" fill="#ffffff" stroke="none" />
    <path d="M 278.5 397  A 4.5 4.5 0 0 1 283 392.5 L 1403 392.5  A 4.5 4.5 0 0 1 1407.5 397 L 1407.5 705  A 4.5 4.5 0 0 1 1403 709.5 L 283 709.5  A 4.5 4.5 0 0 1 278.5 705 L 278.5 397  Z " stroke-width="1" stroke-dasharray="3,1" stroke="#797979" fill="none" stroke-dashoffset="0.5" />
  </g>
</svg>