<?xml version="1.0" encoding="utf-8"?>
<svg version="1.1" xmlns:xlink="http://www.w3.org/1999/xlink" width="12px" height="12px" viewBox="263 1.5  12 12" xmlns="http://www.w3.org/2000/svg">
  <path d="M 269 1.5  C 272.36 1.5  275 4.14  275 7.5  C 275 10.86  272.36 13.5  269 13.5  C 265.64 13.5  263 10.86  263 7.5  C 263 4.14  265.64 1.5  269 1.5  Z " fill-rule="nonzero" fill="#f0f0f0" stroke="none" />
  <path d="M 269 2  C 272.08 2  274.5 4.42  274.5 7.5  C 274.5 10.58  272.08 13  269 13  C 265.92 13  263.5 10.58  263.5 7.5  C 263.5 4.42  265.92 2  269 2  Z " stroke-width="1" stroke="#797979" fill="none" />
  <path d="M 269 10.5  C 267.32 10.5  266 9.18  266 7.5  C 266 5.82  267.32 4.5  269 4.5  C 270.68 4.5  272 5.82  272 7.5  C 272 9.18  270.68 10.5  269 10.5  " fill-rule="nonzero" fill="#797979" stroke="none" />
</svg>