<?xml version="1.0" encoding="utf-8"?>
<svg version="1.1" xmlns:xlink="http://www.w3.org/1999/xlink" width="12px" height="12px" viewBox="546 242.5  12 12" xmlns="http://www.w3.org/2000/svg">
  <path d="M 552 242.5  C 555.36 242.5  558 245.14  558 248.5  C 558 251.86  555.36 254.5  552 254.5  C 548.64 254.5  546 251.86  546 248.5  C 546 245.14  548.64 242.5  552 242.5  Z " fill-rule="nonzero" fill="#ffffff" stroke="none" />
  <path d="M 552 243  C 555.08 243  557.5 245.42  557.5 248.5  C 557.5 251.58  555.08 254  552 254  C 548.92 254  546.5 251.58  546.5 248.5  C 546.5 245.42  548.92 243  552 243  Z " stroke-width="1" stroke="#797979" fill="none" />
  <path d="M 552 251.5  C 550.32 251.5  549 250.18  549 248.5  C 549 246.82  550.32 245.5  552 245.5  C 553.68 245.5  555 246.82  555 248.5  C 555 250.18  553.68 251.5  552 251.5  " fill-rule="nonzero" fill="#797979" stroke="none" />
</svg>