<?xml version="1.0" encoding="utf-8"?>
<svg version="1.1" xmlns:xlink="http://www.w3.org/1999/xlink" width="90px" height="48px" xmlns="http://www.w3.org/2000/svg">
  <defs>
    <mask fill="white" id="clip615">
      <path d="M 0 0  L 90 0  L 90 46  C 90 47.1045695  89.2804572321428 48  88.3928571428571 48  L 1.60714285714289 48  C 0.719542366071437 48  0 47.1045695  0 46  L 0 0  Z " fill-rule="evenodd" />
    </mask>
  </defs>
  <g transform="matrix(1 0 0 1 -271 -56 )">
    <path d="M 0 0  L 90 0  L 90 46  C 90 47.1045695  89.2804572321428 48  88.3928571428571 48  L 1.60714285714289 48  C 0.719542366071437 48  0 47.1045695  0 46  L 0 0  Z " fill-rule="nonzero" fill="#ffffff" stroke="none" transform="matrix(1 0 0 1 271 56 )" />
    <path d="M 0 0  L 90 0  L 90 46  C 90 47.1045695  89.2804572321428 48  88.3928571428571 48  L 1.60714285714289 48  C 0.719542366071437 48  0 47.1045695  0 46  L 0 0  Z " stroke-width="2" stroke="#f2f2f2" fill="none" transform="matrix(1 0 0 1 271 56 )" mask="url(#clip615)" />
  </g>
</svg>