<?xml version="1.0" encoding="utf-8"?>
<svg version="1.1" xmlns:xlink="http://www.w3.org/1999/xlink" width="91px" height="48px" xmlns="http://www.w3.org/2000/svg">
  <defs>
    <mask fill="white" id="clip458">
      <path d="M 0 0  L 91 0  L 91 46  C 91 47.1045695  90.2724623124999 48  89.375 48  L 1.62500000000003 48  C 0.727537281250008 48  0 47.1045695  0 46  L 0 0  Z " fill-rule="evenodd" />
    </mask>
  </defs>
  <g transform="matrix(1 0 0 1 -180 -56 )">
    <path d="M 0 0  L 91 0  L 91 46  C 91 47.1045695  90.2724623124999 48  89.375 48  L 1.62500000000003 48  C 0.727537281250008 48  0 47.1045695  0 46  L 0 0  Z " fill-rule="nonzero" fill="#ffffff" stroke="none" transform="matrix(1 0 0 1 180 56 )" />
    <path d="M 0 0  L 91 0  L 91 46  C 91 47.1045695  90.2724623124999 48  89.375 48  L 1.62500000000003 48  C 0.727537281250008 48  0 47.1045695  0 46  L 0 0  Z " stroke-width="2" stroke="#f2f2f2" fill="none" transform="matrix(1 0 0 1 180 56 )" mask="url(#clip458)" />
  </g>
</svg>