<?xml version="1.0" encoding="utf-8"?>
<svg version="1.1" xmlns:xlink="http://www.w3.org/1999/xlink" width="12px" height="12px" viewBox="684 10630.5  12 12" xmlns="http://www.w3.org/2000/svg">
  <path d="M 690 10630.5  C 693.36 10630.5  696 10633.14  696 10636.5  C 696 10639.86  693.36 10642.5  690 10642.5  C 686.64 10642.5  684 10639.86  684 10636.5  C 684 10633.14  686.64 10630.5  690 10630.5  Z " fill-rule="nonzero" fill="#f0f0f0" stroke="none" />
  <path d="M 690 10631  C 693.08 10631  695.5 10633.42  695.5 10636.5  C 695.5 10639.58  693.08 10642  690 10642  C 686.92 10642  684.5 10639.58  684.5 10636.5  C 684.5 10633.42  686.92 10631  690 10631  Z " stroke-width="1" stroke="#797979" fill="none" />
  <path d="M 690 10639.5  C 688.32 10639.5  687 10638.18  687 10636.5  C 687 10634.82  688.32 10633.5  690 10633.5  C 691.68 10633.5  693 10634.82  693 10636.5  C 693 10638.18  691.68 10639.5  690 10639.5  " fill-rule="nonzero" fill="#797979" stroke="none" />
</svg>