<?xml version="1.0" encoding="utf-8"?>
<svg version="1.1" xmlns:xlink="http://www.w3.org/1999/xlink" width="12px" height="12px" viewBox="766 10630.5  12 12" xmlns="http://www.w3.org/2000/svg">
  <path d="M 772 10630.5  C 775.36 10630.5  778 10633.14  778 10636.5  C 778 10639.86  775.36 10642.5  772 10642.5  C 768.64 10642.5  766 10639.86  766 10636.5  C 766 10633.14  768.64 10630.5  772 10630.5  Z " fill-rule="nonzero" fill="#ffffff" stroke="none" />
  <path d="M 772 10631  C 775.08 10631  777.5 10633.42  777.5 10636.5  C 777.5 10639.58  775.08 10642  772 10642  C 768.92 10642  766.5 10639.58  766.5 10636.5  C 766.5 10633.42  768.92 10631  772 10631  Z " stroke-width="1" stroke="#797979" fill="none" />
  <path d="M 772 10639.5  C 770.32 10639.5  769 10638.18  769 10636.5  C 769 10634.82  770.32 10633.5  772 10633.5  C 773.68 10633.5  775 10634.82  775 10636.5  C 775 10638.18  773.68 10639.5  772 10639.5  " fill-rule="nonzero" fill="#797979" stroke="none" />
</svg>