<?xml version="1.0" encoding="utf-8"?>
<svg version="1.1" xmlns:xlink="http://www.w3.org/1999/xlink" width="12px" height="12px" viewBox="1699 10630.5  12 12" xmlns="http://www.w3.org/2000/svg">
  <path d="M 1705 10630.5  C 1708.36 10630.5  1711 10633.14  1711 10636.5  C 1711 10639.86  1708.36 10642.5  1705 10642.5  C 1701.64 10642.5  1699 10639.86  1699 10636.5  C 1699 10633.14  1701.64 10630.5  1705 10630.5  Z " fill-rule="nonzero" fill="#f0f0f0" stroke="none" />
  <path d="M 1705 10631  C 1708.08 10631  1710.5 10633.42  1710.5 10636.5  C 1710.5 10639.58  1708.08 10642  1705 10642  C 1701.92 10642  1699.5 10639.58  1699.5 10636.5  C 1699.5 10633.42  1701.92 10631  1705 10631  Z " stroke-width="1" stroke="#797979" fill="none" />
  <path d="M 1705 10639.5  C 1703.32 10639.5  1702 10638.18  1702 10636.5  C 1702 10634.82  1703.32 10633.5  1705 10633.5  C 1706.68 10633.5  1708 10634.82  1708 10636.5  C 1708 10638.18  1706.68 10639.5  1705 10639.5  " fill-rule="nonzero" fill="#797979" stroke="none" />
</svg>