<?xml version="1.0" encoding="utf-8"?>
<svg version="1.1" xmlns:xlink="http://www.w3.org/1999/xlink" width="12px" height="12px" viewBox="1781 10630.5  12 12" xmlns="http://www.w3.org/2000/svg">
  <path d="M 1787 10630.5  C 1790.36 10630.5  1793 10633.14  1793 10636.5  C 1793 10639.86  1790.36 10642.5  1787 10642.5  C 1783.64 10642.5  1781 10639.86  1781 10636.5  C 1781 10633.14  1783.64 10630.5  1787 10630.5  Z " fill-rule="nonzero" fill="#f0f0f0" stroke="none" />
  <path d="M 1787 10631  C 1790.08 10631  1792.5 10633.42  1792.5 10636.5  C 1792.5 10639.58  1790.08 10642  1787 10642  C 1783.92 10642  1781.5 10639.58  1781.5 10636.5  C 1781.5 10633.42  1783.92 10631  1787 10631  Z " stroke-width="1" stroke="#797979" fill="none" />
  <path d="M 1787 10639.5  C 1785.32 10639.5  1784 10638.18  1784 10636.5  C 1784 10634.82  1785.32 10633.5  1787 10633.5  C 1788.68 10633.5  1790 10634.82  1790 10636.5  C 1790 10638.18  1788.68 10639.5  1787 10639.5  " fill-rule="nonzero" fill="#797979" stroke="none" />
</svg>