<?xml version="1.0" encoding="utf-8"?>
<svg version="1.1" xmlns:xlink="http://www.w3.org/1999/xlink" width="12px" height="12px" viewBox="336 2304.5  12 12" xmlns="http://www.w3.org/2000/svg">
  <path d="M 342 2304.5  C 345.36 2304.5  348 2307.14  348 2310.5  C 348 2313.86  345.36 2316.5  342 2316.5  C 338.64 2316.5  336 2313.86  336 2310.5  C 336 2307.14  338.64 2304.5  342 2304.5  Z " fill-rule="nonzero" fill="#ffffff" stroke="none" />
  <path d="M 342 2305  C 345.08 2305  347.5 2307.42  347.5 2310.5  C 347.5 2313.58  345.08 2316  342 2316  C 338.92 2316  336.5 2313.58  336.5 2310.5  C 336.5 2307.42  338.92 2305  342 2305  Z " stroke-width="1" stroke="#797979" fill="none" />
  <path d="M 342 2313.5  C 340.32 2313.5  339 2312.18  339 2310.5  C 339 2308.82  340.32 2307.5  342 2307.5  C 343.68 2307.5  345 2308.82  345 2310.5  C 345 2312.18  343.68 2313.5  342 2313.5  " fill-rule="nonzero" fill="#797979" stroke="none" />
</svg>