<?xml version="1.0" encoding="utf-8"?>
<svg version="1.1" xmlns:xlink="http://www.w3.org/1999/xlink" width="12px" height="12px" viewBox="1307 2304.5  12 12" xmlns="http://www.w3.org/2000/svg">
  <path d="M 1313 2304.5  C 1316.36 2304.5  1319 2307.14  1319 2310.5  C 1319 2313.86  1316.36 2316.5  1313 2316.5  C 1309.64 2316.5  1307 2313.86  1307 2310.5  C 1307 2307.14  1309.64 2304.5  1313 2304.5  Z " fill-rule="nonzero" fill="#f0f0f0" stroke="none" />
  <path d="M 1313 2305  C 1316.08 2305  1318.5 2307.42  1318.5 2310.5  C 1318.5 2313.58  1316.08 2316  1313 2316  C 1309.92 2316  1307.5 2313.58  1307.5 2310.5  C 1307.5 2307.42  1309.92 2305  1313 2305  Z " stroke-width="1" stroke="#797979" fill="none" />
  <path d="M 1313 2313.5  C 1311.32 2313.5  1310 2312.18  1310 2310.5  C 1310 2308.82  1311.32 2307.5  1313 2307.5  C 1314.68 2307.5  1316 2308.82  1316 2310.5  C 1316 2312.18  1314.68 2313.5  1313 2313.5  " fill-rule="nonzero" fill="#797979" stroke="none" />
</svg>