<?xml version="1.0" encoding="utf-8"?>
<svg version="1.1" xmlns:xlink="http://www.w3.org/1999/xlink" width="12px" height="12px" viewBox="1179 2304.5  12 12" xmlns="http://www.w3.org/2000/svg">
  <path d="M 1185 2304.5  C 1188.36 2304.5  1191 2307.14  1191 2310.5  C 1191 2313.86  1188.36 2316.5  1185 2316.5  C 1181.64 2316.5  1179 2313.86  1179 2310.5  C 1179 2307.14  1181.64 2304.5  1185 2304.5  Z " fill-rule="nonzero" fill="#f0f0f0" stroke="none" />
  <path d="M 1185 2305  C 1188.08 2305  1190.5 2307.42  1190.5 2310.5  C 1190.5 2313.58  1188.08 2316  1185 2316  C 1181.92 2316  1179.5 2313.58  1179.5 2310.5  C 1179.5 2307.42  1181.92 2305  1185 2305  Z " stroke-width="1" stroke="#797979" fill="none" />
  <path d="M 1185 2313.5  C 1183.32 2313.5  1182 2312.18  1182 2310.5  C 1182 2308.82  1183.32 2307.5  1185 2307.5  C 1186.68 2307.5  1188 2308.82  1188 2310.5  C 1188 2312.18  1186.68 2313.5  1185 2313.5  " fill-rule="nonzero" fill="#797979" stroke="none" />
</svg>