<?xml version="1.0" encoding="utf-8"?>
<svg version="1.1" xmlns:xlink="http://www.w3.org/1999/xlink" width="12px" height="12px" viewBox="1450 2304.5  12 12" xmlns="http://www.w3.org/2000/svg">
  <path d="M 1456 2304.5  C 1459.36 2304.5  1462 2307.14  1462 2310.5  C 1462 2313.86  1459.36 2316.5  1456 2316.5  C 1452.64 2316.5  1450 2313.86  1450 2310.5  C 1450 2307.14  1452.64 2304.5  1456 2304.5  Z " fill-rule="nonzero" fill="#f0f0f0" stroke="none" />
  <path d="M 1456 2305  C 1459.08 2305  1461.5 2307.42  1461.5 2310.5  C 1461.5 2313.58  1459.08 2316  1456 2316  C 1452.92 2316  1450.5 2313.58  1450.5 2310.5  C 1450.5 2307.42  1452.92 2305  1456 2305  Z " stroke-width="1" stroke="#797979" fill="none" />
  <path d="M 1456 2313.5  C 1454.32 2313.5  1453 2312.18  1453 2310.5  C 1453 2308.82  1454.32 2307.5  1456 2307.5  C 1457.68 2307.5  1459 2308.82  1459 2310.5  C 1459 2312.18  1457.68 2313.5  1456 2313.5  " fill-rule="nonzero" fill="#797979" stroke="none" />
</svg>