<?xml version="1.0" encoding="utf-8"?>
<svg version="1.1" xmlns:xlink="http://www.w3.org/1999/xlink" width="12px" height="12px" viewBox="1371 3561.5  12 12" xmlns="http://www.w3.org/2000/svg">
  <path d="M 1377 3561.5  C 1380.36 3561.5  1383 3564.14  1383 3567.5  C 1383 3570.86  1380.36 3573.5  1377 3573.5  C 1373.64 3573.5  1371 3570.86  1371 3567.5  C 1371 3564.14  1373.64 3561.5  1377 3561.5  Z " fill-rule="nonzero" fill="#f0f0f0" stroke="none" />
  <path d="M 1377 3562  C 1380.08 3562  1382.5 3564.42  1382.5 3567.5  C 1382.5 3570.58  1380.08 3573  1377 3573  C 1373.92 3573  1371.5 3570.58  1371.5 3567.5  C 1371.5 3564.42  1373.92 3562  1377 3562  Z " stroke-width="1" stroke="#797979" fill="none" />
  <path d="M 1377 3570.5  C 1375.32 3570.5  1374 3569.18  1374 3567.5  C 1374 3565.82  1375.32 3564.5  1377 3564.5  C 1378.68 3564.5  1380 3565.82  1380 3567.5  C 1380 3569.18  1378.68 3570.5  1377 3570.5  " fill-rule="nonzero" fill="#797979" stroke="none" />
</svg>