<?xml version="1.0" encoding="utf-8"?>
<svg version="1.1" xmlns:xlink="http://www.w3.org/1999/xlink" width="12px" height="12px" viewBox="1619 4635.5  12 12" xmlns="http://www.w3.org/2000/svg">
  <path d="M 1625 4635.5  C 1628.36 4635.5  1631 4638.14  1631 4641.5  C 1631 4644.86  1628.36 4647.5  1625 4647.5  C 1621.64 4647.5  1619 4644.86  1619 4641.5  C 1619 4638.14  1621.64 4635.5  1625 4635.5  Z " fill-rule="nonzero" fill="#ffffff" stroke="none" />
  <path d="M 1625 4636  C 1628.08 4636  1630.5 4638.42  1630.5 4641.5  C 1630.5 4644.58  1628.08 4647  1625 4647  C 1621.92 4647  1619.5 4644.58  1619.5 4641.5  C 1619.5 4638.42  1621.92 4636  1625 4636  Z " stroke-width="1" stroke="#797979" fill="none" />
  <path d="M 1625 4644.5  C 1623.32 4644.5  1622 4643.18  1622 4641.5  C 1622 4639.82  1623.32 4638.5  1625 4638.5  C 1626.68 4638.5  1628 4639.82  1628 4641.5  C 1628 4643.18  1626.68 4644.5  1625 4644.5  " fill-rule="nonzero" fill="#797979" stroke="none" />
</svg>