<?xml version="1.0" encoding="utf-8"?>
<svg version="1.1" xmlns:xlink="http://www.w3.org/1999/xlink" width="12px" height="12px" viewBox="1348 4635.5  12 12" xmlns="http://www.w3.org/2000/svg">
  <path d="M 1354 4635.5  C 1357.36 4635.5  1360 4638.14  1360 4641.5  C 1360 4644.86  1357.36 4647.5  1354 4647.5  C 1350.64 4647.5  1348 4644.86  1348 4641.5  C 1348 4638.14  1350.64 4635.5  1354 4635.5  Z " fill-rule="nonzero" fill="#f0f0f0" stroke="none" />
  <path d="M 1354 4636  C 1357.08 4636  1359.5 4638.42  1359.5 4641.5  C 1359.5 4644.58  1357.08 4647  1354 4647  C 1350.92 4647  1348.5 4644.58  1348.5 4641.5  C 1348.5 4638.42  1350.92 4636  1354 4636  Z " stroke-width="1" stroke="#797979" fill="none" />
  <path d="M 1354 4644.5  C 1352.32 4644.5  1351 4643.18  1351 4641.5  C 1351 4639.82  1352.32 4638.5  1354 4638.5  C 1355.68 4638.5  1357 4639.82  1357 4641.5  C 1357 4643.18  1355.68 4644.5  1354 4644.5  " fill-rule="nonzero" fill="#797979" stroke="none" />
</svg>