<?xml version="1.0" encoding="utf-8"?>
<svg version="1.1" xmlns:xlink="http://www.w3.org/1999/xlink" width="12px" height="12px" viewBox="272 202.5  12 12" xmlns="http://www.w3.org/2000/svg">
  <path d="M 278 202.5  C 281.36 202.5  284 205.14  284 208.5  C 284 211.86  281.36 214.5  278 214.5  C 274.64 214.5  272 211.86  272 208.5  C 272 205.14  274.64 202.5  278 202.5  Z " fill-rule="nonzero" fill="#ffffff" stroke="none" />
  <path d="M 278 203  C 281.08 203  283.5 205.42  283.5 208.5  C 283.5 211.58  281.08 214  278 214  C 274.92 214  272.5 211.58  272.5 208.5  C 272.5 205.42  274.92 203  278 203  Z " stroke-width="1" stroke="#797979" fill="none" />
  <path d="M 278 211.5  C 276.32 211.5  275 210.18  275 208.5  C 275 206.82  276.32 205.5  278 205.5  C 279.68 205.5  281 206.82  281 208.5  C 281 210.18  279.68 211.5  278 211.5  " fill-rule="nonzero" fill="#797979" stroke="none" />
</svg>