<?xml version="1.0" encoding="utf-8"?>
<svg version="1.1" xmlns:xlink="http://www.w3.org/1999/xlink" width="544px" height="390px" xmlns="http://www.w3.org/2000/svg">
  <g>
    <path d="M 1 22  A 21 21 0 0 1 22 1 L 522 1  A 21 21 0 0 1 543 22 L 543 368  A 21 21 0 0 1 522 389 L 22 389  A 21 21 0 0 1 1 368 L 1 22  Z " fill-rule="nonzero" fill="#ffffff" stroke="none" />
    <path d="M 0.5 22  A 21.5 21.5 0 0 1 22 0.5 L 522 0.5  A 21.5 21.5 0 0 1 543.5 22 L 543.5 368  A 21.5 21.5 0 0 1 522 389.5 L 22 389.5  A 21.5 21.5 0 0 1 0.5 368 L 0.5 22  Z " stroke-width="1" stroke-dasharray="1,1" stroke="#797979" fill="none" stroke-dashoffset="0.5" />
  </g>
</svg>