<?xml version="1.0" encoding="utf-8"?>
<svg version="1.1" xmlns:xlink="http://www.w3.org/1999/xlink" width="12px" height="12px" viewBox="144 305.5  12 12" xmlns="http://www.w3.org/2000/svg">
  <path d="M 150 305.5  C 153.36 305.5  156 308.14  156 311.5  C 156 314.86  153.36 317.5  150 317.5  C 146.64 317.5  144 314.86  144 311.5  C 144 308.14  146.64 305.5  150 305.5  Z " fill-rule="nonzero" fill="#ffffff" stroke="none" />
  <path d="M 150 306  C 153.08 306  155.5 308.42  155.5 311.5  C 155.5 314.58  153.08 317  150 317  C 146.92 317  144.5 314.58  144.5 311.5  C 144.5 308.42  146.92 306  150 306  Z " stroke-width="1" stroke="#797979" fill="none" />
  <path d="M 150 314.5  C 148.32 314.5  147 313.18  147 311.5  C 147 309.82  148.32 308.5  150 308.5  C 151.68 308.5  153 309.82  153 311.5  C 153 313.18  151.68 314.5  150 314.5  " fill-rule="nonzero" fill="#797979" stroke="none" />
</svg>