<?xml version="1.0" encoding="utf-8"?>
<svg version="1.1" xmlns:xlink="http://www.w3.org/1999/xlink" width="12px" height="12px" viewBox="415 305.5  12 12" xmlns="http://www.w3.org/2000/svg">
  <path d="M 421 305.5  C 424.36 305.5  427 308.14  427 311.5  C 427 314.86  424.36 317.5  421 317.5  C 417.64 317.5  415 314.86  415 311.5  C 415 308.14  417.64 305.5  421 305.5  Z " fill-rule="nonzero" fill="#ffffff" stroke="none" />
  <path d="M 421 306  C 424.08 306  426.5 308.42  426.5 311.5  C 426.5 314.58  424.08 317  421 317  C 417.92 317  415.5 314.58  415.5 311.5  C 415.5 308.42  417.92 306  421 306  Z " stroke-width="1" stroke="#797979" fill="none" />
  <path d="M 421 314.5  C 419.32 314.5  418 313.18  418 311.5  C 418 309.82  419.32 308.5  421 308.5  C 422.68 308.5  424 309.82  424 311.5  C 424 313.18  422.68 314.5  421 314.5  " fill-rule="nonzero" fill="#797979" stroke="none" />
</svg>