<?xml version="1.0" encoding="utf-8"?>
<svg version="1.1" xmlns:xlink="http://www.w3.org/1999/xlink" width="12px" height="12px" viewBox="415 202.5  12 12" xmlns="http://www.w3.org/2000/svg">
  <path d="M 421 202.5  C 424.36 202.5  427 205.14  427 208.5  C 427 211.86  424.36 214.5  421 214.5  C 417.64 214.5  415 211.86  415 208.5  C 415 205.14  417.64 202.5  421 202.5  Z " fill-rule="nonzero" fill="#ffffff" stroke="none" />
  <path d="M 421 203  C 424.08 203  426.5 205.42  426.5 208.5  C 426.5 211.58  424.08 214  421 214  C 417.92 214  415.5 211.58  415.5 208.5  C 415.5 205.42  417.92 203  421 203  Z " stroke-width="1" stroke="#797979" fill="none" />
  <path d="M 421 211.5  C 419.32 211.5  418 210.18  418 208.5  C 418 206.82  419.32 205.5  421 205.5  C 422.68 205.5  424 206.82  424 208.5  C 424 210.18  422.68 211.5  421 211.5  " fill-rule="nonzero" fill="#797979" stroke="none" />
</svg>