<?xml version="1.0" encoding="utf-8"?>
<svg version="1.1" xmlns:xlink="http://www.w3.org/1999/xlink" width="12px" height="12px" viewBox="248 1.5  12 12" xmlns="http://www.w3.org/2000/svg">
  <path d="M 254 1.5  C 257.36 1.5  260 4.14  260 7.5  C 260 10.86  257.36 13.5  254 13.5  C 250.64 13.5  248 10.86  248 7.5  C 248 4.14  250.64 1.5  254 1.5  Z " fill-rule="nonzero" fill="#ffffff" stroke="none" />
  <path d="M 254 2  C 257.08 2  259.5 4.42  259.5 7.5  C 259.5 10.58  257.08 13  254 13  C 250.92 13  248.5 10.58  248.5 7.5  C 248.5 4.42  250.92 2  254 2  Z " stroke-width="1" stroke="#797979" fill="none" />
  <path d="M 254 10.5  C 252.32 10.5  251 9.18  251 7.5  C 251 5.82  252.32 4.5  254 4.5  C 255.68 4.5  257 5.82  257 7.5  C 257 9.18  255.68 10.5  254 10.5  " fill-rule="nonzero" fill="#797979" stroke="none" />
</svg>