<?xml version="1.0" encoding="utf-8"?>
<svg version="1.1" xmlns:xlink="http://www.w3.org/1999/xlink" width="12px" height="12px" viewBox="984 242.5  12 12" xmlns="http://www.w3.org/2000/svg">
  <path d="M 990 242.5  C 993.36 242.5  996 245.14  996 248.5  C 996 251.86  993.36 254.5  990 254.5  C 986.64 254.5  984 251.86  984 248.5  C 984 245.14  986.64 242.5  990 242.5  Z " fill-rule="nonzero" fill="#ffffff" stroke="none" />
  <path d="M 990 243  C 993.08 243  995.5 245.42  995.5 248.5  C 995.5 251.58  993.08 254  990 254  C 986.92 254  984.5 251.58  984.5 248.5  C 984.5 245.42  986.92 243  990 243  Z " stroke-width="1" stroke="#797979" fill="none" />
  <path d="M 990 251.5  C 988.32 251.5  987 250.18  987 248.5  C 987 246.82  988.32 245.5  990 245.5  C 991.68 245.5  993 246.82  993 248.5  C 993 250.18  991.68 251.5  990 251.5  " fill-rule="nonzero" fill="#797979" stroke="none" />
</svg>