<?xml version="1.0" encoding="utf-8"?>
<svg version="1.1" xmlns:xlink="http://www.w3.org/1999/xlink" width="1130px" height="330px" xmlns="http://www.w3.org/2000/svg">
  <g transform="matrix(1 0 0 1 -278 -330 )">
    <path d="M 279 335  A 4 4 0 0 1 283 331 L 1403 331  A 4 4 0 0 1 1407 335 L 1407 655  A 4 4 0 0 1 1403 659 L 283 659  A 4 4 0 0 1 279 655 L 279 335  Z " fill-rule="nonzero" fill="#ffffff" stroke="none" />
    <path d="M 278.5 335  A 4.5 4.5 0 0 1 283 330.5 L 1403 330.5  A 4.5 4.5 0 0 1 1407.5 335 L 1407.5 655  A 4.5 4.5 0 0 1 1403 659.5 L 283 659.5  A 4.5 4.5 0 0 1 278.5 655 L 278.5 335  Z " stroke-width="1" stroke-dasharray="3,1" stroke="#797979" fill="none" stroke-dashoffset="0.5" />
  </g>
</svg>