<?xml version="1.0" encoding="utf-8"?>
<svg version="1.1" xmlns:xlink="http://www.w3.org/1999/xlink" width="12px" height="12px" viewBox="565 276.5  12 12" xmlns="http://www.w3.org/2000/svg">
  <path d="M 571 276.5  C 574.36 276.5  577 279.14  577 282.5  C 577 285.86  574.36 288.5  571 288.5  C 567.64 288.5  565 285.86  565 282.5  C 565 279.14  567.64 276.5  571 276.5  Z " fill-rule="nonzero" fill="#f0f0f0" stroke="none" />
  <path d="M 571 277  C 574.08 277  576.5 279.42  576.5 282.5  C 576.5 285.58  574.08 288  571 288  C 567.92 288  565.5 285.58  565.5 282.5  C 565.5 279.42  567.92 277  571 277  Z " stroke-width="1" stroke="#797979" fill="none" />
  <path d="M 571 285.5  C 569.32 285.5  568 284.18  568 282.5  C 568 280.82  569.32 279.5  571 279.5  C 572.68 279.5  574 280.82  574 282.5  C 574 284.18  572.68 285.5  571 285.5  " fill-rule="nonzero" fill="#797979" stroke="none" />
</svg>