<?xml version="1.0" encoding="utf-8"?>
<svg version="1.1" xmlns:xlink="http://www.w3.org/1999/xlink" width="12px" height="12px" viewBox="186 1595.5  12 12" xmlns="http://www.w3.org/2000/svg">
  <path d="M 192 1595.5  C 195.36 1595.5  198 1598.14  198 1601.5  C 198 1604.86  195.36 1607.5  192 1607.5  C 188.64 1607.5  186 1604.86  186 1601.5  C 186 1598.14  188.64 1595.5  192 1595.5  Z " fill-rule="nonzero" fill="#f0f0f0" stroke="none" />
  <path d="M 192 1596  C 195.08 1596  197.5 1598.42  197.5 1601.5  C 197.5 1604.58  195.08 1607  192 1607  C 188.92 1607  186.5 1604.58  186.5 1601.5  C 186.5 1598.42  188.92 1596  192 1596  Z " stroke-width="1" stroke="#797979" fill="none" />
  <path d="M 192 1604.5  C 190.32 1604.5  189 1603.18  189 1601.5  C 189 1599.82  190.32 1598.5  192 1598.5  C 193.68 1598.5  195 1599.82  195 1601.5  C 195 1603.18  193.68 1604.5  192 1604.5  " fill-rule="nonzero" fill="#797979" stroke="none" />
</svg>