<?xml version="1.0" encoding="utf-8"?>
<svg version="1.1" xmlns:xlink="http://www.w3.org/1999/xlink" width="12px" height="12px" viewBox="1481 1595.5  12 12" xmlns="http://www.w3.org/2000/svg">
  <path d="M 1487 1595.5  C 1490.36 1595.5  1493 1598.14  1493 1601.5  C 1493 1604.86  1490.36 1607.5  1487 1607.5  C 1483.64 1607.5  1481 1604.86  1481 1601.5  C 1481 1598.14  1483.64 1595.5  1487 1595.5  Z " fill-rule="nonzero" fill="#ffffff" stroke="none" />
  <path d="M 1487 1596  C 1490.08 1596  1492.5 1598.42  1492.5 1601.5  C 1492.5 1604.58  1490.08 1607  1487 1607  C 1483.92 1607  1481.5 1604.58  1481.5 1601.5  C 1481.5 1598.42  1483.92 1596  1487 1596  Z " stroke-width="1" stroke="#797979" fill="none" />
  <path d="M 1487 1604.5  C 1485.32 1604.5  1484 1603.18  1484 1601.5  C 1484 1599.82  1485.32 1598.5  1487 1598.5  C 1488.68 1598.5  1490 1599.82  1490 1601.5  C 1490 1603.18  1488.68 1604.5  1487 1604.5  " fill-rule="nonzero" fill="#797979" stroke="none" />
</svg>