<?xml version="1.0" encoding="utf-8"?>
<svg version="1.1" xmlns:xlink="http://www.w3.org/1999/xlink" width="12px" height="12px" viewBox="1295 1595.5  12 12" xmlns="http://www.w3.org/2000/svg">
  <path d="M 1301 1595.5  C 1304.36 1595.5  1307 1598.14  1307 1601.5  C 1307 1604.86  1304.36 1607.5  1301 1607.5  C 1297.64 1607.5  1295 1604.86  1295 1601.5  C 1295 1598.14  1297.64 1595.5  1301 1595.5  Z " fill-rule="nonzero" fill="#f0f0f0" stroke="none" />
  <path d="M 1301 1596  C 1304.08 1596  1306.5 1598.42  1306.5 1601.5  C 1306.5 1604.58  1304.08 1607  1301 1607  C 1297.92 1607  1295.5 1604.58  1295.5 1601.5  C 1295.5 1598.42  1297.92 1596  1301 1596  Z " stroke-width="1" stroke="#797979" fill="none" />
  <path d="M 1301 1604.5  C 1299.32 1604.5  1298 1603.18  1298 1601.5  C 1298 1599.82  1299.32 1598.5  1301 1598.5  C 1302.68 1598.5  1304 1599.82  1304 1601.5  C 1304 1603.18  1302.68 1604.5  1301 1604.5  " fill-rule="nonzero" fill="#797979" stroke="none" />
</svg>