<?xml version="1.0" encoding="utf-8"?>
<svg version="1.1" xmlns:xlink="http://www.w3.org/1999/xlink" width="12px" height="12px" viewBox="900 1595.5  12 12" xmlns="http://www.w3.org/2000/svg">
  <path d="M 906 1595.5  C 909.36 1595.5  912 1598.14  912 1601.5  C 912 1604.86  909.36 1607.5  906 1607.5  C 902.64 1607.5  900 1604.86  900 1601.5  C 900 1598.14  902.64 1595.5  906 1595.5  Z " fill-rule="nonzero" fill="#ffffff" stroke="none" />
  <path d="M 906 1596  C 909.08 1596  911.5 1598.42  911.5 1601.5  C 911.5 1604.58  909.08 1607  906 1607  C 902.92 1607  900.5 1604.58  900.5 1601.5  C 900.5 1598.42  902.92 1596  906 1596  Z " stroke-width="1" stroke="#797979" fill="none" />
  <path d="M 906 1604.5  C 904.32 1604.5  903 1603.18  903 1601.5  C 903 1599.82  904.32 1598.5  906 1598.5  C 907.68 1598.5  909 1599.82  909 1601.5  C 909 1603.18  907.68 1604.5  906 1604.5  " fill-rule="nonzero" fill="#797979" stroke="none" />
</svg>