<?xml version="1.0" encoding="utf-8"?>
<svg version="1.1" xmlns:xlink="http://www.w3.org/1999/xlink" width="12px" height="12px" viewBox="791 1595.5  12 12" xmlns="http://www.w3.org/2000/svg">
  <path d="M 797 1595.5  C 800.36 1595.5  803 1598.14  803 1601.5  C 803 1604.86  800.36 1607.5  797 1607.5  C 793.64 1607.5  791 1604.86  791 1601.5  C 791 1598.14  793.64 1595.5  797 1595.5  Z " fill-rule="nonzero" fill="#f0f0f0" stroke="none" />
  <path d="M 797 1596  C 800.08 1596  802.5 1598.42  802.5 1601.5  C 802.5 1604.58  800.08 1607  797 1607  C 793.92 1607  791.5 1604.58  791.5 1601.5  C 791.5 1598.42  793.92 1596  797 1596  Z " stroke-width="1" stroke="#797979" fill="none" />
  <path d="M 797 1604.5  C 795.32 1604.5  794 1603.18  794 1601.5  C 794 1599.82  795.32 1598.5  797 1598.5  C 798.68 1598.5  800 1599.82  800 1601.5  C 800 1603.18  798.68 1604.5  797 1604.5  " fill-rule="nonzero" fill="#797979" stroke="none" />
</svg>