<?xml version="1.0" encoding="utf-8"?>
<svg version="1.1" xmlns:xlink="http://www.w3.org/1999/xlink" width="12px" height="12px" viewBox="714 1595.5  12 12" xmlns="http://www.w3.org/2000/svg">
  <path d="M 720 1595.5  C 723.36 1595.5  726 1598.14  726 1601.5  C 726 1604.86  723.36 1607.5  720 1607.5  C 716.64 1607.5  714 1604.86  714 1601.5  C 714 1598.14  716.64 1595.5  720 1595.5  Z " fill-rule="nonzero" fill="#ffffff" stroke="none" />
  <path d="M 720 1596  C 723.08 1596  725.5 1598.42  725.5 1601.5  C 725.5 1604.58  723.08 1607  720 1607  C 716.92 1607  714.5 1604.58  714.5 1601.5  C 714.5 1598.42  716.92 1596  720 1596  Z " stroke-width="1" stroke="#797979" fill="none" />
  <path d="M 720 1604.5  C 718.32 1604.5  717 1603.18  717 1601.5  C 717 1599.82  718.32 1598.5  720 1598.5  C 721.68 1598.5  723 1599.82  723 1601.5  C 723 1603.18  721.68 1604.5  720 1604.5  " fill-rule="nonzero" fill="#797979" stroke="none" />
</svg>