<?xml version="1.0" encoding="utf-8"?>
<svg version="1.1" xmlns:xlink="http://www.w3.org/1999/xlink" width="12px" height="12px" viewBox="1116 371.5  12 12" xmlns="http://www.w3.org/2000/svg">
  <path d="M 1122 371.5  C 1125.36 371.5  1128 374.14  1128 377.5  C 1128 380.86  1125.36 383.5  1122 383.5  C 1118.64 383.5  1116 380.86  1116 377.5  C 1116 374.14  1118.64 371.5  1122 371.5  Z " fill-rule="nonzero" fill="#ffffff" stroke="none" />
  <path d="M 1122 372  C 1125.08 372  1127.5 374.42  1127.5 377.5  C 1127.5 380.58  1125.08 383  1122 383  C 1118.92 383  1116.5 380.58  1116.5 377.5  C 1116.5 374.42  1118.92 372  1122 372  Z " stroke-width="1" stroke="#797979" fill="none" />
  <path d="M 1122 380.5  C 1120.32 380.5  1119 379.18  1119 377.5  C 1119 375.82  1120.32 374.5  1122 374.5  C 1123.68 374.5  1125 375.82  1125 377.5  C 1125 379.18  1123.68 380.5  1122 380.5  " fill-rule="nonzero" fill="#797979" stroke="none" />
</svg>