<?xml version="1.0" encoding="utf-8"?>
<svg version="1.1" xmlns:xlink="http://www.w3.org/1999/xlink" width="12px" height="12px" viewBox="994 371.5  12 12" xmlns="http://www.w3.org/2000/svg">
  <path d="M 1000 371.5  C 1003.36 371.5  1006 374.14  1006 377.5  C 1006 380.86  1003.36 383.5  1000 383.5  C 996.64 383.5  994 380.86  994 377.5  C 994 374.14  996.64 371.5  1000 371.5  Z " fill-rule="nonzero" fill="#ffffff" stroke="none" />
  <path d="M 1000 372  C 1003.08 372  1005.5 374.42  1005.5 377.5  C 1005.5 380.58  1003.08 383  1000 383  C 996.92 383  994.5 380.58  994.5 377.5  C 994.5 374.42  996.92 372  1000 372  Z " stroke-width="1" stroke="#797979" fill="none" />
  <path d="M 1000 380.5  C 998.32 380.5  997 379.18  997 377.5  C 997 375.82  998.32 374.5  1000 374.5  C 1001.68 374.5  1003 375.82  1003 377.5  C 1003 379.18  1001.68 380.5  1000 380.5  " fill-rule="nonzero" fill="#797979" stroke="none" />
</svg>