<?xml version="1.0" encoding="utf-8"?>
<svg version="1.1" xmlns:xlink="http://www.w3.org/1999/xlink" width="953px" height="72px" xmlns="http://www.w3.org/2000/svg">
  <defs>
    <mask fill="white" id="clip635">
      <path d="M 947.437743190662 0  C 950.509692338521 0  953 0.377759742187501  953 0.84375  L 953 71.15625  C 953 71.6222401875  950.509692338521 72  947.437743190662 72  L 5.56225680933852 72  C 2.49030719795719 72  0 71.6222401875  0 71.15625  L 0 0.84375  C 0 0.377759742187501  2.49030719795719 0  5.56225680933852 0  L 947.437743190662 0  Z " fill-rule="evenodd" />
    </mask>
  </defs>
  <g transform="matrix(1 0 0 1 -87 -549 )">
    <path d="M 947.437743190662 0  C 950.509692338521 0  953 0.377759742187501  953 0.84375  L 953 71.15625  C 953 71.6222401875  950.509692338521 72  947.437743190662 72  L 5.56225680933852 72  C 2.49030719795719 72  0 71.6222401875  0 71.15625  L 0 0.84375  C 0 0.377759742187501  2.49030719795719 0  5.56225680933852 0  L 947.437743190662 0  Z " fill-rule="nonzero" fill="#ffffff" stroke="none" fill-opacity="0" transform="matrix(1 0 0 1 87 549 )" />
    <path d="M 947.437743190662 0  C 950.509692338521 0  953 0.377759742187501  953 0.84375  L 953 71.15625  C 953 71.6222401875  950.509692338521 72  947.437743190662 72  L 5.56225680933852 72  C 2.49030719795719 72  0 71.6222401875  0 71.15625  L 0 0.84375  C 0 0.377759742187501  2.49030719795719 0  5.56225680933852 0  L 947.437743190662 0  Z " stroke-width="4" stroke-dasharray="18,8,4,8,4,8" stroke="#e34d59" fill="none" transform="matrix(1 0 0 1 87 549 )" mask="url(#clip635)" />
  </g>
</svg>