<?xml version="1.0" encoding="utf-8"?>
<svg version="1.1" xmlns:xlink="http://www.w3.org/1999/xlink" width="1159px" height="917px" xmlns="http://www.w3.org/2000/svg">
  <defs>
    <mask fill="white" id="clip479">
      <path d="M 1152.23540856031 0  C 1155.97138868872 0  1159 4.81119004980471  1159 10.74609375  L 1159 906.25390625  C 1159 912.188809054688  1155.97138868872 917  1152.23540856031 917  L 6.76459143968872 917  C 3.02861074756809 917  0 912.188809054688  0 906.25390625  L 0 10.74609375  C 0 4.81119004980471  3.02861074756809 0  6.76459143968872 0  L 1152.23540856031 0  Z " fill-rule="evenodd" />
    </mask>
  </defs>
  <g transform="matrix(1 0 0 1 -80 -3354 )">
    <path d="M 1152.23540856031 0  C 1155.97138868872 0  1159 4.81119004980471  1159 10.74609375  L 1159 906.25390625  C 1159 912.188809054688  1155.97138868872 917  1152.23540856031 917  L 6.76459143968872 917  C 3.02861074756809 917  0 912.188809054688  0 906.25390625  L 0 10.74609375  C 0 4.81119004980471  3.02861074756809 0  6.76459143968872 0  L 1152.23540856031 0  Z " fill-rule="nonzero" fill="#ffffff" stroke="none" fill-opacity="0" transform="matrix(1 0 0 1 80 3354 )" />
    <path d="M 1152.23540856031 0  C 1155.97138868872 0  1159 4.81119004980471  1159 10.74609375  L 1159 906.25390625  C 1159 912.188809054688  1155.97138868872 917  1152.23540856031 917  L 6.76459143968872 917  C 3.02861074756809 917  0 912.188809054688  0 906.25390625  L 0 10.74609375  C 0 4.81119004980471  3.02861074756809 0  6.76459143968872 0  L 1152.23540856031 0  Z " stroke-width="4" stroke-dasharray="18,8,4,8,4,8" stroke="#e34d59" fill="none" transform="matrix(1 0 0 1 80 3354 )" mask="url(#clip479)" />
  </g>
</svg>