<?xml version="1.0" encoding="utf-8"?>
<svg version="1.1" xmlns:xlink="http://www.w3.org/1999/xlink" width="940px" height="580px" xmlns="http://www.w3.org/2000/svg">
  <defs>
    <mask fill="white" id="clip480">
      <path d="M 934.513618677043 0  C 937.543662957198 0  940 3.04306458984376  940 6.796875  L 940 573.203125  C 940 576.95693484375  937.543662957198 580  934.513618677043 580  L 5.4863813229572 580  C 2.45633658560311 580  0 576.95693484375  0 573.203125  L 0 6.796875  C 0 3.04306458984376  2.45633658560311 0  5.4863813229572 0  L 934.513618677043 0  Z " fill-rule="evenodd" />
    </mask>
  </defs>
  <g transform="matrix(1 0 0 1 -80 -4880 )">
    <path d="M 934.513618677043 0  C 937.543662957198 0  940 3.04306458984376  940 6.796875  L 940 573.203125  C 940 576.95693484375  937.543662957198 580  934.513618677043 580  L 5.4863813229572 580  C 2.45633658560311 580  0 576.95693484375  0 573.203125  L 0 6.796875  C 0 3.04306458984376  2.45633658560311 0  5.4863813229572 0  L 934.513618677043 0  Z " fill-rule="nonzero" fill="#ffffff" stroke="none" fill-opacity="0" transform="matrix(1 0 0 1 80 4880 )" />
    <path d="M 934.513618677043 0  C 937.543662957198 0  940 3.04306458984376  940 6.796875  L 940 573.203125  C 940 576.95693484375  937.543662957198 580  934.513618677043 580  L 5.4863813229572 580  C 2.45633658560311 580  0 576.95693484375  0 573.203125  L 0 6.796875  C 0 3.04306458984376  2.45633658560311 0  5.4863813229572 0  L 934.513618677043 0  Z " stroke-width="4" stroke-dasharray="18,8,4,8,4,8" stroke="#e34d59" fill="none" transform="matrix(1 0 0 1 80 4880 )" mask="url(#clip480)" />
  </g>
</svg>