<?xml version="1.0" encoding="utf-8"?>
<svg version="1.1" xmlns:xlink="http://www.w3.org/1999/xlink" width="953px" height="546px" xmlns="http://www.w3.org/2000/svg">
  <defs>
    <mask fill="white" id="clip634">
      <path d="M 947.437743190662 0  C 950.509692338521 0  953 2.86467804492189  953 6.3984375  L 953 539.6015625  C 953 543.135321421875  950.509692338521 546  947.437743190662 546  L 5.56225680933852 546  C 2.49030719795719 546  0 543.135321421875  0 539.6015625  L 0 6.3984375  C 0 2.86467804492189  2.49030719795719 0  5.56225680933852 0  L 947.437743190662 0  Z " fill-rule="evenodd" />
    </mask>
  </defs>
  <g transform="matrix(1 0 0 1 -80 -1294 )">
    <path d="M 947.437743190662 0  C 950.509692338521 0  953 2.86467804492189  953 6.3984375  L 953 539.6015625  C 953 543.135321421875  950.509692338521 546  947.437743190662 546  L 5.56225680933852 546  C 2.49030719795719 546  0 543.135321421875  0 539.6015625  L 0 6.3984375  C 0 2.86467804492189  2.49030719795719 0  5.56225680933852 0  L 947.437743190662 0  Z " fill-rule="nonzero" fill="#ffffff" stroke="none" fill-opacity="0" transform="matrix(1 0 0 1 80 1294 )" />
    <path d="M 947.437743190662 0  C 950.509692338521 0  953 2.86467804492189  953 6.3984375  L 953 539.6015625  C 953 543.135321421875  950.509692338521 546  947.437743190662 546  L 5.56225680933852 546  C 2.49030719795719 546  0 543.135321421875  0 539.6015625  L 0 6.3984375  C 0 2.86467804492189  2.49030719795719 0  5.56225680933852 0  L 947.437743190662 0  Z " stroke-width="4" stroke-dasharray="18,8,4,8,4,8" stroke="#e34d59" fill="none" transform="matrix(1 0 0 1 80 1294 )" mask="url(#clip634)" />
  </g>
</svg>