<?xml version="1.0" encoding="utf-8"?>
<svg version="1.1" xmlns:xlink="http://www.w3.org/1999/xlink" width="953px" height="250px" xmlns="http://www.w3.org/2000/svg">
  <defs>
    <mask fill="white" id="clip478">
      <path d="M 947.437743190662 0  C 950.509692338521 0  953 1.31166577148438  953 2.9296875  L 953 247.0703125  C 953 248.688333984375  950.509692338521 250  947.437743190662 250  L 5.56225680933852 250  C 2.49030719795719 250  0 248.688333984375  0 247.0703125  L 0 2.9296875  C 0 1.31166577148438  2.49030719795719 0  5.56225680933852 0  L 947.437743190662 0  Z " fill-rule="evenodd" />
    </mask>
  </defs>
  <g transform="matrix(1 0 0 1 -80 -2480 )">
    <path d="M 947.437743190662 0  C 950.509692338521 0  953 1.31166577148438  953 2.9296875  L 953 247.0703125  C 953 248.688333984375  950.509692338521 250  947.437743190662 250  L 5.56225680933852 250  C 2.49030719795719 250  0 248.688333984375  0 247.0703125  L 0 2.9296875  C 0 1.31166577148438  2.49030719795719 0  5.56225680933852 0  L 947.437743190662 0  Z " fill-rule="nonzero" fill="#ffffff" stroke="none" fill-opacity="0" transform="matrix(1 0 0 1 80 2480 )" />
    <path d="M 947.437743190662 0  C 950.509692338521 0  953 1.31166577148438  953 2.9296875  L 953 247.0703125  C 953 248.688333984375  950.509692338521 250  947.437743190662 250  L 5.56225680933852 250  C 2.49030719795719 250  0 248.688333984375  0 247.0703125  L 0 2.9296875  C 0 1.31166577148438  2.49030719795719 0  5.56225680933852 0  L 947.437743190662 0  Z " stroke-width="4" stroke-dasharray="18,8,4,8,4,8" stroke="#e34d59" fill="none" transform="matrix(1 0 0 1 80 2480 )" mask="url(#clip478)" />
  </g>
</svg>