<?xml version="1.0" encoding="utf-8"?>
<svg version="1.1" xmlns:xlink="http://www.w3.org/1999/xlink" width="940px" height="280px" xmlns="http://www.w3.org/2000/svg">
  <defs>
    <mask fill="white" id="clip481">
      <path d="M 934.513618677043 0  C 937.543662957198 0  940 1.46906566406251  940 3.28125  L 940 276.71875  C 940 278.5309340625  937.543662957198 280  934.513618677043 280  L 5.4863813229572 280  C 2.45633658560311 280  0 278.5309340625  0 276.71875  L 0 3.28125  C 0 1.46906566406251  2.45633658560311 0  5.4863813229572 0  L 934.513618677043 0  Z " fill-rule="evenodd" />
    </mask>
  </defs>
  <g transform="matrix(1 0 0 1 -80 -6140 )">
    <path d="M 934.513618677043 0  C 937.543662957198 0  940 1.46906566406251  940 3.28125  L 940 276.71875  C 940 278.5309340625  937.543662957198 280  934.513618677043 280  L 5.4863813229572 280  C 2.45633658560311 280  0 278.5309340625  0 276.71875  L 0 3.28125  C 0 1.46906566406251  2.45633658560311 0  5.4863813229572 0  L 934.513618677043 0  Z " fill-rule="nonzero" fill="#ffffff" stroke="none" fill-opacity="0" transform="matrix(1 0 0 1 80 6140 )" />
    <path d="M 934.513618677043 0  C 937.543662957198 0  940 1.46906566406251  940 3.28125  L 940 276.71875  C 940 278.5309340625  937.543662957198 280  934.513618677043 280  L 5.4863813229572 280  C 2.45633658560311 280  0 278.5309340625  0 276.71875  L 0 3.28125  C 0 1.46906566406251  2.45633658560311 0  5.4863813229572 0  L 934.513618677043 0  Z " stroke-width="4" stroke-dasharray="18,8,4,8,4,8" stroke="#e34d59" fill="none" transform="matrix(1 0 0 1 80 6140 )" mask="url(#clip481)" />
  </g>
</svg>