<?xml version="1.0" encoding="utf-8"?>
<svg version="1.1" xmlns:xlink="http://www.w3.org/1999/xlink" width="12px" height="12px" viewBox="237 1395.5  12 12" xmlns="http://www.w3.org/2000/svg">
  <path d="M 243 1395.5  C 246.36 1395.5  249 1398.14  249 1401.5  C 249 1404.86  246.36 1407.5  243 1407.5  C 239.64 1407.5  237 1404.86  237 1401.5  C 237 1398.14  239.64 1395.5  243 1395.5  Z " fill-rule="nonzero" fill="#f0f0f0" stroke="none" />
  <path d="M 243 1396  C 246.08 1396  248.5 1398.42  248.5 1401.5  C 248.5 1404.58  246.08 1407  243 1407  C 239.92 1407  237.5 1404.58  237.5 1401.5  C 237.5 1398.42  239.92 1396  243 1396  Z " stroke-width="1" stroke="#797979" fill="none" />
  <path d="M 243 1404.5  C 241.32 1404.5  240 1403.18  240 1401.5  C 240 1399.82  241.32 1398.5  243 1398.5  C 244.68 1398.5  246 1399.82  246 1401.5  C 246 1403.18  244.68 1404.5  243 1404.5  " fill-rule="nonzero" fill="#797979" stroke="none" />
</svg>