<?xml version="1.0" encoding="utf-8"?>
<svg version="1.1" xmlns:xlink="http://www.w3.org/1999/xlink" width="12px" height="12px" viewBox="403 1395.5  12 12" xmlns="http://www.w3.org/2000/svg">
  <path d="M 409 1395.5  C 412.36 1395.5  415 1398.14  415 1401.5  C 415 1404.86  412.36 1407.5  409 1407.5  C 405.64 1407.5  403 1404.86  403 1401.5  C 403 1398.14  405.64 1395.5  409 1395.5  Z " fill-rule="nonzero" fill="#f0f0f0" stroke="none" />
  <path d="M 409 1396  C 412.08 1396  414.5 1398.42  414.5 1401.5  C 414.5 1404.58  412.08 1407  409 1407  C 405.92 1407  403.5 1404.58  403.5 1401.5  C 403.5 1398.42  405.92 1396  409 1396  Z " stroke-width="1" stroke="#797979" fill="none" />
  <path d="M 409 1404.5  C 407.32 1404.5  406 1403.18  406 1401.5  C 406 1399.82  407.32 1398.5  409 1398.5  C 410.68 1398.5  412 1399.82  412 1401.5  C 412 1403.18  410.68 1404.5  409 1404.5  " fill-rule="nonzero" fill="#797979" stroke="none" />
</svg>