<?xml version="1.0" encoding="utf-8"?>
<svg version="1.1" xmlns:xlink="http://www.w3.org/1999/xlink" width="12px" height="12px" viewBox="319 1395.5  12 12" xmlns="http://www.w3.org/2000/svg">
  <path d="M 325 1395.5  C 328.36 1395.5  331 1398.14  331 1401.5  C 331 1404.86  328.36 1407.5  325 1407.5  C 321.64 1407.5  319 1404.86  319 1401.5  C 319 1398.14  321.64 1395.5  325 1395.5  Z " fill-rule="nonzero" fill="#f0f0f0" stroke="none" />
  <path d="M 325 1396  C 328.08 1396  330.5 1398.42  330.5 1401.5  C 330.5 1404.58  328.08 1407  325 1407  C 321.92 1407  319.5 1404.58  319.5 1401.5  C 319.5 1398.42  321.92 1396  325 1396  Z " stroke-width="1" stroke="#797979" fill="none" />
  <path d="M 325 1404.5  C 323.32 1404.5  322 1403.18  322 1401.5  C 322 1399.82  323.32 1398.5  325 1398.5  C 326.68 1398.5  328 1399.82  328 1401.5  C 328 1403.18  326.68 1404.5  325 1404.5  " fill-rule="nonzero" fill="#797979" stroke="none" />
</svg>