<?xml version="1.0" encoding="utf-8"?>
<svg version="1.1" xmlns:xlink="http://www.w3.org/1999/xlink" width="12px" height="12px" viewBox="238 4969.5  12 12" xmlns="http://www.w3.org/2000/svg">
  <path d="M 244 4969.5  C 247.36 4969.5  250 4972.14  250 4975.5  C 250 4978.86  247.36 4981.5  244 4981.5  C 240.64 4981.5  238 4978.86  238 4975.5  C 238 4972.14  240.64 4969.5  244 4969.5  Z " fill-rule="nonzero" fill="#f0f0f0" stroke="none" />
  <path d="M 244 4970  C 247.08 4970  249.5 4972.42  249.5 4975.5  C 249.5 4978.58  247.08 4981  244 4981  C 240.92 4981  238.5 4978.58  238.5 4975.5  C 238.5 4972.42  240.92 4970  244 4970  Z " stroke-width="1" stroke="#797979" fill="none" />
  <path d="M 244 4978.5  C 242.32 4978.5  241 4977.18  241 4975.5  C 241 4973.82  242.32 4972.5  244 4972.5  C 245.68 4972.5  247 4973.82  247 4975.5  C 247 4977.18  245.68 4978.5  244 4978.5  " fill-rule="nonzero" fill="#797979" stroke="none" />
</svg>