<?xml version="1.0" encoding="utf-8"?>
<svg version="1.1" xmlns:xlink="http://www.w3.org/1999/xlink" width="12px" height="12px" viewBox="320 4969.5  12 12" xmlns="http://www.w3.org/2000/svg">
  <path d="M 326 4969.5  C 329.36 4969.5  332 4972.14  332 4975.5  C 332 4978.86  329.36 4981.5  326 4981.5  C 322.64 4981.5  320 4978.86  320 4975.5  C 320 4972.14  322.64 4969.5  326 4969.5  Z " fill-rule="nonzero" fill="#f0f0f0" stroke="none" />
  <path d="M 326 4970  C 329.08 4970  331.5 4972.42  331.5 4975.5  C 331.5 4978.58  329.08 4981  326 4981  C 322.92 4981  320.5 4978.58  320.5 4975.5  C 320.5 4972.42  322.92 4970  326 4970  Z " stroke-width="1" stroke="#797979" fill="none" />
  <path d="M 326 4978.5  C 324.32 4978.5  323 4977.18  323 4975.5  C 323 4973.82  324.32 4972.5  326 4972.5  C 327.68 4972.5  329 4973.82  329 4975.5  C 329 4977.18  327.68 4978.5  326 4978.5  " fill-rule="nonzero" fill="#797979" stroke="none" />
</svg>