<?xml version="1.0" encoding="utf-8"?>
<svg version="1.1" xmlns:xlink="http://www.w3.org/1999/xlink" width="12px" height="12px" viewBox="320 3412.5  12 12" xmlns="http://www.w3.org/2000/svg">
  <path d="M 326 3412.5  C 329.36 3412.5  332 3415.14  332 3418.5  C 332 3421.86  329.36 3424.5  326 3424.5  C 322.64 3424.5  320 3421.86  320 3418.5  C 320 3415.14  322.64 3412.5  326 3412.5  Z " fill-rule="nonzero" fill="#ffffff" stroke="none" />
  <path d="M 326 3413  C 329.08 3413  331.5 3415.42  331.5 3418.5  C 331.5 3421.58  329.08 3424  326 3424  C 322.92 3424  320.5 3421.58  320.5 3418.5  C 320.5 3415.42  322.92 3413  326 3413  Z " stroke-width="1" stroke="#797979" fill="none" />
  <path d="M 326 3421.5  C 324.32 3421.5  323 3420.18  323 3418.5  C 323 3416.82  324.32 3415.5  326 3415.5  C 327.68 3415.5  329 3416.82  329 3418.5  C 329 3420.18  327.68 3421.5  326 3421.5  " fill-rule="nonzero" fill="#797979" stroke="none" />
</svg>