<?xml version="1.0" encoding="utf-8"?>
<svg version="1.1" xmlns:xlink="http://www.w3.org/1999/xlink" width="12px" height="12px" viewBox="238 3412.5  12 12" xmlns="http://www.w3.org/2000/svg">
  <path d="M 244 3412.5  C 247.36 3412.5  250 3415.14  250 3418.5  C 250 3421.86  247.36 3424.5  244 3424.5  C 240.64 3424.5  238 3421.86  238 3418.5  C 238 3415.14  240.64 3412.5  244 3412.5  Z " fill-rule="nonzero" fill="#ffffff" stroke="none" />
  <path d="M 244 3413  C 247.08 3413  249.5 3415.42  249.5 3418.5  C 249.5 3421.58  247.08 3424  244 3424  C 240.92 3424  238.5 3421.58  238.5 3418.5  C 238.5 3415.42  240.92 3413  244 3413  Z " stroke-width="1" stroke="#797979" fill="none" />
  <path d="M 244 3421.5  C 242.32 3421.5  241 3420.18  241 3418.5  C 241 3416.82  242.32 3415.5  244 3415.5  C 245.68 3415.5  247 3416.82  247 3418.5  C 247 3420.18  245.68 3421.5  244 3421.5  " fill-rule="nonzero" fill="#797979" stroke="none" />
</svg>