<?xml version="1.0" encoding="utf-8"?>
<svg version="1.1" xmlns:xlink="http://www.w3.org/1999/xlink" width="247px" height="178px" xmlns="http://www.w3.org/2000/svg">
  <defs>
    <mask fill="white" id="clip468">
      <path d="M 225.675097276265 0  C 226.406820735409 0  227 0.828972767578128  227 1.8515625  L 227 156.1484375  C 227 157.171027078125  226.406820735409 158  225.675097276265 158  L 1.32490272373541 158  C 0.593179154182878 158  0 157.171027078125  0 156.1484375  L 0 1.8515625  C 0 0.828972767578128  0.593179154182878 0  1.32490272373541 0  L 225.675097276265 0  Z " fill-rule="evenodd" />
    </mask>
    <filter x="544px" y="170px" width="247px" height="178px" filterUnits="userSpaceOnUse" id="filter469">
      <feOffset dx="5" dy="5" in="SourceAlpha" result="shadowOffsetInner" />
      <feGaussianBlur stdDeviation="5" in="shadowOffsetInner" result="shadowGaussian" />
      <feComposite in2="shadowGaussian" operator="atop" in="SourceAlpha" result="shadowComposite" />
      <feColorMatrix type="matrix" values="0 0 0 0 0  0 0 0 0 0  0 0 0 0 0  0 0 0 0.313725490196078 0  " in="shadowComposite" />
    </filter>
    <g id="widget470">
      <path d="M 225.675097276265 0  C 226.406820735409 0  227 0.828972767578128  227 1.8515625  L 227 156.1484375  C 227 157.171027078125  226.406820735409 158  225.675097276265 158  L 1.32490272373541 158  C 0.593179154182878 158  0 157.171027078125  0 156.1484375  L 0 1.8515625  C 0 0.828972767578128  0.593179154182878 0  1.32490272373541 0  L 225.675097276265 0  Z " fill-rule="nonzero" fill="#ffffff" stroke="none" transform="matrix(1 0 0 1 549 175 )" />
      <path d="M 225.675097276265 0  C 226.406820735409 0  227 0.828972767578128  227 1.8515625  L 227 156.1484375  C 227 157.171027078125  226.406820735409 158  225.675097276265 158  L 1.32490272373541 158  C 0.593179154182878 158  0 157.171027078125  0 156.1484375  L 0 1.8515625  C 0 0.828972767578128  0.593179154182878 0  1.32490272373541 0  L 225.675097276265 0  Z " stroke-width="2" stroke="#000000" fill="none" transform="matrix(1 0 0 1 549 175 )" mask="url(#clip468)" />
    </g>
  </defs>
  <g transform="matrix(1 0 0 1 -544 -170 )">
    <use xlink:href="#widget470" filter="url(#filter469)" />
    <use xlink:href="#widget470" />
  </g>
</svg>