<?xml version="1.0" encoding="utf-8"?>
<svg version="1.1" xmlns:xlink="http://www.w3.org/1999/xlink" width="19px" height="21px" xmlns="http://www.w3.org/2000/svg">
  <g transform="matrix(1 0 0 1 -578 -161 )">
    <path d="M 8.34675480769231 1.962890625  C 8.06510416666667 1.654296875  7.71875 1.5  7.30769230769231 1.5  C 6.9042467948718 1.5  6.55979567307692 1.646484375  6.27433894230769 1.939453125  C 5.98888221153846 2.232421875  5.84615384615385 2.5859375  5.84615384615385 3  L 5.84615384615385 9  L 5.84615384615385 13.5  L 4.12199519230769 11.1328125  C 3.80989583333333 10.7109375  3.40264423076923 10.5  2.90024038461539 10.5  C 2.50440705128205 10.5  2.16566506410256 10.6484375  1.88401442307692 10.9453125  C 1.60236378205128 11.2421875  1.46153846153846 11.59375  1.46153846153846 12  C 1.46153846153846 12.3359375  1.5604967948718 12.63671875  1.75841346153846 12.90234375  L 6.14302884615385 18.90234375  C 6.43229166666667 19.30078125  6.82051282051282 19.5  7.30769230769231 19.5  L 15.5060096153846 19.5  C 15.6734775641026 19.5  15.8238181089744 19.447265625  15.95703125 19.341796875  C 16.0902443910256 19.236328125  16.1758814102564 19.1015625  16.2139423076923 18.9375  L 17.2644230769231 14.625  C 17.4471153846154 13.875  17.5384615384615 13.1171875  17.5384615384615 12.3515625  L 17.5384615384615 9.80859375  C 17.5384615384615 9.48828125  17.431891025641 9.2109375  17.21875 8.9765625  C 17.005608974359 8.7421875  16.7467948717949 8.625  16.4423076923077 8.625  C 16.1378205128205 8.625  15.8790064102564 8.734375  15.6658653846154 8.953125  C 15.4527243589744 9.171875  15.3461538461538 9.4375  15.3461538461538 9.75  L 14.9807692307692 9.75  L 14.9807692307692 9.03515625  C 14.9807692307692 8.66015625  14.8589743589744 8.341796875  14.6153846153846 8.080078125  C 14.3717948717949 7.818359375  14.0673076923077 7.6875  13.7019230769231 7.6875  C 13.3517628205128 7.6875  13.0510817307692 7.81640625  12.7998798076923 8.07421875  C 12.5486778846154 8.33203125  12.4230769230769 8.640625  12.4230769230769 9  L 12.4230769230769 9.75  L 12.0576923076923 9.75  L 12.0576923076923 8.6953125  C 12.0576923076923 8.265625  11.9168669871795 7.896484375  11.6352163461538 7.587890625  C 11.3535657051282 7.279296875  11.0072115384615 7.125  10.5961538461538 7.125  C 10.1927083333333 7.125  9.84825721153846 7.271484375  9.56280048076923 7.564453125  C 9.27734375 7.857421875  9.13461538461539 8.2109375  9.13461538461539 8.625  L 9.13461538461539 9.75  L 8.76923076923077 9.75  L 8.76923076923077 3.0703125  C 8.76923076923077 2.640625  8.62840544871795 2.271484375  8.34675480769231 1.962890625  Z M 5.24098557692308 0.878906250000001  C 5.81189903846154 0.292968750000001  6.50080128205128 0  7.30769230769231 0  C 8.12219551282051 0  8.81300080128205 0.302734375000001  9.38010817307692 0.908203125000001  C 9.9472155448718 1.513671875  10.2307692307692 2.234375  10.2307692307692 3.0703125  L 10.2307692307692 5.6484375  C 10.3982371794872 5.6328125  10.5200320512821 5.625  10.5961538461538 5.625  C 11.3497596153846 5.625  12.0082131410256 5.89453125  12.5715144230769 6.43359375  C 12.9292868589744 6.26953125  13.3060897435897 6.1875  13.7019230769231 6.1875  C 14.5620993589744 6.1875  15.2624198717949 6.52734375  15.8028846153846 7.20703125  C 16.0084134615385 7.15234375  16.2215544871795 7.125  16.4423076923077 7.125  C 17.1578525641026 7.125  17.7630208333333 7.388671875  18.2578125 7.916015625  C 18.7526041666667 8.443359375  19 9.07421875  19 9.80859375  L 19 12.3515625  C 19 13.2578125  18.8934294871795 14.13671875  18.6802884615385 14.98828125  L 17.6298076923077 19.30078125  C 17.5080128205128 19.80078125  17.2491987179487 20.208984375  16.8533653846154 20.525390625  C 16.4575320512821 20.841796875  16.0084134615385 21  15.5060096153846 21  L 7.30769230769231 21  C 6.85096153846154 21  6.41516426282051 20.892578125  6.00030048076923 20.677734375  C 5.58543669871795 20.462890625  5.24098557692308 20.171875  4.96694711538462 19.8046875  L 0.582331730769231 13.8046875  C 0.194110576923077 13.2734375  0 12.671875  0 12  C 0 11.1796875  0.283553685897436 10.474609375  0.850661057692308 9.884765625  C 1.41776842948718 9.294921875  2.10096153846154 9  2.90024038461539 9  C 3.44070512820513 9  3.9354967948718 9.13671875  4.38461538461539 9.41015625  L 4.38461538461539 3  C 4.38461538461539 2.171875  4.67007211538462 1.46484375  5.24098557692308 0.878906250000001  Z M 8.40384615384615 16.5  L 8.76923076923077 16.5  L 8.76923076923077 12  L 8.40384615384615 12  L 8.40384615384615 16.5  Z M 11.3269230769231 16.5  L 11.6923076923077 16.5  L 11.6923076923077 12  L 11.3269230769231 12  L 11.3269230769231 16.5  Z M 14.25 16.5  L 14.6153846153846 16.5  L 14.6153846153846 12  L 14.25 12  L 14.25 16.5  Z " fill-rule="nonzero" fill="#000000" stroke="none" transform="matrix(1 0 0 1 578 161 )" />
  </g>
</svg>