<?xml version="1.0" encoding="utf-8"?>
<svg version="1.1" xmlns:xlink="http://www.w3.org/1999/xlink" width="936px" height="287px" xmlns="http://www.w3.org/2000/svg">
  <defs>
    <mask fill="white" id="clip465">
      <path d="M 0 4.64347826086957  C 0 2.07895603043478  3.41755974166667 0  7.63333333333333 0  L 908.366666666667 0  C 912.582440258333 0  916 2.07895603043478  916 4.64347826086957  L 916 262.35652173913  C 916 264.921043969565  912.582440258333 267  908.366666666667 267  L 7.63333333333333 267  C 3.41755974166667 267  0 264.921043969565  0 262.35652173913  L 0 4.64347826086957  Z " fill-rule="evenodd" />
    </mask>
    <filter x="-5px" y="-5px" width="936px" height="287px" filterUnits="userSpaceOnUse" id="filter466">
      <feOffset dx="5" dy="5" in="SourceAlpha" result="shadowOffsetInner" />
      <feGaussianBlur stdDeviation="5" in="shadowOffsetInner" result="shadowGaussian" />
      <feComposite in2="shadowGaussian" operator="atop" in="SourceAlpha" result="shadowComposite" />
      <feColorMatrix type="matrix" values="0 0 0 0 0  0 0 0 0 0  0 0 0 0 0  0 0 0 0.313725490196078 0  " in="shadowComposite" />
    </filter>
    <g id="widget467">
      <path d="M 0 4.64347826086957  C 0 2.07895603043478  3.41755974166667 0  7.63333333333333 0  L 908.366666666667 0  C 912.582440258333 0  916 2.07895603043478  916 4.64347826086957  L 916 262.35652173913  C 916 264.921043969565  912.582440258333 267  908.366666666667 267  L 7.63333333333333 267  C 3.41755974166667 267  0 264.921043969565  0 262.35652173913  L 0 4.64347826086957  Z " fill-rule="nonzero" fill="#ffffff" stroke="none" />
      <path d="M 0 4.64347826086957  C 0 2.07895603043478  3.41755974166667 0  7.63333333333333 0  L 908.366666666667 0  C 912.582440258333 0  916 2.07895603043478  916 4.64347826086957  L 916 262.35652173913  C 916 264.921043969565  912.582440258333 267  908.366666666667 267  L 7.63333333333333 267  C 3.41755974166667 267  0 264.921043969565  0 262.35652173913  L 0 4.64347826086957  Z " stroke-width="2" stroke="#000000" fill="none" mask="url(#clip465)" />
    </g>
  </defs>
  <g transform="matrix(1 0 0 1 5 5 )">
    <use xlink:href="#widget467" filter="url(#filter466)" />
    <use xlink:href="#widget467" />
  </g>
</svg>