<?xml version="1.0" encoding="utf-8"?>
<svg version="1.1" xmlns:xlink="http://www.w3.org/1999/xlink" width="100px" height="60px" xmlns="http://www.w3.org/2000/svg">
  <g transform="matrix(1 0 0 1 -593 -516 )">
    <path d="M 643 516  C 671 516  693 529.2  693 546  C 693 562.8  671 576  643 576  C 615 576  593 562.8  593 546  C 593 529.2  615 516  643 516  Z " fill-rule="nonzero" fill="#ffffff" stroke="none" />
    <path d="M 643 516.5  C 670.72 516.5  692.5 529.48  692.5 546  C 692.5 562.52  670.72 575.5  643 575.5  C 615.28 575.5  593.5 562.52  593.5 546  C 593.5 529.48  615.28 516.5  643 516.5  Z " stroke-width="1" stroke="#797979" fill="none" />
  </g>
</svg>