<?xml version="1.0" encoding="utf-8"?>
<svg version="1.1" xmlns:xlink="http://www.w3.org/1999/xlink" width="100px" height="60px" xmlns="http://www.w3.org/2000/svg">
  <g transform="matrix(1 0 0 1 -698 -162 )">
    <path d="M 748 162  C 776 162  798 175.2  798 192  C 798 208.8  776 222  748 222  C 720 222  698 208.8  698 192  C 698 175.2  720 162  748 162  Z " fill-rule="nonzero" fill="#ffffff" stroke="none" />
    <path d="M 748 162.5  C 775.72 162.5  797.5 175.48  797.5 192  C 797.5 208.52  775.72 221.5  748 221.5  C 720.28 221.5  698.5 208.52  698.5 192  C 698.5 175.48  720.28 162.5  748 162.5  Z " stroke-width="1" stroke="#d9001b" fill="none" />
  </g>
</svg>