<?xml version="1.0" encoding="utf-8"?>
<svg version="1.1" xmlns:xlink="http://www.w3.org/1999/xlink" width="24px" height="26px" xmlns="http://www.w3.org/2000/svg">
  <g transform="matrix(1 0 0 1 -933 -401 )">
    <path d="M 10.5432692307692 2.43024553571428  C 10.1875 2.04817708333333  9.75 1.85714285714286  9.23076923076923 1.85714285714286  C 8.72115384615385 1.85714285714286  8.28605769230769 2.03850446428572  7.92548076923077 2.40122767857143  C 7.56490384615385 2.76395089285714  7.38461538461539 3.2016369047619  7.38461538461539 3.71428571428572  L 7.38461538461539 11.1428571428571  L 7.38461538461539 16.7142857142857  L 5.20673076923077 13.7834821428571  C 4.8125 13.2611607142857  4.29807692307692 13  3.66346153846154 13  C 3.16346153846154 13  2.73557692307692 13.1837797619048  2.37980769230769 13.5513392857143  C 2.02403846153846 13.9188988095238  1.84615384615385 14.3541666666667  1.84615384615385 14.8571428571429  C 1.84615384615385 15.2730654761905  1.97115384615385 15.6454613095238  2.22115384615385 15.9743303571429  L 7.75961538461539 23.4029017857143  C 8.125 23.8962053571429  8.61538461538462 24.1428571428571  9.23076923076923 24  L 19.5865384615385 24  C 19.7980769230769 24.1428571428571  19.9879807692308 24.0775669642857  20.15625 23.9469866071429  C 20.3245192307692 23.81640625  20.4326923076923 23.6495535714286  20.4807692307692 23.4464285714286  L 21.8076923076923 18.1071428571429  C 22.0384615384615 17.1785714285714  22.1538461538462 16.2403273809524  22.1538461538462 15.2924107142857  L 22.1538461538462 12.1439732142857  C 22.1538461538462 11.7473958333333  22.0192307692308 11.4040178571429  21.75 11.1138392857143  C 21.4807692307692 10.8236607142857  21.1538461538462 10.6785714285714  20.7692307692308 10.6785714285714  C 20.3846153846154 10.6785714285714  20.0576923076923 10.8139880952381  19.7884615384615 11.0848214285714  C 19.5192307692308 11.3556547619048  19.3846153846154 11.6845238095238  19.3846153846154 12.0714285714286  L 18.9230769230769 12.0714285714286  L 18.9230769230769 11.1863839285714  C 18.9230769230769 10.7220982142857  18.7692307692308 10.3279389880952  18.4615384615385 10.00390625  C 18.1538461538462 9.67987351190476  17.7692307692308 9.51785714285714  17.3076923076923 9.51785714285714  C 16.8653846153846 9.51785714285714  16.4855769230769 9.67745535714286  16.1682692307692 9.99665178571428  C 15.8509615384615 10.3158482142857  15.6923076923077 10.6979166666667  15.6923076923077 11.1428571428571  L 15.6923076923077 12.0714285714286  L 15.2307692307692 12.0714285714286  L 15.2307692307692 10.765625  C 15.2307692307692 10.233630952381  15.0528846153846 9.77659970238095  14.6971153846154 9.39453125  C 14.3413461538462 9.01246279761905  13.9038461538462 8.82142857142857  13.3846153846154 8.82142857142857  C 12.875 8.82142857142857  12.4399038461538 9.00279017857143  12.0793269230769 9.36551339285714  C 11.71875 9.72823660714286  11.5384615384615 10.1659226190476  11.5384615384615 10.6785714285714  L 11.5384615384615 12.0714285714286  L 11.0769230769231 12.0714285714286  L 11.0769230769231 3.80133928571428  C 11.0769230769231 3.26934523809524  10.8990384615385 2.81231398809524  10.5432692307692 2.43024553571428  Z M 6.62019230769231 1.08816964285714  C 7.34134615384616 0.362723214285716  8.21153846153846 0  9.23076923076923 0  C 10.2596153846154 0  11.1322115384615 0.374813988095239  11.8485576923077 1.12444196428572  C 12.5649038461538 1.87406994047619  12.9230769230769 2.76636904761904  12.9230769230769 3.80133928571428  L 12.9230769230769 6.99330357142857  C 13.1346153846154 6.97395833333333  13.2884615384615 6.96428571428572  13.3846153846154 6.96428571428572  C 14.3365384615385 6.96428571428572  15.1682692307692 7.29799107142857  15.8798076923077 7.96540178571428  C 16.3317307692308 7.76227678571428  16.8076923076923 7.66071428571428  17.3076923076923 7.66071428571428  C 18.3942307692308 7.66071428571428  19.2788461538462 8.08147321428572  19.9615384615385 8.92299107142857  C 20.2211538461538 8.85528273809524  20.4903846153846 8.82142857142857  20.7692307692308 8.82142857142857  C 21.6730769230769 8.82142857142857  22.4375 9.14787946428572  23.0625 9.80078125  C 23.6875 10.4536830357143  24 11.2347470238095  24 12.1439732142857  L 24 15.2924107142857  C 24 16.4144345238095  23.8653846153846 17.5026041666667  23.5961538461538 18.5569196428571  L 22.2692307692308 23.8962053571429  C 22.1153846153846 24.5152529761905  21.7884615384615 25.0206473214286  21.2884615384615 25.4123883928571  C 20.7884615384615 25.8041294642857  20.2211538461538 26  19.5865384615385 26  L 9.23076923076923 26  C 8.65384615384615 26  8.10336538461539 25.8670014880952  7.57932692307692 25.6010044642857  C 7.05528846153846 25.3350074404762  6.62019230769231 24.9747023809524  6.27403846153846 24.5200892857143  L 0.735576923076923 17.0915178571429  C 0.245192307692308 16.4337797619048  0 15.6889880952381  0 14.8571428571429  C 0 13.8415178571429  0.358173076923077 12.9685639880952  1.07451923076923 12.23828125  C 1.79086538461538 11.5079985119048  2.65384615384615 11.1428571428571  3.66346153846154 11.1428571428571  C 4.34615384615385 11.1428571428571  4.97115384615385 11.3121279761905  5.53846153846154 11.6506696428571  L 5.53846153846154 3.71428571428572  C 5.53846153846154 2.68898809523809  5.89903846153846 1.81361607142857  6.62019230769231 1.08816964285714  Z M 10.6153846153846 20.4285714285714  L 11.0769230769231 20.4285714285714  L 11.0769230769231 14.8571428571429  L 10.6153846153846 14.8571428571429  L 10.6153846153846 20.4285714285714  Z M 14.3076923076923 20.4285714285714  L 14.7692307692308 20.4285714285714  L 14.7692307692308 14.8571428571429  L 14.3076923076923 14.8571428571429  L 14.3076923076923 20.4285714285714  Z M 18 20.4285714285714  L 18.4615384615385 20.4285714285714  L 18.4615384615385 14.8571428571429  L 18 14.8571428571429  L 18 20.4285714285714  Z " fill-rule="nonzero" fill="#000000" stroke="none" transform="matrix(1 0 0 1 933 401 )" />
  </g>
</svg>