<?xml version="1.0" encoding="utf-8"?>
<svg version="1.1" xmlns:xlink="http://www.w3.org/1999/xlink" width="22px" height="20px" preserveAspectRatio="xMinYMid meet" viewBox="314 357  22 18" xmlns="http://www.w3.org/2000/svg">
  <g transform="matrix(-1 0 0 -1 650 732 )">
    <path d="M 325 362.5  A 3 3 0 0 0 322 365.5 A 3 3 0 0 0 325 368.5 A 3 3 0 0 0 328 365.5 A 3 3 0 0 0 325 362.5 Z M 325 363.5  A 2 2 0 0 1 327 365.5 A 2 2 0 0 1 325 367.5 A 2 2 0 0 1 323 365.5 A 2 2 0 0 1 325 363.5 Z " fill-rule="nonzero" fill="#d7d7d7" stroke="none" />
    <path d="M 297 365.5  L 323 365.5  " stroke-width="1" stroke="#d7d7d7" fill="none" />
  </g>
</svg>