<?xml version="1.0" encoding="utf-8"?>
<svg version="1.1" xmlns:xlink="http://www.w3.org/1999/xlink" width="4px" height="2px" preserveAspectRatio="xMinYMid meet" viewBox="296 405  4 0" xmlns="http://www.w3.org/2000/svg">
  <path d="M 325 401.5  A 3 3 0 0 0 322 404.5 A 3 3 0 0 0 325 407.5 A 3 3 0 0 0 328 404.5 A 3 3 0 0 0 325 401.5 Z M 325 402.5  A 2 2 0 0 1 327 404.5 A 2 2 0 0 1 325 406.5 A 2 2 0 0 1 323 404.5 A 2 2 0 0 1 325 402.5 Z " fill-rule="nonzero" fill="#d7d7d7" stroke="none" />
  <path d="M 297 404.5  L 323 404.5  " stroke-width="1" stroke="#d7d7d7" fill="none" />
</svg>