<?xml version="1.0" encoding="utf-8"?>
<svg version="1.1" xmlns:xlink="http://www.w3.org/1999/xlink" width="12px" height="12px" viewBox="1109 282.5  12 12" xmlns="http://www.w3.org/2000/svg">
  <path d="M 1115 282.5  C 1118.36 282.5  1121 285.14  1121 288.5  C 1121 291.86  1118.36 294.5  1115 294.5  C 1111.64 294.5  1109 291.86  1109 288.5  C 1109 285.14  1111.64 282.5  1115 282.5  Z " fill-rule="nonzero" fill="#f0f0f0" stroke="none" />
  <path d="M 1115 283  C 1118.08 283  1120.5 285.42  1120.5 288.5  C 1120.5 291.58  1118.08 294  1115 294  C 1111.92 294  1109.5 291.58  1109.5 288.5  C 1109.5 285.42  1111.92 283  1115 283  Z " stroke-width="1" stroke="#797979" fill="none" />
  <path d="M 1115 291.5  C 1113.32 291.5  1112 290.18  1112 288.5  C 1112 286.82  1113.32 285.5  1115 285.5  C 1116.68 285.5  1118 286.82  1118 288.5  C 1118 290.18  1116.68 291.5  1115 291.5  " fill-rule="nonzero" fill="#797979" stroke="none" />
</svg>