<?xml version="1.0" encoding="utf-8"?>
<svg version="1.1" xmlns:xlink="http://www.w3.org/1999/xlink" width="21px" height="21px" xmlns="http://www.w3.org/2000/svg">
  <g transform="matrix(1 0 0 1 -2467 -858 )">
    <path d="M 2477.5 858  C 2483.38 858  2488 862.62  2488 868.5  C 2488 874.38  2483.38 879  2477.5 879  C 2471.62 879  2467 874.38  2467 868.5  C 2467 862.62  2471.62 858  2477.5 858  Z " fill-rule="nonzero" fill="#d9001b" stroke="none" />
    <path d="M 2477.5 858.5  C 2483.1 858.5  2487.5 862.9  2487.5 868.5  C 2487.5 874.1  2483.1 878.5  2477.5 878.5  C 2471.9 878.5  2467.5 874.1  2467.5 868.5  C 2467.5 862.9  2471.9 858.5  2477.5 858.5  Z " stroke-width="1" stroke="#797979" fill="none" />
  </g>
</svg>