<?xml version="1.0" encoding="utf-8"?>
<svg version="1.1" xmlns:xlink="http://www.w3.org/1999/xlink" width="16px" height="25px" xmlns="http://www.w3.org/2000/svg">
  <g transform="matrix(1 0 0 1 -496 -1706 )">
    <path d="M 1.51126516464471 0.265066964285715  L 15.7088388214905 14.55078125  C 15.9953783939919 14.8297991071429  16.0600808781051 15.1506696428571  15.9029462738302 15.5133928571429  C 15.7458116695552 15.8854166666667  15.473136915078 16.0714285714286  15.0849220103986 16.0714285714286  L 9.78856152512998 16.0714285714286  L 12.5753899480069 22.7120535714286  C 12.6678220681687 22.944568452381  12.6678220681687 23.1724330357143  12.5753899480069 23.3956473214286  C 12.4829578278452 23.6188616071429  12.3258232235702 23.7816220238095  12.103986135182 23.8839285714286  L 9.64991334488735 24.9302455357143  C 9.41883304448296 25.0232514880952  9.19237435008666 25.0232514880952  8.97053726169844 24.9302455357143  C 8.74870017331023 24.8372395833333  8.58694396302715 24.6791294642857  8.48526863084922 24.4559151785714  L 5.8370883882149 18.1501116071429  L 1.51126516464471 22.5027901785714  C 1.33564413633738 22.6795014880952  1.12767186597343 22.7678571428571  0.88734835355286 22.7678571428571  C 0.776429809358752 22.7678571428571  0.665511265164645 22.7446056547619  0.554592720970537 22.6981026785714  C 0.184864240323512 22.5399925595238  0 22.265625  0 21.875  L 0 0.892857142857142  C 0 0.502232142857142  0.184864240323512 0.227864583333331  0.554592720970537 0.0697544642857151  C 0.665511265164645 0.0232514880952384  0.776429809358752 0  0.88734835355286 0  C 1.1369150779896 0  1.34488734835355 0.0883556547619069  1.51126516464471 0.265066964285715  Z " fill-rule="nonzero" fill="#000000" stroke="none" transform="matrix(1 0 0 1 496 1706 )" />
  </g>
</svg>