<?xml version="1.0" encoding="utf-8"?>
<svg version="1.1" xmlns:xlink="http://www.w3.org/1999/xlink" width="216px" height="216px" xmlns="http://www.w3.org/2000/svg">
  <g transform="matrix(1 0 0 1 -2785 -539 )">
    <path d="M 2893 539  C 2953.48 539  3001 586.52  3001 647  C 3001 707.48  2953.48 755  2893 755  C 2832.52 755  2785 707.48  2785 647  C 2785 586.52  2832.52 539  2893 539  Z " fill-rule="nonzero" fill="#333333" stroke="none" fill-opacity="0.698039215686274" />
    <path d="M 2893 539.5  C 2953.2 539.5  3000.5 586.8  3000.5 647  C 3000.5 707.2  2953.2 754.5  2893 754.5  C 2832.8 754.5  2785.5 707.2  2785.5 647  C 2785.5 586.8  2832.8 539.5  2893 539.5  Z " stroke-width="1" stroke="#797979" fill="none" />
  </g>
</svg>