<?xml version="1.0" encoding="utf-8"?>
<svg version="1.1" xmlns:xlink="http://www.w3.org/1999/xlink" width="12px" height="12px" viewBox="945 1753.5  12 12" xmlns="http://www.w3.org/2000/svg">
  <path d="M 951 1753.5  C 954.36 1753.5  957 1756.14  957 1759.5  C 957 1762.86  954.36 1765.5  951 1765.5  C 947.64 1765.5  945 1762.86  945 1759.5  C 945 1756.14  947.64 1753.5  951 1753.5  Z " fill-rule="nonzero" fill="#f0f0f0" stroke="none" />
  <path d="M 951 1754  C 954.08 1754  956.5 1756.42  956.5 1759.5  C 956.5 1762.58  954.08 1765  951 1765  C 947.92 1765  945.5 1762.58  945.5 1759.5  C 945.5 1756.42  947.92 1754  951 1754  Z " stroke-width="1" stroke="#797979" fill="none" />
  <path d="M 951 1762.5  C 949.32 1762.5  948 1761.18  948 1759.5  C 948 1757.82  949.32 1756.5  951 1756.5  C 952.68 1756.5  954 1757.82  954 1759.5  C 954 1761.18  952.68 1762.5  951 1762.5  " fill-rule="nonzero" fill="#797979" stroke="none" />
</svg>