<?xml version="1.0" encoding="utf-8"?>
<svg version="1.1" xmlns:xlink="http://www.w3.org/1999/xlink" width="12px" height="12px" viewBox="876 1753.5  12 12" xmlns="http://www.w3.org/2000/svg">
  <path d="M 882 1753.5  C 885.36 1753.5  888 1756.14  888 1759.5  C 888 1762.86  885.36 1765.5  882 1765.5  C 878.64 1765.5  876 1762.86  876 1759.5  C 876 1756.14  878.64 1753.5  882 1753.5  Z " fill-rule="nonzero" fill="#ffffff" stroke="none" />
  <path d="M 882 1754  C 885.08 1754  887.5 1756.42  887.5 1759.5  C 887.5 1762.58  885.08 1765  882 1765  C 878.92 1765  876.5 1762.58  876.5 1759.5  C 876.5 1756.42  878.92 1754  882 1754  Z " stroke-width="1" stroke="#797979" fill="none" />
  <path d="M 882 1762.5  C 880.32 1762.5  879 1761.18  879 1759.5  C 879 1757.82  880.32 1756.5  882 1756.5  C 883.68 1756.5  885 1757.82  885 1759.5  C 885 1761.18  883.68 1762.5  882 1762.5  " fill-rule="nonzero" fill="#797979" stroke="none" />
</svg>