<?xml version="1.0" encoding="utf-8"?>
<svg version="1.1" xmlns:xlink="http://www.w3.org/1999/xlink" width="12px" height="12px" viewBox="822 1555.5  12 12" xmlns="http://www.w3.org/2000/svg">
  <path d="M 828 1555.5  C 831.36 1555.5  834 1558.14  834 1561.5  C 834 1564.86  831.36 1567.5  828 1567.5  C 824.64 1567.5  822 1564.86  822 1561.5  C 822 1558.14  824.64 1555.5  828 1555.5  Z " fill-rule="nonzero" fill="#ffffff" stroke="none" />
  <path d="M 828 1556  C 831.08 1556  833.5 1558.42  833.5 1561.5  C 833.5 1564.58  831.08 1567  828 1567  C 824.92 1567  822.5 1564.58  822.5 1561.5  C 822.5 1558.42  824.92 1556  828 1556  Z " stroke-width="1" stroke="#797979" fill="none" />
  <path d="M 828 1564.5  C 826.32 1564.5  825 1563.18  825 1561.5  C 825 1559.82  826.32 1558.5  828 1558.5  C 829.68 1558.5  831 1559.82  831 1561.5  C 831 1563.18  829.68 1564.5  828 1564.5  " fill-rule="nonzero" fill="#797979" stroke="none" />
</svg>