<?xml version="1.0" encoding="utf-8"?>
<svg version="1.1" xmlns:xlink="http://www.w3.org/1999/xlink" width="12px" height="12px" viewBox="740 1555.5  12 12" xmlns="http://www.w3.org/2000/svg">
  <path d="M 746 1555.5  C 749.36 1555.5  752 1558.14  752 1561.5  C 752 1564.86  749.36 1567.5  746 1567.5  C 742.64 1567.5  740 1564.86  740 1561.5  C 740 1558.14  742.64 1555.5  746 1555.5  Z " fill-rule="nonzero" fill="#f0f0f0" stroke="none" />
  <path d="M 746 1556  C 749.08 1556  751.5 1558.42  751.5 1561.5  C 751.5 1564.58  749.08 1567  746 1567  C 742.92 1567  740.5 1564.58  740.5 1561.5  C 740.5 1558.42  742.92 1556  746 1556  Z " stroke-width="1" stroke="#797979" fill="none" />
  <path d="M 746 1564.5  C 744.32 1564.5  743 1563.18  743 1561.5  C 743 1559.82  744.32 1558.5  746 1558.5  C 747.68 1558.5  749 1559.82  749 1561.5  C 749 1563.18  747.68 1564.5  746 1564.5  " fill-rule="nonzero" fill="#797979" stroke="none" />
</svg>