<?xml version="1.0" encoding="utf-8"?>
<svg version="1.1" xmlns:xlink="http://www.w3.org/1999/xlink" width="12px" height="12px" viewBox="193 1753.5  12 12" xmlns="http://www.w3.org/2000/svg">
  <path d="M 199 1753.5  C 202.36 1753.5  205 1756.14  205 1759.5  C 205 1762.86  202.36 1765.5  199 1765.5  C 195.64 1765.5  193 1762.86  193 1759.5  C 193 1756.14  195.64 1753.5  199 1753.5  Z " fill-rule="nonzero" fill="#ffffff" stroke="none" />
  <path d="M 199 1754  C 202.08 1754  204.5 1756.42  204.5 1759.5  C 204.5 1762.58  202.08 1765  199 1765  C 195.92 1765  193.5 1762.58  193.5 1759.5  C 193.5 1756.42  195.92 1754  199 1754  Z " stroke-width="1" stroke="#797979" fill="none" />
  <path d="M 199 1762.5  C 197.32 1762.5  196 1761.18  196 1759.5  C 196 1757.82  197.32 1756.5  199 1756.5  C 200.68 1756.5  202 1757.82  202 1759.5  C 202 1761.18  200.68 1762.5  199 1762.5  " fill-rule="nonzero" fill="#797979" stroke="none" />
</svg>