<?xml version="1.0" encoding="utf-8"?>
<svg version="1.1" xmlns:xlink="http://www.w3.org/1999/xlink" width="12px" height="12px" viewBox="347 1753.5  12 12" xmlns="http://www.w3.org/2000/svg">
  <path d="M 353 1753.5  C 356.36 1753.5  359 1756.14  359 1759.5  C 359 1762.86  356.36 1765.5  353 1765.5  C 349.64 1765.5  347 1762.86  347 1759.5  C 347 1756.14  349.64 1753.5  353 1753.5  Z " fill-rule="nonzero" fill="#ffffff" stroke="none" />
  <path d="M 353 1754  C 356.08 1754  358.5 1756.42  358.5 1759.5  C 358.5 1762.58  356.08 1765  353 1765  C 349.92 1765  347.5 1762.58  347.5 1759.5  C 347.5 1756.42  349.92 1754  353 1754  Z " stroke-width="1" stroke="#797979" fill="none" />
  <path d="M 353 1762.5  C 351.32 1762.5  350 1761.18  350 1759.5  C 350 1757.82  351.32 1756.5  353 1756.5  C 354.68 1756.5  356 1757.82  356 1759.5  C 356 1761.18  354.68 1762.5  353 1762.5  " fill-rule="nonzero" fill="#797979" stroke="none" />
</svg>