<?xml version="1.0" encoding="utf-8"?>
<svg version="1.1" xmlns:xlink="http://www.w3.org/1999/xlink" width="12px" height="12px" viewBox="416 1753.5  12 12" xmlns="http://www.w3.org/2000/svg">
  <path d="M 422 1753.5  C 425.36 1753.5  428 1756.14  428 1759.5  C 428 1762.86  425.36 1765.5  422 1765.5  C 418.64 1765.5  416 1762.86  416 1759.5  C 416 1756.14  418.64 1753.5  422 1753.5  Z " fill-rule="nonzero" fill="#f0f0f0" stroke="none" />
  <path d="M 422 1754  C 425.08 1754  427.5 1756.42  427.5 1759.5  C 427.5 1762.58  425.08 1765  422 1765  C 418.92 1765  416.5 1762.58  416.5 1759.5  C 416.5 1756.42  418.92 1754  422 1754  Z " stroke-width="1" stroke="#797979" fill="none" />
  <path d="M 422 1762.5  C 420.32 1762.5  419 1761.18  419 1759.5  C 419 1757.82  420.32 1756.5  422 1756.5  C 423.68 1756.5  425 1757.82  425 1759.5  C 425 1761.18  423.68 1762.5  422 1762.5  " fill-rule="nonzero" fill="#797979" stroke="none" />
</svg>