<?xml version="1.0" encoding="utf-8"?>
<svg version="1.1" xmlns:xlink="http://www.w3.org/1999/xlink" width="12px" height="12px" viewBox="211 1555.5  12 12" xmlns="http://www.w3.org/2000/svg">
  <path d="M 217 1555.5  C 220.36 1555.5  223 1558.14  223 1561.5  C 223 1564.86  220.36 1567.5  217 1567.5  C 213.64 1567.5  211 1564.86  211 1561.5  C 211 1558.14  213.64 1555.5  217 1555.5  Z " fill-rule="nonzero" fill="#f0f0f0" stroke="none" />
  <path d="M 217 1556  C 220.08 1556  222.5 1558.42  222.5 1561.5  C 222.5 1564.58  220.08 1567  217 1567  C 213.92 1567  211.5 1564.58  211.5 1561.5  C 211.5 1558.42  213.92 1556  217 1556  Z " stroke-width="1" stroke="#797979" fill="none" />
  <path d="M 217 1564.5  C 215.32 1564.5  214 1563.18  214 1561.5  C 214 1559.82  215.32 1558.5  217 1558.5  C 218.68 1558.5  220 1559.82  220 1561.5  C 220 1563.18  218.68 1564.5  217 1564.5  " fill-rule="nonzero" fill="#797979" stroke="none" />
</svg>