<?xml version="1.0" encoding="utf-8"?>
<svg version="1.1" xmlns:xlink="http://www.w3.org/1999/xlink" width="12px" height="12px" viewBox="2191 1385.5  12 12" xmlns="http://www.w3.org/2000/svg">
  <path d="M 2197 1385.5  C 2200.36 1385.5  2203 1388.14  2203 1391.5  C 2203 1394.86  2200.36 1397.5  2197 1397.5  C 2193.64 1397.5  2191 1394.86  2191 1391.5  C 2191 1388.14  2193.64 1385.5  2197 1385.5  Z " fill-rule="nonzero" fill="#f0f0f0" stroke="none" />
  <path d="M 2197 1386  C 2200.08 1386  2202.5 1388.42  2202.5 1391.5  C 2202.5 1394.58  2200.08 1397  2197 1397  C 2193.92 1397  2191.5 1394.58  2191.5 1391.5  C 2191.5 1388.42  2193.92 1386  2197 1386  Z " stroke-width="1" stroke="#797979" fill="none" />
  <path d="M 2197 1394.5  C 2195.32 1394.5  2194 1393.18  2194 1391.5  C 2194 1389.82  2195.32 1388.5  2197 1388.5  C 2198.68 1388.5  2200 1389.82  2200 1391.5  C 2200 1393.18  2198.68 1394.5  2197 1394.5  " fill-rule="nonzero" fill="#797979" stroke="none" />
</svg>