<?xml version="1.0" encoding="utf-8"?>
<svg version="1.1" xmlns:xlink="http://www.w3.org/1999/xlink" width="12px" height="12px" viewBox="536 544.5  12 12" xmlns="http://www.w3.org/2000/svg">
  <path d="M 542 544.5  C 545.36 544.5  548 547.14  548 550.5  C 548 553.86  545.36 556.5  542 556.5  C 538.64 556.5  536 553.86  536 550.5  C 536 547.14  538.64 544.5  542 544.5  Z " fill-rule="nonzero" fill="#ffffff" stroke="none" />
  <path d="M 542 545  C 545.08 545  547.5 547.42  547.5 550.5  C 547.5 553.58  545.08 556  542 556  C 538.92 556  536.5 553.58  536.5 550.5  C 536.5 547.42  538.92 545  542 545  Z " stroke-width="1" stroke="#797979" fill="none" />
  <path d="M 542 553.5  C 540.32 553.5  539 552.18  539 550.5  C 539 548.82  540.32 547.5  542 547.5  C 543.68 547.5  545 548.82  545 550.5  C 545 552.18  543.68 553.5  542 553.5  " fill-rule="nonzero" fill="#797979" stroke="none" />
</svg>