<?xml version="1.0" encoding="utf-8"?>
<svg version="1.1" xmlns:xlink="http://www.w3.org/1999/xlink" width="12px" height="12px" viewBox="2273 1385.5  12 12" xmlns="http://www.w3.org/2000/svg">
  <path d="M 2279 1385.5  C 2282.36 1385.5  2285 1388.14  2285 1391.5  C 2285 1394.86  2282.36 1397.5  2279 1397.5  C 2275.64 1397.5  2273 1394.86  2273 1391.5  C 2273 1388.14  2275.64 1385.5  2279 1385.5  Z " fill-rule="nonzero" fill="#f0f0f0" stroke="none" />
  <path d="M 2279 1386  C 2282.08 1386  2284.5 1388.42  2284.5 1391.5  C 2284.5 1394.58  2282.08 1397  2279 1397  C 2275.92 1397  2273.5 1394.58  2273.5 1391.5  C 2273.5 1388.42  2275.92 1386  2279 1386  Z " stroke-width="1" stroke="#797979" fill="none" />
  <path d="M 2279 1394.5  C 2277.32 1394.5  2276 1393.18  2276 1391.5  C 2276 1389.82  2277.32 1388.5  2279 1388.5  C 2280.68 1388.5  2282 1389.82  2282 1391.5  C 2282 1393.18  2280.68 1394.5  2279 1394.5  " fill-rule="nonzero" fill="#797979" stroke="none" />
</svg>