<?xml version="1.0" encoding="utf-8"?>
<svg version="1.1" xmlns:xlink="http://www.w3.org/1999/xlink" width="12px" height="12px" viewBox="2360 545.5  12 12" xmlns="http://www.w3.org/2000/svg">
  <path d="M 2366 545.5  C 2369.36 545.5  2372 548.14  2372 551.5  C 2372 554.86  2369.36 557.5  2366 557.5  C 2362.64 557.5  2360 554.86  2360 551.5  C 2360 548.14  2362.64 545.5  2366 545.5  Z " fill-rule="nonzero" fill="#ffffff" stroke="none" />
  <path d="M 2366 546  C 2369.08 546  2371.5 548.42  2371.5 551.5  C 2371.5 554.58  2369.08 557  2366 557  C 2362.92 557  2360.5 554.58  2360.5 551.5  C 2360.5 548.42  2362.92 546  2366 546  Z " stroke-width="1" stroke="#797979" fill="none" />
  <path d="M 2366 554.5  C 2364.32 554.5  2363 553.18  2363 551.5  C 2363 549.82  2364.32 548.5  2366 548.5  C 2367.68 548.5  2369 549.82  2369 551.5  C 2369 553.18  2367.68 554.5  2366 554.5  " fill-rule="nonzero" fill="#797979" stroke="none" />
</svg>