<?xml version="1.0" encoding="utf-8"?>
<svg version="1.1" xmlns:xlink="http://www.w3.org/1999/xlink" width="12px" height="12px" viewBox="2273 2376.5  12 12" xmlns="http://www.w3.org/2000/svg">
  <path d="M 2279 2376.5  C 2282.36 2376.5  2285 2379.14  2285 2382.5  C 2285 2385.86  2282.36 2388.5  2279 2388.5  C 2275.64 2388.5  2273 2385.86  2273 2382.5  C 2273 2379.14  2275.64 2376.5  2279 2376.5  Z " fill-rule="nonzero" fill="#f0f0f0" stroke="none" />
  <path d="M 2279 2377  C 2282.08 2377  2284.5 2379.42  2284.5 2382.5  C 2284.5 2385.58  2282.08 2388  2279 2388  C 2275.92 2388  2273.5 2385.58  2273.5 2382.5  C 2273.5 2379.42  2275.92 2377  2279 2377  Z " stroke-width="1" stroke="#797979" fill="none" />
  <path d="M 2279 2385.5  C 2277.32 2385.5  2276 2384.18  2276 2382.5  C 2276 2380.82  2277.32 2379.5  2279 2379.5  C 2280.68 2379.5  2282 2380.82  2282 2382.5  C 2282 2384.18  2280.68 2385.5  2279 2385.5  " fill-rule="nonzero" fill="#797979" stroke="none" />
</svg>