<?xml version="1.0" encoding="utf-8"?>
<svg version="1.1" xmlns:xlink="http://www.w3.org/1999/xlink" width="12px" height="12px" viewBox="452 544.5  12 12" xmlns="http://www.w3.org/2000/svg">
  <path d="M 458 544.5  C 461.36 544.5  464 547.14  464 550.5  C 464 553.86  461.36 556.5  458 556.5  C 454.64 556.5  452 553.86  452 550.5  C 452 547.14  454.64 544.5  458 544.5  Z " fill-rule="nonzero" fill="#f0f0f0" stroke="none" />
  <path d="M 458 545  C 461.08 545  463.5 547.42  463.5 550.5  C 463.5 553.58  461.08 556  458 556  C 454.92 556  452.5 553.58  452.5 550.5  C 452.5 547.42  454.92 545  458 545  Z " stroke-width="1" stroke="#797979" fill="none" />
  <path d="M 458 553.5  C 456.32 553.5  455 552.18  455 550.5  C 455 548.82  456.32 547.5  458 547.5  C 459.68 547.5  461 548.82  461 550.5  C 461 552.18  459.68 553.5  458 553.5  " fill-rule="nonzero" fill="#797979" stroke="none" />
</svg>