<?xml version="1.0" encoding="utf-8"?>
<svg version="1.1" xmlns:xlink="http://www.w3.org/1999/xlink" width="1445px" height="803px" xmlns="http://www.w3.org/2000/svg">
  <g transform="matrix(1 0 0 1 -284 -567 )">
    <path d="M 285 580  A 12 12 0 0 1 297 568 L 1716 568  A 12 12 0 0 1 1728 580 L 1728 1357  A 12 12 0 0 1 1716 1369 L 297 1369  A 12 12 0 0 1 285 1357 L 285 580  Z " fill-rule="nonzero" fill="#f2f2f2" stroke="none" />
    <path d="M 284.5 580  A 12.5 12.5 0 0 1 297 567.5 L 1716 567.5  A 12.5 12.5 0 0 1 1728.5 580 L 1728.5 1357  A 12.5 12.5 0 0 1 1716 1369.5 L 297 1369.5  A 12.5 12.5 0 0 1 284.5 1357 L 284.5 580  Z " stroke-width="1" stroke-dasharray="17,4,5,4" stroke="#d9001b" fill="none" stroke-dashoffset="0.5" />
  </g>
</svg>