<?xml version="1.0" encoding="utf-8"?>
<svg version="1.1" xmlns:xlink="http://www.w3.org/1999/xlink" width="501px" height="30px" xmlns="http://www.w3.org/2000/svg">
  <defs>
    <mask fill="white" id="clip656">
      <path d="M 498.075875486381 0  C 499.690824618677 0  501 0.157399892578126  501 0.3515625  L 501 29.6484375  C 501 29.842600078125  499.690824618677 30  498.075875486381 30  L 2.92412451361868 30  C 1.30917513764591 30  0 29.842600078125  0 29.6484375  L 0 0.3515625  C 0 0.157399892578126  1.30917513764591 0  2.92412451361868 0  L 498.075875486381 0  Z " fill-rule="evenodd" />
    </mask>
  </defs>
  <g transform="matrix(1 0 0 1 -1310 -507 )">
    <path d="M 498.075875486381 0  C 499.690824618677 0  501 0.157399892578126  501 0.3515625  L 501 29.6484375  C 501 29.842600078125  499.690824618677 30  498.075875486381 30  L 2.92412451361868 30  C 1.30917513764591 30  0 29.842600078125  0 29.6484375  L 0 0.3515625  C 0 0.157399892578126  1.30917513764591 0  2.92412451361868 0  L 498.075875486381 0  Z " fill-rule="nonzero" fill="#ffffff" stroke="none" fill-opacity="0" transform="matrix(1 0 0 1 1310 507 )" />
    <path d="M 498.075875486381 0  C 499.690824618677 0  501 0.157399892578126  501 0.3515625  L 501 29.6484375  C 501 29.842600078125  499.690824618677 30  498.075875486381 30  L 2.92412451361868 30  C 1.30917513764591 30  0 29.842600078125  0 29.6484375  L 0 0.3515625  C 0 0.157399892578126  1.30917513764591 0  2.92412451361868 0  L 498.075875486381 0  Z " stroke-width="2" stroke="#eeeeee" fill="none" transform="matrix(1 0 0 1 1310 507 )" mask="url(#clip656)" />
  </g>
</svg>