<?xml version="1.0" encoding="utf-8"?>
<svg version="1.1" xmlns:xlink="http://www.w3.org/1999/xlink" width="299px" height="30px" xmlns="http://www.w3.org/2000/svg">
  <defs>
    <mask fill="white" id="clip655">
      <path d="M 297.25486381323 0  C 298.218675770428 0  299 0.157399892578126  299 0.3515625  L 299 29.6484375  C 299 29.842600078125  298.218675770428 30  297.25486381323 30  L 1.74513618677043 30  C 0.781324084143968 30  0 29.842600078125  0 29.6484375  L 0 0.3515625  C 0 0.157399892578126  0.781324084143968 0  1.74513618677043 0  L 297.25486381323 0  Z " fill-rule="evenodd" />
    </mask>
  </defs>
  <g transform="matrix(1 0 0 1 -674 -507 )">
    <path d="M 297.25486381323 0  C 298.218675770428 0  299 0.157399892578126  299 0.3515625  L 299 29.6484375  C 299 29.842600078125  298.218675770428 30  297.25486381323 30  L 1.74513618677043 30  C 0.781324084143968 30  0 29.842600078125  0 29.6484375  L 0 0.3515625  C 0 0.157399892578126  0.781324084143968 0  1.74513618677043 0  L 297.25486381323 0  Z " fill-rule="nonzero" fill="#ffffff" stroke="none" fill-opacity="0" transform="matrix(1 0 0 1 674 507 )" />
    <path d="M 297.25486381323 0  C 298.218675770428 0  299 0.157399892578126  299 0.3515625  L 299 29.6484375  C 299 29.842600078125  298.218675770428 30  297.25486381323 30  L 1.74513618677043 30  C 0.781324084143968 30  0 29.842600078125  0 29.6484375  L 0 0.3515625  C 0 0.157399892578126  0.781324084143968 0  1.74513618677043 0  L 297.25486381323 0  Z " stroke-width="2" stroke="#eeeeee" fill="none" transform="matrix(1 0 0 1 674 507 )" mask="url(#clip655)" />
  </g>
</svg>