<?xml version="1.0" encoding="utf-8"?>
<svg version="1.1" xmlns:xlink="http://www.w3.org/1999/xlink" width="315px" height="30px" xmlns="http://www.w3.org/2000/svg">
  <defs>
    <mask fill="white" id="clip496">
      <path d="M 313.161478599222 0  C 314.17686577821 0  315 0.157399892578126  315 0.3515625  L 315 29.6484375  C 315 29.842600078125  314.17686577821 30  313.161478599222 30  L 1.83852140077821 30  C 0.823134068579765 30  0 29.842600078125  0 29.6484375  L 0 0.3515625  C 0 0.157399892578126  0.823134068579765 0  1.83852140077821 0  L 313.161478599222 0  Z " fill-rule="evenodd" />
    </mask>
  </defs>
  <g transform="matrix(1 0 0 1 -342 -506 )">
    <path d="M 313.161478599222 0  C 314.17686577821 0  315 0.157399892578126  315 0.3515625  L 315 29.6484375  C 315 29.842600078125  314.17686577821 30  313.161478599222 30  L 1.83852140077821 30  C 0.823134068579765 30  0 29.842600078125  0 29.6484375  L 0 0.3515625  C 0 0.157399892578126  0.823134068579765 0  1.83852140077821 0  L 313.161478599222 0  Z " fill-rule="nonzero" fill="#ffffff" stroke="none" fill-opacity="0" transform="matrix(1 0 0 1 342 506 )" />
    <path d="M 313.161478599222 0  C 314.17686577821 0  315 0.157399892578126  315 0.3515625  L 315 29.6484375  C 315 29.842600078125  314.17686577821 30  313.161478599222 30  L 1.83852140077821 30  C 0.823134068579765 30  0 29.842600078125  0 29.6484375  L 0 0.3515625  C 0 0.157399892578126  0.823134068579765 0  1.83852140077821 0  L 313.161478599222 0  Z " stroke-width="2" stroke="#eeeeee" fill="none" transform="matrix(1 0 0 1 342 506 )" mask="url(#clip496)" />
  </g>
</svg>