<?xml version="1.0" encoding="utf-8"?>
<svg version="1.1" xmlns:xlink="http://www.w3.org/1999/xlink" width="129px" height="56px" xmlns="http://www.w3.org/2000/svg">
  <defs>
    <mask fill="white" id="clip613">
      <path d="M 0 0  L 129 0  L 129 54  C 129 55.1045695  128.312436910714 56  127.464285714286 56  L 1.53571428571431 56  C 0.687562705357152 56  0 55.1045695  0 54  L 0 0  Z " fill-rule="evenodd" />
    </mask>
  </defs>
  <g>
    <path d="M 0 0  L 129 0  L 129 54  C 129 55.1045695  128.312436910714 56  127.464285714286 56  L 1.53571428571431 56  C 0.687562705357152 56  0 55.1045695  0 54  L 0 0  Z " fill-rule="nonzero" fill="#ffffff" stroke="none" />
    <path d="M 0 0  L 129 0  L 129 54  C 129 55.1045695  128.312436910714 56  127.464285714286 56  L 1.53571428571431 56  C 0.687562705357152 56  0 55.1045695  0 54  L 0 0  Z " stroke-width="2" stroke="#eeeeee" fill="none" mask="url(#clip613)" />
  </g>
</svg>