<?xml version="1.0" encoding="utf-8"?>
<svg version="1.1" xmlns:xlink="http://www.w3.org/1999/xlink" width="10px" height="14px" xmlns="http://www.w3.org/2000/svg">
  <g transform="matrix(1 0 0 1 -440 -279 )">
    <path d="M 5.01911244999999 11.7982588  L 8.549734 8.24571304  L 9.25684079999999 8.95281982  L 5.38046143 12.8546189  C 5.22844747000001 13.0076297  5.0017873 13.0413705  4.81685816 12.9554611  C 4.76235061 12.9321723  4.71129221 12.8982665  4.66645215 12.8541933  L 0.740748089999997 8.99562453999999  L 1.44785487 8.28851776  L 5.01911244999999 11.7982588  Z M 4.81188048999999 1.04623761000001  L 4.82980483 1.03874866  C 5.01227191 0.960260509999998  5.23197682 0.995922829999998  5.38046143 1.14538115000001  L 9.25684079999999 5.04718018  L 8.549734 5.75428696  L 5.01911244999999 2.20025879000001  L 1.44785487 5.71148224  L 0.740748089999997 5.00437546000001  L 4.66645215 1.14580672  C 4.70994969 1.10305305  4.7592988 1.06986711  4.81188048999999 1.04623761000001  Z " fill-rule="nonzero" fill="#000000" stroke="none" fill-opacity="0.298039215686275" transform="matrix(1 0 0 1 440 279 )" />
  </g>
</svg>