<?xml version="1.0" encoding="utf-8"?>
<svg version="1.1" xmlns:xlink="http://www.w3.org/1999/xlink" width="256px" height="32px" xmlns="http://www.w3.org/2000/svg">
  <defs>
    <mask fill="white" id="clip444">
      <path d="M 0.842105263157895 0  C 0.842105263157895 0  255.157894736842 0  255.157894736842 0  C 255.390435929825 0  255.600962245614 0.167893219  255.753352982456 0.439339828  C 255.905744280702 0.71078644  256 1.08578644  256 1.5  C 256 1.5  256 30.5  256 30.5  C 256 30.9142136  255.905744280702 31.2892136  255.753352982456 31.5606602  C 255.600962245614 31.8321068  255.390435929825 32  255.157894736842 32  C 255.157894736842 32  0.842105263157895 32  0.842105263157895 32  C 0.609564317192986 32  0.399038001403513 31.8321068  0.246646920982457 31.5606602  C 0.0942558422456179 31.2892136  0 30.9142136  0 30.5  C 0 30.5  0 1.5  0 1.5  C 0 1.08578644  0.0942558422456179 0.71078644  0.246646920982457 0.439339828  C 0.399038001403513 0.167893219  0.609564317192986 0  0.842105263157895 0  Z " fill-rule="evenodd" />
    </mask>
  </defs>
  <g transform="matrix(1 0 0 1 -392 -100 )">
    <path d="M 0.842105263157895 0  C 0.842105263157895 0  255.157894736842 0  255.157894736842 0  C 255.390435929825 0  255.600962245614 0.167893219  255.753352982456 0.439339828  C 255.905744280702 0.71078644  256 1.08578644  256 1.5  C 256 1.5  256 30.5  256 30.5  C 256 30.9142136  255.905744280702 31.2892136  255.753352982456 31.5606602  C 255.600962245614 31.8321068  255.390435929825 32  255.157894736842 32  C 255.157894736842 32  0.842105263157895 32  0.842105263157895 32  C 0.609564317192986 32  0.399038001403513 31.8321068  0.246646920982457 31.5606602  C 0.0942558422456179 31.2892136  0 30.9142136  0 30.5  C 0 30.5  0 1.5  0 1.5  C 0 1.08578644  0.0942558422456179 0.71078644  0.246646920982457 0.439339828  C 0.399038001403513 0.167893219  0.609564317192986 0  0.842105263157895 0  Z " fill-rule="nonzero" fill="#ffffff" stroke="none" transform="matrix(1 0 0 1 392 100 )" />
    <path d="M 0.842105263157895 0  C 0.842105263157895 0  255.157894736842 0  255.157894736842 0  C 255.390435929825 0  255.600962245614 0.167893219  255.753352982456 0.439339828  C 255.905744280702 0.71078644  256 1.08578644  256 1.5  C 256 1.5  256 30.5  256 30.5  C 256 30.9142136  255.905744280702 31.2892136  255.753352982456 31.5606602  C 255.600962245614 31.8321068  255.390435929825 32  255.157894736842 32  C 255.157894736842 32  0.842105263157895 32  0.842105263157895 32  C 0.609564317192986 32  0.399038001403513 31.8321068  0.246646920982457 31.5606602  C 0.0942558422456179 31.2892136  0 30.9142136  0 30.5  C 0 30.5  0 1.5  0 1.5  C 0 1.08578644  0.0942558422456179 0.71078644  0.246646920982457 0.439339828  C 0.399038001403513 0.167893219  0.609564317192986 0  0.842105263157895 0  Z " stroke-width="2" stroke="#dddddd" fill="none" transform="matrix(1 0 0 1 392 100 )" mask="url(#clip444)" />
  </g>
</svg>