<?xml version="1.0" encoding="utf-8"?>
<svg version="1.1" xmlns:xlink="http://www.w3.org/1999/xlink" width="227px" height="32px" xmlns="http://www.w3.org/2000/svg">
  <defs>
    <mask fill="white" id="clip603">
      <path d="M 0.746710526315789 0  C 0.746710526315789 0  226.253289473684 0  226.253289473684 0  C 226.459488109649 0  226.646165741228 0.167893219  226.781293464912 0.439339828  C 226.916421686403 0.71078644  227 1.08578644  227 1.5  C 227 1.5  227 30.5  227 30.5  C 227 30.9142136  226.916421686403 31.2892136  226.781293464912 31.5606602  C 226.646165741228 31.8321068  226.459488109649 32  226.253289473684 32  C 226.253289473684 32  0.746710526315789 32  0.746710526315789 32  C 0.540512109385968 32  0.353834477807021 31.8321068  0.218706449464913 31.5606602  C 0.0835784226162315 31.2892136  0 30.9142136  0 30.5  C 0 30.5  0 1.5  0 1.5  C 0 1.08578644  0.0835784226162315 0.71078644  0.218706449464913 0.439339828  C 0.353834477807021 0.167893219  0.540512109385968 0  0.746710526315789 0  Z " fill-rule="evenodd" />
    </mask>
  </defs>
  <g transform="matrix(1 0 0 1 -16 -51 )">
    <path d="M 0.746710526315789 0  C 0.746710526315789 0  226.253289473684 0  226.253289473684 0  C 226.459488109649 0  226.646165741228 0.167893219  226.781293464912 0.439339828  C 226.916421686403 0.71078644  227 1.08578644  227 1.5  C 227 1.5  227 30.5  227 30.5  C 227 30.9142136  226.916421686403 31.2892136  226.781293464912 31.5606602  C 226.646165741228 31.8321068  226.459488109649 32  226.253289473684 32  C 226.253289473684 32  0.746710526315789 32  0.746710526315789 32  C 0.540512109385968 32  0.353834477807021 31.8321068  0.218706449464913 31.5606602  C 0.0835784226162315 31.2892136  0 30.9142136  0 30.5  C 0 30.5  0 1.5  0 1.5  C 0 1.08578644  0.0835784226162315 0.71078644  0.218706449464913 0.439339828  C 0.353834477807021 0.167893219  0.540512109385968 0  0.746710526315789 0  Z " fill-rule="nonzero" fill="#ffffff" stroke="none" transform="matrix(1 0 0 1 16 51 )" />
    <path d="M 0.746710526315789 0  C 0.746710526315789 0  226.253289473684 0  226.253289473684 0  C 226.459488109649 0  226.646165741228 0.167893219  226.781293464912 0.439339828  C 226.916421686403 0.71078644  227 1.08578644  227 1.5  C 227 1.5  227 30.5  227 30.5  C 227 30.9142136  226.916421686403 31.2892136  226.781293464912 31.5606602  C 226.646165741228 31.8321068  226.459488109649 32  226.253289473684 32  C 226.253289473684 32  0.746710526315789 32  0.746710526315789 32  C 0.540512109385968 32  0.353834477807021 31.8321068  0.218706449464913 31.5606602  C 0.0835784226162315 31.2892136  0 30.9142136  0 30.5  C 0 30.5  0 1.5  0 1.5  C 0 1.08578644  0.0835784226162315 0.71078644  0.218706449464913 0.439339828  C 0.353834477807021 0.167893219  0.540512109385968 0  0.746710526315789 0  Z " stroke-width="2" stroke="#dddddd" fill="none" transform="matrix(1 0 0 1 16 51 )" mask="url(#clip603)" />
  </g>
</svg>