<?xml version="1.0" encoding="utf-8"?>
<svg version="1.1" xmlns:xlink="http://www.w3.org/1999/xlink" width="66px" height="32px" xmlns="http://www.w3.org/2000/svg">
  <defs>
    <mask fill="white" id="clip600">
      <path d="M 0 29.5  C 0 29.5  0 2.5  0 2.5  C 0 1.11930000000001  1.15396874999999 0  2.578125 0  C 2.578125 0  66 0  66 0  C 66 0  66 32  66 32  C 66 32  2.578125 32  2.578125 32  C 1.15396874999999 32  0 30.8807  0 29.5  Z " fill-rule="evenodd" />
    </mask>
  </defs>
  <g transform="matrix(1 0 0 1 -1688 -733 )">
    <path d="M 0 29.5  C 0 29.5  0 2.5  0 2.5  C 0 1.11930000000001  1.15396874999999 0  2.578125 0  C 2.578125 0  66 0  66 0  C 66 0  66 32  66 32  C 66 32  2.578125 32  2.578125 32  C 1.15396874999999 32  0 30.8807  0 29.5  Z " fill-rule="nonzero" fill="#ffffff" stroke="none" fill-opacity="0" transform="matrix(1 0 0 1 1688 733 )" />
    <path d="M 0 29.5  C 0 29.5  0 2.5  0 2.5  C 0 1.11930000000001  1.15396874999999 0  2.578125 0  C 2.578125 0  66 0  66 0  C 66 0  66 32  66 32  C 66 32  2.578125 32  2.578125 32  C 1.15396874999999 32  0 30.8807  0 29.5  Z " stroke-width="2" stroke="#dcdcdc" fill="none" transform="matrix(1 0 0 1 1688 733 )" mask="url(#clip600)" />
  </g>
</svg>