<?xml version="1.0" encoding="utf-8"?>
<svg version="1.1" xmlns:xlink="http://www.w3.org/1999/xlink" width="72px" height="32px" xmlns="http://www.w3.org/2000/svg">
  <defs>
    <mask fill="white" id="clip601">
      <path d="M 0 32  L 0 0  L 69 0  C 70.657 0  72 1.3431  72 3  L 72 29  C 72 30.6569  70.657 32  69 32  L 0 32  Z " fill-rule="evenodd" />
    </mask>
  </defs>
  <g transform="matrix(1 0 0 1 -1752 -733 )">
    <path d="M 0 32  L 0 0  L 69 0  C 70.657 0  72 1.3431  72 3  L 72 29  C 72 30.6569  70.657 32  69 32  L 0 32  Z " fill-rule="nonzero" fill="#eeeeee" stroke="none" transform="matrix(1 0 0 1 1752 733 )" />
    <path d="M 0 32  L 0 0  L 69 0  C 70.657 0  72 1.3431  72 3  L 72 29  C 72 30.6569  70.657 32  69 32  L 0 32  Z " stroke-width="2" stroke="#dcdcdc" fill="none" transform="matrix(1 0 0 1 1752 733 )" mask="url(#clip601)" />
  </g>
</svg>