<?xml version="1.0" encoding="utf-8"?>
<svg version="1.1" xmlns:xlink="http://www.w3.org/1999/xlink" width="10px" height="10px" xmlns="http://www.w3.org/2000/svg">
  <g transform="matrix(1 0 0 1 -230 -66 )">
    <path d="M 7.83854166666666 4.86111111111111  C 7.83854166666666 6.50549861111111  6.50549861111111 7.83854166666666  4.86111111111111 7.83854166666666  C 3.21672361111109 7.83854166666666  1.88368055555554 6.50549861111111  1.88368055555554 4.86111111111111  C 1.88368055555554 3.21672361111109  3.21672361111109 1.88368055555554  4.86111111111111 1.88368055555554  C 6.50549861111111 1.88368055555554  7.83854166666666 3.21672361111109  7.83854166666666 4.86111111111111  Z M 0.607638888888886 4.86111111111111  C 0.607638888888886 7.21024305555554  2.51197916666666 9.11458333333334  4.86111111111111 9.11458333333334  C 7.21024305555554 9.11458333333334  9.11458333333334 7.21024305555554  9.11458333333334 4.86111111111111  C 9.11458333333334 2.51197916666666  7.21024305555554 0.607638888888886  4.86111111111111 0.607638888888886  C 2.51197916666666 0.607638888888886  0.607638888888886 2.51197916666666  0.607638888888886 4.86111111111111  Z " fill-rule="nonzero" fill="#000000" stroke="none" fill-opacity="0.898039215686275" transform="matrix(1 0 0 1 230 66 )" />
  </g>
</svg>