<?xml version="1.0" encoding="utf-8"?>
<svg version="1.1" xmlns:xlink="http://www.w3.org/1999/xlink" width="14px" height="14px" xmlns="http://www.w3.org/2000/svg">
  <g transform="matrix(1 0 0 1 -210 -61 )">
    <path d="M 0.5 7  C 0.5 3.41014913  3.41014912999998 0.5  7 0.5  C 10.5898509 0.5  13.5 3.41014913  13.5 7  C 13.5 10.5898509  10.5898509 13.5  7 13.5  C 3.41014912999998 13.5  0.5 10.5898509  0.5 7  Z M 9.8284271 4.87867966  L 9.12132029999998 4.17157288  L 6.99957288000002 6.29257287999999  L 4.87867965999999 4.17157288  L 4.17157287999999 4.87867966  L 6.29257288000002 6.99957288  L 4.17157287999999 9.12132030000001  L 4.87867965999999 9.8284271  L 6.99957288000002 7.70657288  L 9.12132029999998 9.8284271  L 9.8284271 9.12132030000001  L 7.70657288000001 6.99957288  L 9.8284271 4.87867966  Z " fill-rule="nonzero" fill="#000000" stroke="none" fill-opacity="0.298039215686275" transform="matrix(1 0 0 1 210 61 )" />
  </g>
</svg>