<?xml version="1.0" encoding="utf-8"?>
<svg version="1.1" xmlns:xlink="http://www.w3.org/1999/xlink" width="60px" height="32px" xmlns="http://www.w3.org/2000/svg">
  <g transform="matrix(1 0 0 1 -119 -251 )">
    <path d="M 120 254  A 2 2 0 0 1 122 252 L 176 252  A 2 2 0 0 1 178 254 L 178 280  A 2 2 0 0 1 176 282 L 122 282  A 2 2 0 0 1 120 280 L 120 254  Z " fill-rule="nonzero" fill="#eeeeee" stroke="none" fill-opacity="0" />
    <path d="M 119.5 254  A 2.5 2.5 0 0 1 122 251.5 L 176 251.5  A 2.5 2.5 0 0 1 178.5 254 L 178.5 280  A 2.5 2.5 0 0 1 176 282.5 L 122 282.5  A 2.5 2.5 0 0 1 119.5 280 L 119.5 254  Z " stroke-width="1" stroke="#000000" fill="none" stroke-opacity="0.258823529411765" />
  </g>
</svg>