<?xml version="1.0" encoding="utf-8"?>
<svg version="1.1" xmlns:xlink="http://www.w3.org/1999/xlink" width="480px" height="230px" xmlns="http://www.w3.org/2000/svg">
  <defs>
    <mask fill="white" id="clip447">
      <path d="M 0 4  C 0 1.790861  1.790861 0  4 0  L 476 0  C 478.209139 0  480 1.790861  480 4  L 480 226  C 480 228.209139  478.209139 230  476 230  L 4 230  C 1.790861 230  0 228.209139  0 226  L 0 4  Z " fill-rule="evenodd" />
    </mask>
  </defs>
  <g transform="matrix(1 0 0 1 -1362 -825 )">
    <path d="M 0 4  C 0 1.790861  1.790861 0  4 0  L 476 0  C 478.209139 0  480 1.790861  480 4  L 480 226  C 480 228.209139  478.209139 230  476 230  L 4 230  C 1.790861 230  0 228.209139  0 226  L 0 4  Z " fill-rule="nonzero" fill="#ffffff" stroke="none" transform="matrix(1 0 0 1 1362 825 )" />
    <path d="M 0 4  C 0 1.790861  1.790861 0  4 0  L 476 0  C 478.209139 0  480 1.790861  480 4  L 480 226  C 480 228.209139  478.209139 230  476 230  L 4 230  C 1.790861 230  0 228.209139  0 226  L 0 4  Z " stroke-width="2" stroke="#000000" fill="none" transform="matrix(1 0 0 1 1362 825 )" mask="url(#clip447)" />
  </g>
</svg>