<?xml version="1.0" encoding="utf-8"?>
<svg version="1.1" xmlns:xlink="http://www.w3.org/1999/xlink" width="12px" height="12px" viewBox="532 587.5  12 12" xmlns="http://www.w3.org/2000/svg">
  <path d="M 538 587.5  C 541.36 587.5  544 590.14  544 593.5  C 544 596.86  541.36 599.5  538 599.5  C 534.64 599.5  532 596.86  532 593.5  C 532 590.14  534.64 587.5  538 587.5  Z " fill-rule="nonzero" fill="#ffffff" stroke="none" />
  <path d="M 538 588  C 541.08 588  543.5 590.42  543.5 593.5  C 543.5 596.58  541.08 599  538 599  C 534.92 599  532.5 596.58  532.5 593.5  C 532.5 590.42  534.92 588  538 588  Z " stroke-width="1" stroke="#797979" fill="none" />
  <path d="M 538 596.5  C 536.32 596.5  535 595.18  535 593.5  C 535 591.82  536.32 590.5  538 590.5  C 539.68 590.5  541 591.82  541 593.5  C 541 595.18  539.68 596.5  538 596.5  " fill-rule="nonzero" fill="#797979" stroke="none" />
</svg>