<?xml version="1.0" encoding="utf-8"?>
<svg version="1.1" xmlns:xlink="http://www.w3.org/1999/xlink" width="12px" height="12px" viewBox="411 587.5  12 12" xmlns="http://www.w3.org/2000/svg">
  <path d="M 417 587.5  C 420.36 587.5  423 590.14  423 593.5  C 423 596.86  420.36 599.5  417 599.5  C 413.64 599.5  411 596.86  411 593.5  C 411 590.14  413.64 587.5  417 587.5  Z " fill-rule="nonzero" fill="#f0f0f0" stroke="none" />
  <path d="M 417 588  C 420.08 588  422.5 590.42  422.5 593.5  C 422.5 596.58  420.08 599  417 599  C 413.92 599  411.5 596.58  411.5 593.5  C 411.5 590.42  413.92 588  417 588  Z " stroke-width="1" stroke="#797979" fill="none" />
  <path d="M 417 596.5  C 415.32 596.5  414 595.18  414 593.5  C 414 591.82  415.32 590.5  417 590.5  C 418.68 590.5  420 591.82  420 593.5  C 420 595.18  418.68 596.5  417 596.5  " fill-rule="nonzero" fill="#797979" stroke="none" />
</svg>