<?xml version="1.0" encoding="utf-8"?>
<svg version="1.1" xmlns:xlink="http://www.w3.org/1999/xlink" width="12px" height="12px" viewBox="411 331.5  12 12" xmlns="http://www.w3.org/2000/svg">
  <path d="M 417 331.5  C 420.36 331.5  423 334.14  423 337.5  C 423 340.86  420.36 343.5  417 343.5  C 413.64 343.5  411 340.86  411 337.5  C 411 334.14  413.64 331.5  417 331.5  Z " fill-rule="nonzero" fill="#ffffff" stroke="none" />
  <path d="M 417 332  C 420.08 332  422.5 334.42  422.5 337.5  C 422.5 340.58  420.08 343  417 343  C 413.92 343  411.5 340.58  411.5 337.5  C 411.5 334.42  413.92 332  417 332  Z " stroke-width="1" stroke="#797979" fill="none" />
  <path d="M 417 340.5  C 415.32 340.5  414 339.18  414 337.5  C 414 335.82  415.32 334.5  417 334.5  C 418.68 334.5  420 335.82  420 337.5  C 420 339.18  418.68 340.5  417 340.5  " fill-rule="nonzero" fill="#797979" stroke="none" />
</svg>