<?xml version="1.0" encoding="utf-8"?>
<svg version="1.1" xmlns:xlink="http://www.w3.org/1999/xlink" width="12px" height="12px" viewBox="1116 465.5  12 12" xmlns="http://www.w3.org/2000/svg">
  <path d="M 1122 465.5  C 1125.36 465.5  1128 468.14  1128 471.5  C 1128 474.86  1125.36 477.5  1122 477.5  C 1118.64 477.5  1116 474.86  1116 471.5  C 1116 468.14  1118.64 465.5  1122 465.5  Z " fill-rule="nonzero" fill="#ffffff" stroke="none" />
  <path d="M 1122 466  C 1125.08 466  1127.5 468.42  1127.5 471.5  C 1127.5 474.58  1125.08 477  1122 477  C 1118.92 477  1116.5 474.58  1116.5 471.5  C 1116.5 468.42  1118.92 466  1122 466  Z " stroke-width="1" stroke="#797979" fill="none" />
  <path d="M 1122 474.5  C 1120.32 474.5  1119 473.18  1119 471.5  C 1119 469.82  1120.32 468.5  1122 468.5  C 1123.68 468.5  1125 469.82  1125 471.5  C 1125 473.18  1123.68 474.5  1122 474.5  " fill-rule="nonzero" fill="#797979" stroke="none" />
</svg>