<?xml version="1.0" encoding="utf-8"?>
<svg version="1.1" xmlns:xlink="http://www.w3.org/1999/xlink" width="12px" height="12px" viewBox="710 1.5  12 12" xmlns="http://www.w3.org/2000/svg">
  <path d="M 716 1.5  C 719.36 1.5  722 4.14  722 7.5  C 722 10.86  719.36 13.5  716 13.5  C 712.64 13.5  710 10.86  710 7.5  C 710 4.14  712.64 1.5  716 1.5  Z " fill-rule="nonzero" fill="#ffffff" stroke="none" />
  <path d="M 716 2  C 719.08 2  721.5 4.42  721.5 7.5  C 721.5 10.58  719.08 13  716 13  C 712.92 13  710.5 10.58  710.5 7.5  C 710.5 4.42  712.92 2  716 2  Z " stroke-width="1" stroke="#797979" fill="none" />
  <path d="M 716 10.5  C 714.32 10.5  713 9.18  713 7.5  C 713 5.82  714.32 4.5  716 4.5  C 717.68 4.5  719 5.82  719 7.5  C 719 9.18  717.68 10.5  716 10.5  " fill-rule="nonzero" fill="#797979" stroke="none" />
</svg>