<?xml version="1.0" encoding="utf-8"?>
<svg version="1.1" xmlns:xlink="http://www.w3.org/1999/xlink" width="12px" height="12px" viewBox="120 57.5  12 12" xmlns="http://www.w3.org/2000/svg">
  <path d="M 126 57.5  C 129.36 57.5  132 60.14  132 63.5  C 132 66.86  129.36 69.5  126 69.5  C 122.64 69.5  120 66.86  120 63.5  C 120 60.14  122.64 57.5  126 57.5  Z " fill-rule="nonzero" fill="#ffffff" stroke="none" />
  <path d="M 126 58  C 129.08 58  131.5 60.42  131.5 63.5  C 131.5 66.58  129.08 69  126 69  C 122.92 69  120.5 66.58  120.5 63.5  C 120.5 60.42  122.92 58  126 58  Z " stroke-width="1" stroke="#797979" fill="none" />
  <path d="M 126 66.5  C 124.32 66.5  123 65.18  123 63.5  C 123 61.82  124.32 60.5  126 60.5  C 127.68 60.5  129 61.82  129 63.5  C 129 65.18  127.68 66.5  126 66.5  " fill-rule="nonzero" fill="#797979" stroke="none" />
</svg>