<?xml version="1.0" encoding="utf-8"?>
<svg version="1.1" xmlns:xlink="http://www.w3.org/1999/xlink" width="12px" height="12px" viewBox="294 57.5  12 12" xmlns="http://www.w3.org/2000/svg">
  <path d="M 300 57.5  C 303.36 57.5  306 60.14  306 63.5  C 306 66.86  303.36 69.5  300 69.5  C 296.64 69.5  294 66.86  294 63.5  C 294 60.14  296.64 57.5  300 57.5  Z " fill-rule="nonzero" fill="#f0f0f0" stroke="none" />
  <path d="M 300 58  C 303.08 58  305.5 60.42  305.5 63.5  C 305.5 66.58  303.08 69  300 69  C 296.92 69  294.5 66.58  294.5 63.5  C 294.5 60.42  296.92 58  300 58  Z " stroke-width="1" stroke="#797979" fill="none" />
  <path d="M 300 66.5  C 298.32 66.5  297 65.18  297 63.5  C 297 61.82  298.32 60.5  300 60.5  C 301.68 60.5  303 61.82  303 63.5  C 303 65.18  301.68 66.5  300 66.5  " fill-rule="nonzero" fill="#797979" stroke="none" />
</svg>