<?xml version="1.0" encoding="utf-8"?>
<svg version="1.1" xmlns:xlink="http://www.w3.org/1999/xlink" width="12px" height="12px" viewBox="952 57.5  12 12" xmlns="http://www.w3.org/2000/svg">
  <path d="M 958 57.5  C 961.36 57.5  964 60.14  964 63.5  C 964 66.86  961.36 69.5  958 69.5  C 954.64 69.5  952 66.86  952 63.5  C 952 60.14  954.64 57.5  958 57.5  Z " fill-rule="nonzero" fill="#ffffff" stroke="none" />
  <path d="M 958 58  C 961.08 58  963.5 60.42  963.5 63.5  C 963.5 66.58  961.08 69  958 69  C 954.92 69  952.5 66.58  952.5 63.5  C 952.5 60.42  954.92 58  958 58  Z " stroke-width="1" stroke="#797979" fill="none" />
  <path d="M 958 66.5  C 956.32 66.5  955 65.18  955 63.5  C 955 61.82  956.32 60.5  958 60.5  C 959.68 60.5  961 61.82  961 63.5  C 961 65.18  959.68 66.5  958 66.5  " fill-rule="nonzero" fill="#797979" stroke="none" />
</svg>