<?xml version="1.0" encoding="utf-8"?>
<svg version="1.1" xmlns:xlink="http://www.w3.org/1999/xlink" width="12px" height="12px" viewBox="1116 451.5  12 12" xmlns="http://www.w3.org/2000/svg">
  <path d="M 1122 451.5  C 1125.36 451.5  1128 454.14  1128 457.5  C 1128 460.86  1125.36 463.5  1122 463.5  C 1118.64 463.5  1116 460.86  1116 457.5  C 1116 454.14  1118.64 451.5  1122 451.5  Z " fill-rule="nonzero" fill="#ffffff" stroke="none" />
  <path d="M 1122 452  C 1125.08 452  1127.5 454.42  1127.5 457.5  C 1127.5 460.58  1125.08 463  1122 463  C 1118.92 463  1116.5 460.58  1116.5 457.5  C 1116.5 454.42  1118.92 452  1122 452  Z " stroke-width="1" stroke="#797979" fill="none" />
  <path d="M 1122 460.5  C 1120.32 460.5  1119 459.18  1119 457.5  C 1119 455.82  1120.32 454.5  1122 454.5  C 1123.68 454.5  1125 455.82  1125 457.5  C 1125 459.18  1123.68 460.5  1122 460.5  " fill-rule="nonzero" fill="#797979" stroke="none" />
</svg>