<?xml version="1.0" encoding="utf-8"?>
<svg version="1.1" xmlns:xlink="http://www.w3.org/1999/xlink" width="12px" height="12px" viewBox="994 451.5  12 12" xmlns="http://www.w3.org/2000/svg">
  <path d="M 1000 451.5  C 1003.36 451.5  1006 454.14  1006 457.5  C 1006 460.86  1003.36 463.5  1000 463.5  C 996.64 463.5  994 460.86  994 457.5  C 994 454.14  996.64 451.5  1000 451.5  Z " fill-rule="nonzero" fill="#f0f0f0" stroke="none" />
  <path d="M 1000 452  C 1003.08 452  1005.5 454.42  1005.5 457.5  C 1005.5 460.58  1003.08 463  1000 463  C 996.92 463  994.5 460.58  994.5 457.5  C 994.5 454.42  996.92 452  1000 452  Z " stroke-width="1" stroke="#797979" fill="none" />
  <path d="M 1000 460.5  C 998.32 460.5  997 459.18  997 457.5  C 997 455.82  998.32 454.5  1000 454.5  C 1001.68 454.5  1003 455.82  1003 457.5  C 1003 459.18  1001.68 460.5  1000 460.5  " fill-rule="nonzero" fill="#797979" stroke="none" />
</svg>