<?xml version="1.0" encoding="utf-8"?>
<svg version="1.1" xmlns:xlink="http://www.w3.org/1999/xlink" width="388px" height="32px" xmlns="http://www.w3.org/2000/svg">
  <defs>
    <mask fill="white" id="clip618">
      <path d="M 1.27631578947368 0  C 1.27631578947368 0  386.723684210526 0  386.723684210526 0  C 387.07612945614 0  387.395208403509 0.167893219  387.626175614035 0.439339828  C 387.857143675439 0.71078644  388 1.08578644  388 1.5  C 388 1.5  388 30.5  388 30.5  C 388 30.9142136  387.857143675439 31.2892136  387.626175614035 31.5606602  C 387.395208403509 31.8321068  387.07612945614 32  386.723684210526 32  C 386.723684210526 32  1.27631578947368 32  1.27631578947368 32  C 0.92387091824562 32  0.604791970877199 31.8321068  0.373824239614036 31.5606602  C 0.142856510903515 31.2892136  0 30.9142136  0 30.5  C 0 30.5  0 1.5  0 1.5  C 0 1.08578644  0.142856510903515 0.71078644  0.373824239614036 0.439339828  C 0.604791970877199 0.167893219  0.92387091824562 0  1.27631578947368 0  Z " fill-rule="evenodd" />
    </mask>
  </defs>
  <g transform="matrix(1 0 0 1 -6 -50 )">
    <path d="M 1.27631578947368 0  C 1.27631578947368 0  386.723684210526 0  386.723684210526 0  C 387.07612945614 0  387.395208403509 0.167893219  387.626175614035 0.439339828  C 387.857143675439 0.71078644  388 1.08578644  388 1.5  C 388 1.5  388 30.5  388 30.5  C 388 30.9142136  387.857143675439 31.2892136  387.626175614035 31.5606602  C 387.395208403509 31.8321068  387.07612945614 32  386.723684210526 32  C 386.723684210526 32  1.27631578947368 32  1.27631578947368 32  C 0.92387091824562 32  0.604791970877199 31.8321068  0.373824239614036 31.5606602  C 0.142856510903515 31.2892136  0 30.9142136  0 30.5  C 0 30.5  0 1.5  0 1.5  C 0 1.08578644  0.142856510903515 0.71078644  0.373824239614036 0.439339828  C 0.604791970877199 0.167893219  0.92387091824562 0  1.27631578947368 0  Z " fill-rule="nonzero" fill="#ffffff" stroke="none" transform="matrix(1 0 0 1 6 50 )" />
    <path d="M 1.27631578947368 0  C 1.27631578947368 0  386.723684210526 0  386.723684210526 0  C 387.07612945614 0  387.395208403509 0.167893219  387.626175614035 0.439339828  C 387.857143675439 0.71078644  388 1.08578644  388 1.5  C 388 1.5  388 30.5  388 30.5  C 388 30.9142136  387.857143675439 31.2892136  387.626175614035 31.5606602  C 387.395208403509 31.8321068  387.07612945614 32  386.723684210526 32  C 386.723684210526 32  1.27631578947368 32  1.27631578947368 32  C 0.92387091824562 32  0.604791970877199 31.8321068  0.373824239614036 31.5606602  C 0.142856510903515 31.2892136  0 30.9142136  0 30.5  C 0 30.5  0 1.5  0 1.5  C 0 1.08578644  0.142856510903515 0.71078644  0.373824239614036 0.439339828  C 0.604791970877199 0.167893219  0.92387091824562 0  1.27631578947368 0  Z " stroke-width="2" stroke="#dddddd" fill="none" transform="matrix(1 0 0 1 6 50 )" mask="url(#clip618)" />
  </g>
</svg>