<?xml version="1.0" encoding="utf-8"?>
<svg version="1.1" xmlns:xlink="http://www.w3.org/1999/xlink" width="16px" height="16px" xmlns="http://www.w3.org/2000/svg">
  <g transform="matrix(1 0 0 1 -400 -167 )">
    <path d="M 408 167  C 412.48 167  416 170.52  416 175  C 416 179.48  412.48 183  408 183  C 403.52 183  400 179.48  400 175  C 400 170.52  403.52 167  408 167  Z " fill-rule="nonzero" fill="#ffffff" stroke="none" />
    <path d="M 408 167.5  C 412.2 167.5  415.5 170.8  415.5 175  C 415.5 179.2  412.2 182.5  408 182.5  C 403.8 182.5  400.5 179.2  400.5 175  C 400.5 170.8  403.8 167.5  408 167.5  Z " stroke-width="1" stroke="#dddddd" fill="none" />
  </g>
</svg>