<?xml version="1.0" encoding="utf-8"?>
<svg version="1.1" xmlns:xlink="http://www.w3.org/1999/xlink" width="16px" height="16px" xmlns="http://www.w3.org/2000/svg">
  <g transform="matrix(1 0 0 1 -482 -167 )">
    <path d="M 490 167  C 494.48 167  498 170.52  498 175  C 498 179.48  494.48 183  490 183  C 485.52 183  482 179.48  482 175  C 482 170.52  485.52 167  490 167  Z " fill-rule="nonzero" fill="#ffffff" stroke="none" fill-opacity="0" />
    <path d="M 490 167.5  C 494.2 167.5  497.5 170.8  497.5 175  C 497.5 179.2  494.2 182.5  490 182.5  C 485.8 182.5  482.5 179.2  482.5 175  C 482.5 170.8  485.8 167.5  490 167.5  Z " stroke-width="1" stroke="#0052d9" fill="none" />
  </g>
</svg>