<?xml version="1.0" encoding="utf-8"?>
<svg version="1.1" xmlns:xlink="http://www.w3.org/1999/xlink" width="16px" height="16px" xmlns="http://www.w3.org/2000/svg">
  <g transform="matrix(1 0 0 1 -20 -17 )">
    <path d="M 0 8.90038809831824  L 3.25 6.09573091849935  L 8 9.2522639068564  L 4.71153846153846 12.2018111254851  L 0 8.90038809831824  Z M 11.3173076923077 12.8331177231565  L 12.7307692307692 11.8395860284605  L 12.7307692307692 12.9573091849935  L 8.01923076923077 15.9896507115136  L 8.01923076923077 16  L 8.00961538461539 15.9896507115136  L 8 16  L 8 15.9896507115136  L 3.29807692307692 12.9573091849935  L 3.29807692307692 11.8395860284605  L 4.71153846153846 12.8331177231565  L 8 9.89391979301423  L 8 9.8732212160414  L 8.00961538461539 9.88357050452781  L 8.01923076923077 9.8732212160414  L 8.01923076923077 9.89391979301423  L 11.3173076923077 12.8331177231565  Z M 0 3.30142302716688  L 4.71153846153846 0  L 8 2.94954721862872  L 3.25 6.09573091849935  L 0 3.30142302716688  Z M 8 9.2522639068564  L 12.75 6.09573091849935  L 16 8.90038809831824  L 11.2980769230769 12.2018111254851  L 8 9.2522639068564  Z M 8 2.94954721862872  L 11.2980769230769 0  L 16 3.30142302716688  L 12.75 6.09573091849935  L 8 2.94954721862872  Z " fill-rule="nonzero" fill="#000000" stroke="none" transform="matrix(1 0 0 1 20 17 )" />
  </g>
</svg>