<?xml version="1.0" encoding="utf-8"?>
<svg version="1.1" xmlns:xlink="http://www.w3.org/1999/xlink" width="12px" height="12px" viewBox="1354 1329.5  12 12" xmlns="http://www.w3.org/2000/svg">
  <path d="M 1360 1329.5  C 1363.36 1329.5  1366 1332.14  1366 1335.5  C 1366 1338.86  1363.36 1341.5  1360 1341.5  C 1356.64 1341.5  1354 1338.86  1354 1335.5  C 1354 1332.14  1356.64 1329.5  1360 1329.5  Z " fill-rule="nonzero" fill="#ffffff" stroke="none" />
  <path d="M 1360 1330  C 1363.08 1330  1365.5 1332.42  1365.5 1335.5  C 1365.5 1338.58  1363.08 1341  1360 1341  C 1356.92 1341  1354.5 1338.58  1354.5 1335.5  C 1354.5 1332.42  1356.92 1330  1360 1330  Z " stroke-width="1" stroke="#797979" fill="none" />
  <path d="M 1360 1338.5  C 1358.32 1338.5  1357 1337.18  1357 1335.5  C 1357 1333.82  1358.32 1332.5  1360 1332.5  C 1361.68 1332.5  1363 1333.82  1363 1335.5  C 1363 1337.18  1361.68 1338.5  1360 1338.5  " fill-rule="nonzero" fill="#797979" stroke="none" />
</svg>