<?xml version="1.0" encoding="utf-8"?>
<svg version="1.1" xmlns:xlink="http://www.w3.org/1999/xlink" width="12px" height="12px" viewBox="1540 1329.5  12 12" xmlns="http://www.w3.org/2000/svg">
  <path d="M 1546 1329.5  C 1549.36 1329.5  1552 1332.14  1552 1335.5  C 1552 1338.86  1549.36 1341.5  1546 1341.5  C 1542.64 1341.5  1540 1338.86  1540 1335.5  C 1540 1332.14  1542.64 1329.5  1546 1329.5  Z " fill-rule="nonzero" fill="#f0f0f0" stroke="none" />
  <path d="M 1546 1330  C 1549.08 1330  1551.5 1332.42  1551.5 1335.5  C 1551.5 1338.58  1549.08 1341  1546 1341  C 1542.92 1341  1540.5 1338.58  1540.5 1335.5  C 1540.5 1332.42  1542.92 1330  1546 1330  Z " stroke-width="1" stroke="#797979" fill="none" />
  <path d="M 1546 1338.5  C 1544.32 1338.5  1543 1337.18  1543 1335.5  C 1543 1333.82  1544.32 1332.5  1546 1332.5  C 1547.68 1332.5  1549 1333.82  1549 1335.5  C 1549 1337.18  1547.68 1338.5  1546 1338.5  " fill-rule="nonzero" fill="#797979" stroke="none" />
</svg>