<?xml version="1.0" encoding="utf-8"?>
<svg version="1.1" xmlns:xlink="http://www.w3.org/1999/xlink" width="12px" height="12px" viewBox="994 475.5  12 12" xmlns="http://www.w3.org/2000/svg">
  <path d="M 1000 475.5  C 1003.36 475.5  1006 478.14  1006 481.5  C 1006 484.86  1003.36 487.5  1000 487.5  C 996.64 487.5  994 484.86  994 481.5  C 994 478.14  996.64 475.5  1000 475.5  Z " fill-rule="nonzero" fill="#ffffff" stroke="none" />
  <path d="M 1000 476  C 1003.08 476  1005.5 478.42  1005.5 481.5  C 1005.5 484.58  1003.08 487  1000 487  C 996.92 487  994.5 484.58  994.5 481.5  C 994.5 478.42  996.92 476  1000 476  Z " stroke-width="1" stroke="#797979" fill="none" />
  <path d="M 1000 484.5  C 998.32 484.5  997 483.18  997 481.5  C 997 479.82  998.32 478.5  1000 478.5  C 1001.68 478.5  1003 479.82  1003 481.5  C 1003 483.18  1001.68 484.5  1000 484.5  " fill-rule="nonzero" fill="#797979" stroke="none" />
</svg>