<?xml version="1.0" encoding="utf-8"?>
<svg version="1.1" xmlns:xlink="http://www.w3.org/1999/xlink" width="12px" height="12px" viewBox="532 550.5  12 12" xmlns="http://www.w3.org/2000/svg">
  <path d="M 538 550.5  C 541.36 550.5  544 553.14  544 556.5  C 544 559.86  541.36 562.5  538 562.5  C 534.64 562.5  532 559.86  532 556.5  C 532 553.14  534.64 550.5  538 550.5  Z " fill-rule="nonzero" fill="#f0f0f0" stroke="none" />
  <path d="M 538 551  C 541.08 551  543.5 553.42  543.5 556.5  C 543.5 559.58  541.08 562  538 562  C 534.92 562  532.5 559.58  532.5 556.5  C 532.5 553.42  534.92 551  538 551  Z " stroke-width="1" stroke="#797979" fill="none" />
  <path d="M 538 559.5  C 536.32 559.5  535 558.18  535 556.5  C 535 554.82  536.32 553.5  538 553.5  C 539.68 553.5  541 554.82  541 556.5  C 541 558.18  539.68 559.5  538 559.5  " fill-rule="nonzero" fill="#797979" stroke="none" />
</svg>