<?xml version="1.0" encoding="utf-8"?>
<svg version="1.1" xmlns:xlink="http://www.w3.org/1999/xlink" width="12px" height="12px" viewBox="991 551.5  12 12" xmlns="http://www.w3.org/2000/svg">
  <path d="M 997 551.5  C 1000.36 551.5  1003 554.14  1003 557.5  C 1003 560.86  1000.36 563.5  997 563.5  C 993.64 563.5  991 560.86  991 557.5  C 991 554.14  993.64 551.5  997 551.5  Z " fill-rule="nonzero" fill="#ffffff" stroke="none" />
  <path d="M 997 552  C 1000.08 552  1002.5 554.42  1002.5 557.5  C 1002.5 560.58  1000.08 563  997 563  C 993.92 563  991.5 560.58  991.5 557.5  C 991.5 554.42  993.92 552  997 552  Z " stroke-width="1" stroke="#797979" fill="none" />
  <path d="M 997 560.5  C 995.32 560.5  994 559.18  994 557.5  C 994 555.82  995.32 554.5  997 554.5  C 998.68 554.5  1000 555.82  1000 557.5  C 1000 559.18  998.68 560.5  997 560.5  " fill-rule="nonzero" fill="#797979" stroke="none" />
</svg>