<?xml version="1.0" encoding="utf-8"?>
<svg version="1.1" xmlns:xlink="http://www.w3.org/1999/xlink" width="380px" height="32px" xmlns="http://www.w3.org/2000/svg">
  <defs>
    <mask fill="white" id="clip650">
      <path d="M 1.25 0  C 1.25 0  378.75 0  378.75 0  C 379.095178333333 0  379.407678333333 0.167893219  379.633883333333 0.439339828  C 379.860089166667 0.71078644  380 1.08578644  380 1.5  C 380 1.5  380 30.5  380 30.5  C 380 30.9142136  379.860089166667 31.2892136  379.633883333333 31.5606602  C 379.407678333333 31.8321068  379.095178333333 32  378.75 32  C 378.75 32  1.25 32  1.25 32  C 0.904822033333339 32  0.592322033333339 31.8321068  0.366116523333335 31.5606602  C 0.139911015833339 31.2892136  0 30.9142136  0 30.5  C 0 30.5  0 1.5  0 1.5  C 0 1.08578644  0.139911015833339 0.71078644  0.366116523333335 0.439339828  C 0.592322033333339 0.167893219  0.904822033333339 0  1.25 0  Z " fill-rule="evenodd" />
    </mask>
  </defs>
  <g transform="matrix(1 0 0 1 -10 -52 )">
    <path d="M 1.25 0  C 1.25 0  378.75 0  378.75 0  C 379.095178333333 0  379.407678333333 0.167893219  379.633883333333 0.439339828  C 379.860089166667 0.71078644  380 1.08578644  380 1.5  C 380 1.5  380 30.5  380 30.5  C 380 30.9142136  379.860089166667 31.2892136  379.633883333333 31.5606602  C 379.407678333333 31.8321068  379.095178333333 32  378.75 32  C 378.75 32  1.25 32  1.25 32  C 0.904822033333339 32  0.592322033333339 31.8321068  0.366116523333335 31.5606602  C 0.139911015833339 31.2892136  0 30.9142136  0 30.5  C 0 30.5  0 1.5  0 1.5  C 0 1.08578644  0.139911015833339 0.71078644  0.366116523333335 0.439339828  C 0.592322033333339 0.167893219  0.904822033333339 0  1.25 0  Z " fill-rule="nonzero" fill="#ffffff" stroke="none" transform="matrix(1 0 0 1 10 52 )" />
    <path d="M 1.25 0  C 1.25 0  378.75 0  378.75 0  C 379.095178333333 0  379.407678333333 0.167893219  379.633883333333 0.439339828  C 379.860089166667 0.71078644  380 1.08578644  380 1.5  C 380 1.5  380 30.5  380 30.5  C 380 30.9142136  379.860089166667 31.2892136  379.633883333333 31.5606602  C 379.407678333333 31.8321068  379.095178333333 32  378.75 32  C 378.75 32  1.25 32  1.25 32  C 0.904822033333339 32  0.592322033333339 31.8321068  0.366116523333335 31.5606602  C 0.139911015833339 31.2892136  0 30.9142136  0 30.5  C 0 30.5  0 1.5  0 1.5  C 0 1.08578644  0.139911015833339 0.71078644  0.366116523333335 0.439339828  C 0.592322033333339 0.167893219  0.904822033333339 0  1.25 0  Z " stroke-width="2" stroke="#dddddd" fill="none" transform="matrix(1 0 0 1 10 52 )" mask="url(#clip650)" />
  </g>
</svg>