<?xml version="1.0" encoding="utf-8"?>
<svg version="1.1" xmlns:xlink="http://www.w3.org/1999/xlink" width="756px" height="334px" xmlns="http://www.w3.org/2000/svg">
  <defs>
    <mask fill="white" id="clip651">
      <path d="M 0 5.46086956521739  C 0 2.4449145826087  2.74598686666667 0  6.13333333333333 0  L 729.866666666667 0  C 733.254013133333 0  736 2.4449145826087  736 5.46086956521739  L 736 308.539130434783  C 736 311.555085417391  733.254013133333 314  729.866666666667 314  L 6.13333333333333 314  C 2.74598686666667 314  0 311.555085417391  0 308.539130434783  L 0 5.46086956521739  Z " fill-rule="evenodd" />
    </mask>
    <filter x="-5px" y="-5px" width="756px" height="334px" filterUnits="userSpaceOnUse" id="filter652">
      <feOffset dx="5" dy="5" in="SourceAlpha" result="shadowOffsetInner" />
      <feGaussianBlur stdDeviation="5" in="shadowOffsetInner" result="shadowGaussian" />
      <feComposite in2="shadowGaussian" operator="atop" in="SourceAlpha" result="shadowComposite" />
      <feColorMatrix type="matrix" values="0 0 0 0 0  0 0 0 0 0  0 0 0 0 0  0 0 0 0.313725490196078 0  " in="shadowComposite" />
    </filter>
    <g id="widget653">
      <path d="M 0 5.46086956521739  C 0 2.4449145826087  2.74598686666667 0  6.13333333333333 0  L 729.866666666667 0  C 733.254013133333 0  736 2.4449145826087  736 5.46086956521739  L 736 308.539130434783  C 736 311.555085417391  733.254013133333 314  729.866666666667 314  L 6.13333333333333 314  C 2.74598686666667 314  0 311.555085417391  0 308.539130434783  L 0 5.46086956521739  Z " fill-rule="nonzero" fill="#ffffff" stroke="none" />
      <path d="M 0 5.46086956521739  C 0 2.4449145826087  2.74598686666667 0  6.13333333333333 0  L 729.866666666667 0  C 733.254013133333 0  736 2.4449145826087  736 5.46086956521739  L 736 308.539130434783  C 736 311.555085417391  733.254013133333 314  729.866666666667 314  L 6.13333333333333 314  C 2.74598686666667 314  0 311.555085417391  0 308.539130434783  L 0 5.46086956521739  Z " stroke-width="2" stroke="#000000" fill="none" mask="url(#clip651)" />
    </g>
  </defs>
  <g transform="matrix(1 0 0 1 5 5 )">
    <use xlink:href="#widget653" filter="url(#filter652)" />
    <use xlink:href="#widget653" />
  </g>
</svg>