<?xml version="1.0" encoding="utf-8"?>
<svg version="1.1" xmlns:xlink="http://www.w3.org/1999/xlink" width="12px" height="12px" viewBox="258 418.5  12 12" xmlns="http://www.w3.org/2000/svg">
  <path d="M 264 418.5  C 267.36 418.5  270 421.14  270 424.5  C 270 427.86  267.36 430.5  264 430.5  C 260.64 430.5  258 427.86  258 424.5  C 258 421.14  260.64 418.5  264 418.5  Z " fill-rule="nonzero" fill="#f0f0f0" stroke="none" />
  <path d="M 264 419  C 267.08 419  269.5 421.42  269.5 424.5  C 269.5 427.58  267.08 430  264 430  C 260.92 430  258.5 427.58  258.5 424.5  C 258.5 421.42  260.92 419  264 419  Z " stroke-width="1" stroke="#797979" fill="none" />
  <path d="M 264 427.5  C 262.32 427.5  261 426.18  261 424.5  C 261 422.82  262.32 421.5  264 421.5  C 265.68 421.5  267 422.82  267 424.5  C 267 426.18  265.68 427.5  264 427.5  " fill-rule="nonzero" fill="#797979" stroke="none" />
</svg>