<?xml version="1.0" encoding="utf-8"?>
<svg version="1.1" xmlns:xlink="http://www.w3.org/1999/xlink" width="12px" height="12px" viewBox="340 418.5  12 12" xmlns="http://www.w3.org/2000/svg">
  <path d="M 346 418.5  C 349.36 418.5  352 421.14  352 424.5  C 352 427.86  349.36 430.5  346 430.5  C 342.64 430.5  340 427.86  340 424.5  C 340 421.14  342.64 418.5  346 418.5  Z " fill-rule="nonzero" fill="#f0f0f0" stroke="none" />
  <path d="M 346 419  C 349.08 419  351.5 421.42  351.5 424.5  C 351.5 427.58  349.08 430  346 430  C 342.92 430  340.5 427.58  340.5 424.5  C 340.5 421.42  342.92 419  346 419  Z " stroke-width="1" stroke="#797979" fill="none" />
  <path d="M 346 427.5  C 344.32 427.5  343 426.18  343 424.5  C 343 422.82  344.32 421.5  346 421.5  C 347.68 421.5  349 422.82  349 424.5  C 349 426.18  347.68 427.5  346 427.5  " fill-rule="nonzero" fill="#797979" stroke="none" />
</svg>