<?xml version="1.0" encoding="utf-8"?>
<svg version="1.1" xmlns:xlink="http://www.w3.org/1999/xlink" width="12px" height="12px" viewBox="1369 2691.5  12 12" xmlns="http://www.w3.org/2000/svg">
  <path d="M 1375 2691.5  C 1378.36 2691.5  1381 2694.14  1381 2697.5  C 1381 2700.86  1378.36 2703.5  1375 2703.5  C 1371.64 2703.5  1369 2700.86  1369 2697.5  C 1369 2694.14  1371.64 2691.5  1375 2691.5  Z " fill-rule="nonzero" fill="#f0f0f0" stroke="none" />
  <path d="M 1375 2692  C 1378.08 2692  1380.5 2694.42  1380.5 2697.5  C 1380.5 2700.58  1378.08 2703  1375 2703  C 1371.92 2703  1369.5 2700.58  1369.5 2697.5  C 1369.5 2694.42  1371.92 2692  1375 2692  Z " stroke-width="1" stroke="#797979" fill="none" />
  <path d="M 1375 2700.5  C 1373.32 2700.5  1372 2699.18  1372 2697.5  C 1372 2695.82  1373.32 2694.5  1375 2694.5  C 1376.68 2694.5  1378 2695.82  1378 2697.5  C 1378 2699.18  1376.68 2700.5  1375 2700.5  " fill-rule="nonzero" fill="#797979" stroke="none" />
</svg>