<?xml version="1.0" encoding="utf-8"?>
<svg version="1.1" xmlns:xlink="http://www.w3.org/1999/xlink" width="12px" height="12px" viewBox="2502 2691.5  12 12" xmlns="http://www.w3.org/2000/svg">
  <path d="M 2508 2691.5  C 2511.36 2691.5  2514 2694.14  2514 2697.5  C 2514 2700.86  2511.36 2703.5  2508 2703.5  C 2504.64 2703.5  2502 2700.86  2502 2697.5  C 2502 2694.14  2504.64 2691.5  2508 2691.5  Z " fill-rule="nonzero" fill="#f0f0f0" stroke="none" />
  <path d="M 2508 2692  C 2511.08 2692  2513.5 2694.42  2513.5 2697.5  C 2513.5 2700.58  2511.08 2703  2508 2703  C 2504.92 2703  2502.5 2700.58  2502.5 2697.5  C 2502.5 2694.42  2504.92 2692  2508 2692  Z " stroke-width="1" stroke="#797979" fill="none" />
  <path d="M 2508 2700.5  C 2506.32 2700.5  2505 2699.18  2505 2697.5  C 2505 2695.82  2506.32 2694.5  2508 2694.5  C 2509.68 2694.5  2511 2695.82  2511 2697.5  C 2511 2699.18  2509.68 2700.5  2508 2700.5  " fill-rule="nonzero" fill="#797979" stroke="none" />
</svg>