<?xml version="1.0" encoding="utf-8"?>
<svg version="1.1" xmlns:xlink="http://www.w3.org/1999/xlink" width="12px" height="12px" viewBox="1287 1661.5  12 12" xmlns="http://www.w3.org/2000/svg">
  <path d="M 1293 1661.5  C 1296.36 1661.5  1299 1664.14  1299 1667.5  C 1299 1670.86  1296.36 1673.5  1293 1673.5  C 1289.64 1673.5  1287 1670.86  1287 1667.5  C 1287 1664.14  1289.64 1661.5  1293 1661.5  Z " fill-rule="nonzero" fill="#f0f0f0" stroke="none" />
  <path d="M 1293 1662  C 1296.08 1662  1298.5 1664.42  1298.5 1667.5  C 1298.5 1670.58  1296.08 1673  1293 1673  C 1289.92 1673  1287.5 1670.58  1287.5 1667.5  C 1287.5 1664.42  1289.92 1662  1293 1662  Z " stroke-width="1" stroke="#797979" fill="none" />
  <path d="M 1293 1670.5  C 1291.32 1670.5  1290 1669.18  1290 1667.5  C 1290 1665.82  1291.32 1664.5  1293 1664.5  C 1294.68 1664.5  1296 1665.82  1296 1667.5  C 1296 1669.18  1294.68 1670.5  1293 1670.5  " fill-rule="nonzero" fill="#797979" stroke="none" />
</svg>