<?xml version="1.0" encoding="utf-8"?>
<svg version="1.1" xmlns:xlink="http://www.w3.org/1999/xlink" width="12px" height="12px" viewBox="1369 1661.5  12 12" xmlns="http://www.w3.org/2000/svg">
  <path d="M 1375 1661.5  C 1378.36 1661.5  1381 1664.14  1381 1667.5  C 1381 1670.86  1378.36 1673.5  1375 1673.5  C 1371.64 1673.5  1369 1670.86  1369 1667.5  C 1369 1664.14  1371.64 1661.5  1375 1661.5  Z " fill-rule="nonzero" fill="#f0f0f0" stroke="none" />
  <path d="M 1375 1662  C 1378.08 1662  1380.5 1664.42  1380.5 1667.5  C 1380.5 1670.58  1378.08 1673  1375 1673  C 1371.92 1673  1369.5 1670.58  1369.5 1667.5  C 1369.5 1664.42  1371.92 1662  1375 1662  Z " stroke-width="1" stroke="#797979" fill="none" />
  <path d="M 1375 1670.5  C 1373.32 1670.5  1372 1669.18  1372 1667.5  C 1372 1665.82  1373.32 1664.5  1375 1664.5  C 1376.68 1664.5  1378 1665.82  1378 1667.5  C 1378 1669.18  1376.68 1670.5  1375 1670.5  " fill-rule="nonzero" fill="#797979" stroke="none" />
</svg>