<?xml version="1.0" encoding="utf-8"?>
<svg version="1.1" xmlns:xlink="http://www.w3.org/1999/xlink" width="12px" height="12px" viewBox="2420 1661.5  12 12" xmlns="http://www.w3.org/2000/svg">
  <path d="M 2426 1661.5  C 2429.36 1661.5  2432 1664.14  2432 1667.5  C 2432 1670.86  2429.36 1673.5  2426 1673.5  C 2422.64 1673.5  2420 1670.86  2420 1667.5  C 2420 1664.14  2422.64 1661.5  2426 1661.5  Z " fill-rule="nonzero" fill="#f0f0f0" stroke="none" />
  <path d="M 2426 1662  C 2429.08 1662  2431.5 1664.42  2431.5 1667.5  C 2431.5 1670.58  2429.08 1673  2426 1673  C 2422.92 1673  2420.5 1670.58  2420.5 1667.5  C 2420.5 1664.42  2422.92 1662  2426 1662  Z " stroke-width="1" stroke="#797979" fill="none" />
  <path d="M 2426 1670.5  C 2424.32 1670.5  2423 1669.18  2423 1667.5  C 2423 1665.82  2424.32 1664.5  2426 1664.5  C 2427.68 1664.5  2429 1665.82  2429 1667.5  C 2429 1669.18  2427.68 1670.5  2426 1670.5  " fill-rule="nonzero" fill="#797979" stroke="none" />
</svg>