<?xml version="1.0" encoding="utf-8"?>
<svg version="1.1" xmlns:xlink="http://www.w3.org/1999/xlink" width="12px" height="12px" viewBox="2026 380.5  12 12" xmlns="http://www.w3.org/2000/svg">
  <path d="M 2032 380.5  C 2035.36 380.5  2038 383.14  2038 386.5  C 2038 389.86  2035.36 392.5  2032 392.5  C 2028.64 392.5  2026 389.86  2026 386.5  C 2026 383.14  2028.64 380.5  2032 380.5  Z " fill-rule="nonzero" fill="#ffffff" stroke="none" />
  <path d="M 2032 381  C 2035.08 381  2037.5 383.42  2037.5 386.5  C 2037.5 389.58  2035.08 392  2032 392  C 2028.92 392  2026.5 389.58  2026.5 386.5  C 2026.5 383.42  2028.92 381  2032 381  Z " stroke-width="1" stroke="#797979" fill="none" />
  <path d="M 2032 389.5  C 2030.32 389.5  2029 388.18  2029 386.5  C 2029 384.82  2030.32 383.5  2032 383.5  C 2033.68 383.5  2035 384.82  2035 386.5  C 2035 388.18  2033.68 389.5  2032 389.5  " fill-rule="nonzero" fill="#797979" stroke="none" />
</svg>