<?xml version="1.0" encoding="utf-8"?>
<svg version="1.1" xmlns:xlink="http://www.w3.org/1999/xlink" width="12px" height="12px" viewBox="1944 380.5  12 12" xmlns="http://www.w3.org/2000/svg">
  <path d="M 1950 380.5  C 1953.36 380.5  1956 383.14  1956 386.5  C 1956 389.86  1953.36 392.5  1950 392.5  C 1946.64 392.5  1944 389.86  1944 386.5  C 1944 383.14  1946.64 380.5  1950 380.5  Z " fill-rule="nonzero" fill="#ffffff" stroke="none" />
  <path d="M 1950 381  C 1953.08 381  1955.5 383.42  1955.5 386.5  C 1955.5 389.58  1953.08 392  1950 392  C 1946.92 392  1944.5 389.58  1944.5 386.5  C 1944.5 383.42  1946.92 381  1950 381  Z " stroke-width="1" stroke="#797979" fill="none" />
  <path d="M 1950 389.5  C 1948.32 389.5  1947 388.18  1947 386.5  C 1947 384.82  1948.32 383.5  1950 383.5  C 1951.68 383.5  1953 384.82  1953 386.5  C 1953 388.18  1951.68 389.5  1950 389.5  " fill-rule="nonzero" fill="#797979" stroke="none" />
</svg>