<?xml version="1.0" encoding="utf-8"?>
<svg version="1.1" xmlns:xlink="http://www.w3.org/1999/xlink" width="16px" height="16px" xmlns="http://www.w3.org/2000/svg">
  <g transform="matrix(1 0 0 1 -20 -16 )">
    <path d="M 10.9583333333333 10.9583333333333  C 10.7638888888889 11.1527777777778  10.6666666666667 11.3888888888889  10.6666666666667 11.6666666666667  L 10.6666666666667 16  L 1 16  C 0.722222222222222 16  0.486111111111111 15.9027777777778  0.291666666666667 15.7083333333333  C 0.0972222222222222 15.5138888888889  0 15.2777777777778  0 15  L 0 1  C 0 0.722222222222221  0.0972222222222222 0.486111111111109  0.291666666666667 0.291666666666666  C 0.486111111111111 0.0972222222222214  0.722222222222222 0  1 0  L 15 0  C 15.2777777777778 0  15.5138888888889 0.0972222222222214  15.7083333333333 0.291666666666666  C 15.9027777777778 0.486111111111109  16 0.722222222222221  16 1  L 16 10.6666666666667  L 11.6666666666667 10.6666666666667  C 11.3888888888889 10.6666666666667  11.1527777777778 10.7638888888889  10.9583333333333 10.9583333333333  Z M 12 15.96875  L 12 12  L 15.96875 12  C 15.8645833333333 12.5694444444444  15.6388888888889 13.0277777777778  15.2916666666667 13.375  L 13.375 15.2916666666667  C 13.0277777777778 15.6388888888889  12.5694444444444 15.8645833333333  12 15.96875  Z " fill-rule="nonzero" fill="#ffffff" stroke="none" fill-opacity="0.549019607843137" transform="matrix(1 0 0 1 20 16 )" />
  </g>
</svg>